G04 #@! TF.GenerationSoftware,KiCad,Pcbnew,5.1.5*
G04 #@! TF.CreationDate,2020-01-03T23:49:01-05:00*
G04 #@! TF.ProjectId,cluster-controller-module,636c7573-7465-4722-9d63-6f6e74726f6c,v02*
G04 #@! TF.SameCoordinates,Original*
G04 #@! TF.FileFunction,Copper,L3,Inr*
G04 #@! TF.FilePolarity,Positive*
%FSLAX46Y46*%
G04 Gerber Fmt 4.6, Leading zero omitted, Abs format (unit mm)*
G04 Created by KiCad (PCBNEW 5.1.5) date 2020-01-03 23:49:01*
%MOMM*%
%LPD*%
G04 APERTURE LIST*
%ADD10C,0.700000*%
%ADD11O,0.900000X2.400000*%
%ADD12O,0.900000X1.700000*%
%ADD13R,2.100000X2.100000*%
%ADD14C,2.100000*%
%ADD15C,6.000000*%
%ADD16C,0.800000*%
%ADD17C,2.540000*%
%ADD18C,3.987800*%
%ADD19R,1.700000X1.700000*%
%ADD20O,1.700000X1.700000*%
%ADD21C,1.524000*%
%ADD22C,0.200000*%
%ADD23C,0.254000*%
G04 APERTURE END LIST*
D10*
X154700000Y-66150000D03*
X153850000Y-66150000D03*
X153000000Y-66150000D03*
X152150000Y-66150000D03*
X151300000Y-66150000D03*
X150450000Y-66150000D03*
X149600000Y-66150000D03*
X148750000Y-66150000D03*
X153850000Y-64800000D03*
X152150000Y-64800000D03*
X153000000Y-64800000D03*
X154700000Y-64800000D03*
X150450000Y-64800000D03*
X149600000Y-64800000D03*
X148750000Y-64800000D03*
X151300000Y-64800000D03*
D11*
X156050000Y-65170000D03*
X147400000Y-65170000D03*
D12*
X156050000Y-61790000D03*
X147400000Y-61790000D03*
D13*
X113750000Y-101390000D03*
D14*
X113750000Y-98850000D03*
X113750000Y-96310000D03*
X113750000Y-93770000D03*
X113750000Y-91230000D03*
X113750000Y-88690000D03*
X113750000Y-86150000D03*
X113750000Y-83610000D03*
D15*
X113500000Y-63500000D03*
D16*
X115750000Y-63500000D03*
X115090990Y-65090990D03*
X113500000Y-65750000D03*
X111909010Y-65090990D03*
X111250000Y-63500000D03*
X111909010Y-61909010D03*
X113500000Y-61250000D03*
X115090990Y-61909010D03*
X164090990Y-119909010D03*
X162500000Y-119250000D03*
X160909010Y-119909010D03*
X160250000Y-121500000D03*
X160909010Y-123090990D03*
X162500000Y-123750000D03*
X164090990Y-123090990D03*
X164750000Y-121500000D03*
D15*
X162500000Y-121500000D03*
X162500000Y-63500000D03*
D16*
X164750000Y-63500000D03*
X164090990Y-65090990D03*
X162500000Y-65750000D03*
X160909010Y-65090990D03*
X160250000Y-63500000D03*
X160909010Y-61909010D03*
X162500000Y-61250000D03*
X164090990Y-61909010D03*
X115090990Y-119909010D03*
X113500000Y-119250000D03*
X111909010Y-119909010D03*
X111250000Y-121500000D03*
X111909010Y-123090990D03*
X113500000Y-123750000D03*
X115090990Y-123090990D03*
X115750000Y-121500000D03*
D15*
X113500000Y-121500000D03*
D17*
X124050000Y-73380000D03*
X134210000Y-73380000D03*
X129130000Y-73380000D03*
X139290000Y-73380000D03*
X121510000Y-70840000D03*
X141830000Y-70840000D03*
D18*
X126590000Y-63220000D03*
X136750000Y-63220000D03*
D19*
X164200000Y-78535000D03*
D20*
X164200000Y-81075000D03*
X164200000Y-83615000D03*
X164200000Y-86155000D03*
X164200000Y-88695000D03*
X164200000Y-91235000D03*
X164200000Y-93775000D03*
X164200000Y-96315000D03*
X164200000Y-98855000D03*
X164200000Y-101395000D03*
X164200000Y-103935000D03*
X164200000Y-106475000D03*
D21*
X121370000Y-102855000D03*
X128990000Y-102855000D03*
X136610000Y-102855000D03*
X139150000Y-102855000D03*
X139150000Y-96800000D03*
X136610000Y-96800000D03*
X128990000Y-96800000D03*
X121370000Y-96800000D03*
X121370000Y-90750000D03*
X128990000Y-90750000D03*
X136610000Y-90750000D03*
X139150000Y-90750000D03*
X139150000Y-84700000D03*
X136610000Y-84700000D03*
X128990000Y-84700000D03*
X121370000Y-84700000D03*
D19*
X159600000Y-70390000D03*
D20*
X159600000Y-72930000D03*
D16*
X154830000Y-69660000D03*
X150360000Y-71710000D03*
X149610000Y-67750000D03*
X154010000Y-91990000D03*
X154390000Y-82770000D03*
X150600000Y-89090000D03*
X154390000Y-79770000D03*
X144062500Y-78937500D03*
X143630000Y-76190000D03*
X140790000Y-77670000D03*
X144550000Y-73510000D03*
X138600000Y-88170000D03*
X138780000Y-94140000D03*
X145010000Y-97470000D03*
X147590000Y-89940000D03*
X121420000Y-142410000D03*
X149650000Y-100570000D03*
X154390000Y-80770000D03*
X125420000Y-116470000D03*
X154390000Y-81770000D03*
X126420000Y-116470000D03*
X122420000Y-142410000D03*
X149650000Y-101570000D03*
X157030000Y-86210000D03*
X127420000Y-116470000D03*
X123420000Y-142410000D03*
X149650000Y-102570000D03*
X148180000Y-78780000D03*
X149180000Y-78780000D03*
X146220000Y-70800000D03*
X148120000Y-70800000D03*
X150180000Y-78780000D03*
X146220000Y-68600000D03*
X124420000Y-142410000D03*
X149650000Y-103570000D03*
X156040000Y-87090000D03*
X128420000Y-116470000D03*
X154040000Y-88730000D03*
X129420000Y-116470000D03*
X125420000Y-142410000D03*
X149650000Y-104570000D03*
X126420000Y-142410000D03*
X149650000Y-105570000D03*
X153940000Y-87730000D03*
X130420000Y-116470000D03*
X131420000Y-116470000D03*
X152390000Y-84770000D03*
X127420000Y-142410000D03*
X149650000Y-106570000D03*
X128420000Y-142410000D03*
X149650000Y-107570000D03*
X150600000Y-85000000D03*
X132420000Y-116470000D03*
X155790000Y-142420000D03*
X156710000Y-104550000D03*
X156790000Y-142420000D03*
X156710000Y-105550000D03*
X157790000Y-142420000D03*
X156710000Y-106550000D03*
X158790000Y-142420000D03*
X156710000Y-107550000D03*
X148390000Y-84910000D03*
X148390000Y-83910000D03*
X148180000Y-79780000D03*
X146540000Y-76850000D03*
X154390000Y-83770000D03*
X147570000Y-116480000D03*
X154390000Y-84770000D03*
X148570000Y-116480000D03*
X153390000Y-84770000D03*
X149570000Y-116480000D03*
X148600000Y-87580000D03*
X150570000Y-116480000D03*
D22*
X154390000Y-80770000D02*
X155090001Y-81470001D01*
X157730001Y-107566001D02*
X157730001Y-84110001D01*
X157730001Y-84110001D02*
X154390000Y-80770000D01*
X125420000Y-122545699D02*
X127924311Y-125050010D01*
X135739687Y-125050010D02*
X152539696Y-108250001D01*
X157046001Y-108250001D02*
X157730001Y-107566001D01*
X125420000Y-116470000D02*
X125420000Y-122545699D01*
X127924311Y-125050010D02*
X135739687Y-125050010D01*
X152539696Y-108250001D02*
X157046001Y-108250001D01*
X126020001Y-116070001D02*
X126420000Y-116470000D01*
X125719999Y-115769999D02*
X126020001Y-116070001D01*
X125083999Y-115769999D02*
X125719999Y-115769999D01*
X124719999Y-116133999D02*
X125083999Y-115769999D01*
X124719999Y-122411397D02*
X124719999Y-116133999D01*
X154390000Y-81770000D02*
X153689999Y-81069999D01*
X127758622Y-125450020D02*
X124719999Y-122411397D01*
X153689999Y-81069999D02*
X153689999Y-79433999D01*
X157211690Y-108650011D02*
X152705384Y-108650011D01*
X154726001Y-79069999D02*
X158130011Y-82474009D01*
X154053999Y-79069999D02*
X154726001Y-79069999D01*
X158130011Y-82474009D02*
X158130011Y-107731690D01*
X152705384Y-108650011D02*
X135905376Y-125450020D01*
X153689999Y-79433999D02*
X154053999Y-79069999D01*
X158130011Y-107731690D02*
X157211690Y-108650011D01*
X135905376Y-125450020D02*
X127758622Y-125450020D01*
X157030000Y-103193998D02*
X135573998Y-124650000D01*
X157030000Y-86210000D02*
X157030000Y-103193998D01*
X135573998Y-124650000D02*
X128090000Y-124650000D01*
X127420000Y-123980000D02*
X127420000Y-116470000D01*
X128090000Y-124650000D02*
X127420000Y-123980000D01*
X128420000Y-123770000D02*
X128420000Y-116470000D01*
X135408310Y-124249990D02*
X128899990Y-124249990D01*
X156040000Y-87090000D02*
X156040000Y-103618300D01*
X128899990Y-124249990D02*
X128420000Y-123770000D01*
X156040000Y-103618300D02*
X135408310Y-124249990D01*
X148949999Y-93820001D02*
X148949999Y-103280001D01*
X154040000Y-88730000D02*
X148949999Y-93820001D01*
X148949999Y-103280001D02*
X131890000Y-120340000D01*
X131890000Y-120340000D02*
X130660000Y-120340000D01*
X129420000Y-119100000D02*
X129420000Y-116470000D01*
X130660000Y-120340000D02*
X129420000Y-119100000D01*
X154003998Y-87730000D02*
X148549989Y-93184009D01*
X153940000Y-87730000D02*
X154003998Y-87730000D01*
X148549989Y-103100011D02*
X131710010Y-119939990D01*
X148549989Y-93184009D02*
X148549989Y-103100011D01*
X131710010Y-119939990D02*
X130825688Y-119939990D01*
X130420000Y-119534302D02*
X130420000Y-116470000D01*
X130825688Y-119939990D02*
X130420000Y-119534302D01*
X148149979Y-102934323D02*
X132694302Y-118390000D01*
X132694302Y-118390000D02*
X131800000Y-118390000D01*
X153239999Y-87928301D02*
X148149979Y-93018320D01*
X131800000Y-118390000D02*
X131420000Y-118010000D01*
X148149979Y-93018320D02*
X148149979Y-102934323D01*
X131420000Y-118010000D02*
X131420000Y-116470000D01*
X153239999Y-85619999D02*
X152390000Y-84770000D01*
X153239999Y-87928301D02*
X153239999Y-85619999D01*
X149899999Y-90702602D02*
X147749969Y-92852631D01*
X150600000Y-85000000D02*
X149899999Y-85700001D01*
X149899999Y-85700001D02*
X149899999Y-90702602D01*
X147749969Y-92852631D02*
X147749969Y-102768635D01*
X134048604Y-116470000D02*
X132420000Y-116470000D01*
X147749969Y-102768635D02*
X134048604Y-116470000D01*
D23*
G36*
X125823178Y-60692127D02*
G01*
X125344749Y-60890299D01*
X124914174Y-61178000D01*
X124548000Y-61544174D01*
X124260299Y-61974749D01*
X124062127Y-62453178D01*
X123961100Y-62961076D01*
X123961100Y-63478924D01*
X124062127Y-63986822D01*
X124260299Y-64465251D01*
X124548000Y-64895826D01*
X124914174Y-65262000D01*
X125344749Y-65549701D01*
X125823178Y-65747873D01*
X126331076Y-65848900D01*
X126848924Y-65848900D01*
X127356822Y-65747873D01*
X127835251Y-65549701D01*
X128265826Y-65262000D01*
X128632000Y-64895826D01*
X128919701Y-64465251D01*
X129117873Y-63986822D01*
X129218900Y-63478924D01*
X129218900Y-62961076D01*
X129117873Y-62453178D01*
X128919701Y-61974749D01*
X128632000Y-61544174D01*
X128265826Y-61178000D01*
X127835251Y-60890299D01*
X127356822Y-60692127D01*
X127195308Y-60660000D01*
X136144692Y-60660000D01*
X135983178Y-60692127D01*
X135504749Y-60890299D01*
X135074174Y-61178000D01*
X134708000Y-61544174D01*
X134420299Y-61974749D01*
X134222127Y-62453178D01*
X134121100Y-62961076D01*
X134121100Y-63478924D01*
X134222127Y-63986822D01*
X134420299Y-64465251D01*
X134708000Y-64895826D01*
X135074174Y-65262000D01*
X135504749Y-65549701D01*
X135983178Y-65747873D01*
X136491076Y-65848900D01*
X137008924Y-65848900D01*
X137516822Y-65747873D01*
X137995251Y-65549701D01*
X138373444Y-65297000D01*
X146315000Y-65297000D01*
X146315000Y-66047000D01*
X146360624Y-66256233D01*
X146446191Y-66452545D01*
X146568413Y-66628391D01*
X146722592Y-66777014D01*
X146902803Y-66892702D01*
X147105999Y-66964408D01*
X147273000Y-66837502D01*
X147273000Y-65297000D01*
X146315000Y-65297000D01*
X138373444Y-65297000D01*
X138425826Y-65262000D01*
X138792000Y-64895826D01*
X139079701Y-64465251D01*
X139151049Y-64293000D01*
X146315000Y-64293000D01*
X146315000Y-65043000D01*
X147273000Y-65043000D01*
X147273000Y-63502498D01*
X147527000Y-63502498D01*
X147527000Y-65043000D01*
X147793537Y-65043000D01*
X147800368Y-65078989D01*
X147873043Y-65258893D01*
X147881233Y-65274216D01*
X148079480Y-65290912D01*
X148073392Y-65297000D01*
X147527000Y-65297000D01*
X147527000Y-66837502D01*
X147694001Y-66964408D01*
X147897197Y-66892702D01*
X148077408Y-66777014D01*
X148231587Y-66628391D01*
X148353809Y-66452545D01*
X148420225Y-66300170D01*
X148570395Y-66150000D01*
X148556253Y-66135858D01*
X148615000Y-66077110D01*
X148615000Y-66247014D01*
X148651101Y-66428504D01*
X148259088Y-66820517D01*
X148275784Y-67018767D01*
X148454384Y-67094589D01*
X148644344Y-67134110D01*
X148838364Y-67135813D01*
X149028989Y-67099632D01*
X149175651Y-67040385D01*
X149312686Y-67097147D01*
X149502986Y-67135000D01*
X149697014Y-67135000D01*
X149887314Y-67097147D01*
X150025000Y-67040116D01*
X150162686Y-67097147D01*
X150352986Y-67135000D01*
X150547014Y-67135000D01*
X150737314Y-67097147D01*
X150875000Y-67040116D01*
X151012686Y-67097147D01*
X151202986Y-67135000D01*
X151397014Y-67135000D01*
X151587314Y-67097147D01*
X151725000Y-67040116D01*
X151862686Y-67097147D01*
X152052986Y-67135000D01*
X152247014Y-67135000D01*
X152437314Y-67097147D01*
X152575000Y-67040116D01*
X152712686Y-67097147D01*
X152902986Y-67135000D01*
X153097014Y-67135000D01*
X153287314Y-67097147D01*
X153425000Y-67040116D01*
X153562686Y-67097147D01*
X153752986Y-67135000D01*
X153947014Y-67135000D01*
X154137314Y-67097147D01*
X154275542Y-67039891D01*
X154404384Y-67094589D01*
X154594344Y-67134110D01*
X154788364Y-67135813D01*
X154978989Y-67099632D01*
X155158893Y-67026957D01*
X155174216Y-67018767D01*
X155190912Y-66820517D01*
X154798899Y-66428504D01*
X154835000Y-66247014D01*
X154835000Y-66077110D01*
X154893748Y-66135858D01*
X154879605Y-66150000D01*
X155029775Y-66300170D01*
X155096191Y-66452545D01*
X155218413Y-66628391D01*
X155372592Y-66777014D01*
X155552803Y-66892702D01*
X155755999Y-66964408D01*
X155923000Y-66837502D01*
X155923000Y-65297000D01*
X156177000Y-65297000D01*
X156177000Y-66837502D01*
X156344001Y-66964408D01*
X156547197Y-66892702D01*
X156727408Y-66777014D01*
X156881587Y-66628391D01*
X157003809Y-66452545D01*
X157089376Y-66256233D01*
X157135000Y-66047000D01*
X157135000Y-65297000D01*
X156177000Y-65297000D01*
X155923000Y-65297000D01*
X155376608Y-65297000D01*
X155370520Y-65290912D01*
X155568767Y-65274216D01*
X155644589Y-65095616D01*
X155655536Y-65043000D01*
X155923000Y-65043000D01*
X155923000Y-63502498D01*
X156177000Y-63502498D01*
X156177000Y-65043000D01*
X157135000Y-65043000D01*
X157135000Y-64293000D01*
X157089376Y-64083767D01*
X157003809Y-63887455D01*
X156881587Y-63711609D01*
X156727408Y-63562986D01*
X156547197Y-63447298D01*
X156344001Y-63375592D01*
X156177000Y-63502498D01*
X155923000Y-63502498D01*
X155755999Y-63375592D01*
X155552803Y-63447298D01*
X155372592Y-63562986D01*
X155218413Y-63711609D01*
X155096191Y-63887455D01*
X155092272Y-63896445D01*
X154995616Y-63855411D01*
X154805656Y-63815890D01*
X154611636Y-63814187D01*
X154421011Y-63850368D01*
X154274349Y-63909615D01*
X154137314Y-63852853D01*
X153947014Y-63815000D01*
X153752986Y-63815000D01*
X153562686Y-63852853D01*
X153425000Y-63909884D01*
X153287314Y-63852853D01*
X153097014Y-63815000D01*
X152902986Y-63815000D01*
X152712686Y-63852853D01*
X152575000Y-63909884D01*
X152437314Y-63852853D01*
X152247014Y-63815000D01*
X152052986Y-63815000D01*
X151862686Y-63852853D01*
X151725000Y-63909884D01*
X151587314Y-63852853D01*
X151397014Y-63815000D01*
X151202986Y-63815000D01*
X151012686Y-63852853D01*
X150875000Y-63909884D01*
X150737314Y-63852853D01*
X150547014Y-63815000D01*
X150352986Y-63815000D01*
X150162686Y-63852853D01*
X150025000Y-63909884D01*
X149887314Y-63852853D01*
X149697014Y-63815000D01*
X149502986Y-63815000D01*
X149312686Y-63852853D01*
X149174458Y-63910109D01*
X149045616Y-63855411D01*
X148855656Y-63815890D01*
X148661636Y-63814187D01*
X148471011Y-63850368D01*
X148357611Y-63896178D01*
X148353809Y-63887455D01*
X148231587Y-63711609D01*
X148077408Y-63562986D01*
X147897197Y-63447298D01*
X147694001Y-63375592D01*
X147527000Y-63502498D01*
X147273000Y-63502498D01*
X147105999Y-63375592D01*
X146902803Y-63447298D01*
X146722592Y-63562986D01*
X146568413Y-63711609D01*
X146446191Y-63887455D01*
X146360624Y-64083767D01*
X146315000Y-64293000D01*
X139151049Y-64293000D01*
X139277873Y-63986822D01*
X139378900Y-63478924D01*
X139378900Y-62961076D01*
X139277873Y-62453178D01*
X139079701Y-61974749D01*
X139041115Y-61917000D01*
X146315000Y-61917000D01*
X146315000Y-62317000D01*
X146360624Y-62526233D01*
X146446191Y-62722545D01*
X146568413Y-62898391D01*
X146722592Y-63047014D01*
X146902803Y-63162702D01*
X147105999Y-63234408D01*
X147273000Y-63107502D01*
X147273000Y-61917000D01*
X147527000Y-61917000D01*
X147527000Y-63107502D01*
X147694001Y-63234408D01*
X147897197Y-63162702D01*
X148077408Y-63047014D01*
X148231587Y-62898391D01*
X148353809Y-62722545D01*
X148439376Y-62526233D01*
X148485000Y-62317000D01*
X148485000Y-61917000D01*
X154965000Y-61917000D01*
X154965000Y-62317000D01*
X155010624Y-62526233D01*
X155096191Y-62722545D01*
X155218413Y-62898391D01*
X155372592Y-63047014D01*
X155552803Y-63162702D01*
X155755999Y-63234408D01*
X155923000Y-63107502D01*
X155923000Y-61917000D01*
X156177000Y-61917000D01*
X156177000Y-63107502D01*
X156344001Y-63234408D01*
X156547197Y-63162702D01*
X156727408Y-63047014D01*
X156881587Y-62898391D01*
X157003809Y-62722545D01*
X157089376Y-62526233D01*
X157135000Y-62317000D01*
X157135000Y-61917000D01*
X156177000Y-61917000D01*
X155923000Y-61917000D01*
X154965000Y-61917000D01*
X148485000Y-61917000D01*
X147527000Y-61917000D01*
X147273000Y-61917000D01*
X146315000Y-61917000D01*
X139041115Y-61917000D01*
X138792000Y-61544174D01*
X138425826Y-61178000D01*
X137995251Y-60890299D01*
X137516822Y-60692127D01*
X137355308Y-60660000D01*
X146590830Y-60660000D01*
X146568413Y-60681609D01*
X146446191Y-60857455D01*
X146360624Y-61053767D01*
X146315000Y-61263000D01*
X146315000Y-61663000D01*
X147273000Y-61663000D01*
X147273000Y-61643000D01*
X147527000Y-61643000D01*
X147527000Y-61663000D01*
X148485000Y-61663000D01*
X148485000Y-61263000D01*
X148439376Y-61053767D01*
X148353809Y-60857455D01*
X148231587Y-60681609D01*
X148209170Y-60660000D01*
X155240830Y-60660000D01*
X155218413Y-60681609D01*
X155096191Y-60857455D01*
X155010624Y-61053767D01*
X154965000Y-61263000D01*
X154965000Y-61663000D01*
X155923000Y-61663000D01*
X155923000Y-61643000D01*
X156177000Y-61643000D01*
X156177000Y-61663000D01*
X157135000Y-61663000D01*
X157135000Y-61263000D01*
X157089376Y-61053767D01*
X157003809Y-60857455D01*
X156881587Y-60681609D01*
X156859170Y-60660000D01*
X164467723Y-60660000D01*
X164662540Y-60679102D01*
X164818894Y-60726308D01*
X164963096Y-60802982D01*
X165089663Y-60906207D01*
X165193769Y-61032051D01*
X165271447Y-61175711D01*
X165319742Y-61331729D01*
X165340000Y-61524473D01*
X165340000Y-77119990D01*
X165294180Y-77095498D01*
X165174482Y-77059188D01*
X165050000Y-77046928D01*
X163350000Y-77046928D01*
X163225518Y-77059188D01*
X163105820Y-77095498D01*
X162995506Y-77154463D01*
X162898815Y-77233815D01*
X162819463Y-77330506D01*
X162760498Y-77440820D01*
X162724188Y-77560518D01*
X162711928Y-77685000D01*
X162711928Y-79385000D01*
X162724188Y-79509482D01*
X162760498Y-79629180D01*
X162819463Y-79739494D01*
X162898815Y-79836185D01*
X162995506Y-79915537D01*
X163105820Y-79974502D01*
X163178380Y-79996513D01*
X163046525Y-80128368D01*
X162884010Y-80371589D01*
X162772068Y-80641842D01*
X162715000Y-80928740D01*
X162715000Y-81221260D01*
X162772068Y-81508158D01*
X162884010Y-81778411D01*
X163046525Y-82021632D01*
X163253368Y-82228475D01*
X163435534Y-82350195D01*
X163318645Y-82419822D01*
X163102412Y-82614731D01*
X162928359Y-82848080D01*
X162803175Y-83110901D01*
X162758524Y-83258110D01*
X162879845Y-83488000D01*
X164073000Y-83488000D01*
X164073000Y-83468000D01*
X164327000Y-83468000D01*
X164327000Y-83488000D01*
X164347000Y-83488000D01*
X164347000Y-83742000D01*
X164327000Y-83742000D01*
X164327000Y-83762000D01*
X164073000Y-83762000D01*
X164073000Y-83742000D01*
X162879845Y-83742000D01*
X162758524Y-83971890D01*
X162803175Y-84119099D01*
X162928359Y-84381920D01*
X163102412Y-84615269D01*
X163318645Y-84810178D01*
X163435534Y-84879805D01*
X163253368Y-85001525D01*
X163046525Y-85208368D01*
X162884010Y-85451589D01*
X162772068Y-85721842D01*
X162715000Y-86008740D01*
X162715000Y-86301260D01*
X162772068Y-86588158D01*
X162884010Y-86858411D01*
X163046525Y-87101632D01*
X163253368Y-87308475D01*
X163427760Y-87425000D01*
X163253368Y-87541525D01*
X163046525Y-87748368D01*
X162884010Y-87991589D01*
X162772068Y-88261842D01*
X162715000Y-88548740D01*
X162715000Y-88841260D01*
X162772068Y-89128158D01*
X162884010Y-89398411D01*
X163046525Y-89641632D01*
X163253368Y-89848475D01*
X163435534Y-89970195D01*
X163318645Y-90039822D01*
X163102412Y-90234731D01*
X162928359Y-90468080D01*
X162803175Y-90730901D01*
X162758524Y-90878110D01*
X162879845Y-91108000D01*
X164073000Y-91108000D01*
X164073000Y-91088000D01*
X164327000Y-91088000D01*
X164327000Y-91108000D01*
X164347000Y-91108000D01*
X164347000Y-91362000D01*
X164327000Y-91362000D01*
X164327000Y-91382000D01*
X164073000Y-91382000D01*
X164073000Y-91362000D01*
X162879845Y-91362000D01*
X162758524Y-91591890D01*
X162803175Y-91739099D01*
X162928359Y-92001920D01*
X163102412Y-92235269D01*
X163318645Y-92430178D01*
X163435534Y-92499805D01*
X163253368Y-92621525D01*
X163046525Y-92828368D01*
X162884010Y-93071589D01*
X162772068Y-93341842D01*
X162715000Y-93628740D01*
X162715000Y-93921260D01*
X162772068Y-94208158D01*
X162884010Y-94478411D01*
X163046525Y-94721632D01*
X163253368Y-94928475D01*
X163427760Y-95045000D01*
X163253368Y-95161525D01*
X163046525Y-95368368D01*
X162884010Y-95611589D01*
X162772068Y-95881842D01*
X162715000Y-96168740D01*
X162715000Y-96461260D01*
X162772068Y-96748158D01*
X162884010Y-97018411D01*
X163046525Y-97261632D01*
X163253368Y-97468475D01*
X163435534Y-97590195D01*
X163318645Y-97659822D01*
X163102412Y-97854731D01*
X162928359Y-98088080D01*
X162803175Y-98350901D01*
X162758524Y-98498110D01*
X162879845Y-98728000D01*
X164073000Y-98728000D01*
X164073000Y-98708000D01*
X164327000Y-98708000D01*
X164327000Y-98728000D01*
X164347000Y-98728000D01*
X164347000Y-98982000D01*
X164327000Y-98982000D01*
X164327000Y-99002000D01*
X164073000Y-99002000D01*
X164073000Y-98982000D01*
X162879845Y-98982000D01*
X162758524Y-99211890D01*
X162803175Y-99359099D01*
X162928359Y-99621920D01*
X163102412Y-99855269D01*
X163318645Y-100050178D01*
X163435534Y-100119805D01*
X163253368Y-100241525D01*
X163046525Y-100448368D01*
X162884010Y-100691589D01*
X162772068Y-100961842D01*
X162715000Y-101248740D01*
X162715000Y-101541260D01*
X162772068Y-101828158D01*
X162884010Y-102098411D01*
X163046525Y-102341632D01*
X163253368Y-102548475D01*
X163427760Y-102665000D01*
X163253368Y-102781525D01*
X163046525Y-102988368D01*
X162884010Y-103231589D01*
X162772068Y-103501842D01*
X162715000Y-103788740D01*
X162715000Y-104081260D01*
X162772068Y-104368158D01*
X162884010Y-104638411D01*
X163046525Y-104881632D01*
X163253368Y-105088475D01*
X163435534Y-105210195D01*
X163318645Y-105279822D01*
X163102412Y-105474731D01*
X162928359Y-105708080D01*
X162803175Y-105970901D01*
X162758524Y-106118110D01*
X162879845Y-106348000D01*
X164073000Y-106348000D01*
X164073000Y-106328000D01*
X164327000Y-106328000D01*
X164327000Y-106348000D01*
X164347000Y-106348000D01*
X164347000Y-106602000D01*
X164327000Y-106602000D01*
X164327000Y-107795814D01*
X164556891Y-107916481D01*
X164831252Y-107819157D01*
X165081355Y-107670178D01*
X165297588Y-107475269D01*
X165340001Y-107418407D01*
X165340001Y-119322492D01*
X165058686Y-119120919D01*
X162679605Y-121500000D01*
X165058686Y-123879081D01*
X165340001Y-123677508D01*
X165340001Y-143467712D01*
X165320898Y-143662540D01*
X165273692Y-143818895D01*
X165197018Y-143963096D01*
X165093792Y-144089664D01*
X164967951Y-144193768D01*
X164824289Y-144271447D01*
X164668271Y-144319742D01*
X164475527Y-144340000D01*
X111532277Y-144340000D01*
X111337460Y-144320898D01*
X111181105Y-144273692D01*
X111036904Y-144197018D01*
X110910336Y-144093792D01*
X110806232Y-143967951D01*
X110728553Y-143824289D01*
X110680258Y-143668271D01*
X110660000Y-143475527D01*
X110660000Y-142308061D01*
X120385000Y-142308061D01*
X120385000Y-142511939D01*
X120424774Y-142711898D01*
X120502795Y-142900256D01*
X120616063Y-143069774D01*
X120760226Y-143213937D01*
X120929744Y-143327205D01*
X121118102Y-143405226D01*
X121318061Y-143445000D01*
X121521939Y-143445000D01*
X121721898Y-143405226D01*
X121910256Y-143327205D01*
X121920000Y-143320694D01*
X121929744Y-143327205D01*
X122118102Y-143405226D01*
X122318061Y-143445000D01*
X122521939Y-143445000D01*
X122721898Y-143405226D01*
X122910256Y-143327205D01*
X122920000Y-143320694D01*
X122929744Y-143327205D01*
X123118102Y-143405226D01*
X123318061Y-143445000D01*
X123521939Y-143445000D01*
X123721898Y-143405226D01*
X123910256Y-143327205D01*
X123920000Y-143320694D01*
X123929744Y-143327205D01*
X124118102Y-143405226D01*
X124318061Y-143445000D01*
X124521939Y-143445000D01*
X124721898Y-143405226D01*
X124910256Y-143327205D01*
X124920000Y-143320694D01*
X124929744Y-143327205D01*
X125118102Y-143405226D01*
X125318061Y-143445000D01*
X125521939Y-143445000D01*
X125721898Y-143405226D01*
X125910256Y-143327205D01*
X125920000Y-143320694D01*
X125929744Y-143327205D01*
X126118102Y-143405226D01*
X126318061Y-143445000D01*
X126521939Y-143445000D01*
X126721898Y-143405226D01*
X126910256Y-143327205D01*
X126920000Y-143320694D01*
X126929744Y-143327205D01*
X127118102Y-143405226D01*
X127318061Y-143445000D01*
X127521939Y-143445000D01*
X127721898Y-143405226D01*
X127910256Y-143327205D01*
X127920000Y-143320694D01*
X127929744Y-143327205D01*
X128118102Y-143405226D01*
X128318061Y-143445000D01*
X128521939Y-143445000D01*
X128721898Y-143405226D01*
X128910256Y-143327205D01*
X129079774Y-143213937D01*
X129223937Y-143069774D01*
X129337205Y-142900256D01*
X129415226Y-142711898D01*
X129455000Y-142511939D01*
X129455000Y-142318061D01*
X154755000Y-142318061D01*
X154755000Y-142521939D01*
X154794774Y-142721898D01*
X154872795Y-142910256D01*
X154986063Y-143079774D01*
X155130226Y-143223937D01*
X155299744Y-143337205D01*
X155488102Y-143415226D01*
X155688061Y-143455000D01*
X155891939Y-143455000D01*
X156091898Y-143415226D01*
X156280256Y-143337205D01*
X156290000Y-143330694D01*
X156299744Y-143337205D01*
X156488102Y-143415226D01*
X156688061Y-143455000D01*
X156891939Y-143455000D01*
X157091898Y-143415226D01*
X157280256Y-143337205D01*
X157290000Y-143330694D01*
X157299744Y-143337205D01*
X157488102Y-143415226D01*
X157688061Y-143455000D01*
X157891939Y-143455000D01*
X158091898Y-143415226D01*
X158280256Y-143337205D01*
X158290000Y-143330694D01*
X158299744Y-143337205D01*
X158488102Y-143415226D01*
X158688061Y-143455000D01*
X158891939Y-143455000D01*
X159091898Y-143415226D01*
X159280256Y-143337205D01*
X159449774Y-143223937D01*
X159593937Y-143079774D01*
X159707205Y-142910256D01*
X159785226Y-142721898D01*
X159825000Y-142521939D01*
X159825000Y-142318061D01*
X159785226Y-142118102D01*
X159707205Y-141929744D01*
X159593937Y-141760226D01*
X159449774Y-141616063D01*
X159280256Y-141502795D01*
X159091898Y-141424774D01*
X158891939Y-141385000D01*
X158688061Y-141385000D01*
X158488102Y-141424774D01*
X158299744Y-141502795D01*
X158290000Y-141509306D01*
X158280256Y-141502795D01*
X158091898Y-141424774D01*
X157891939Y-141385000D01*
X157688061Y-141385000D01*
X157488102Y-141424774D01*
X157299744Y-141502795D01*
X157290000Y-141509306D01*
X157280256Y-141502795D01*
X157091898Y-141424774D01*
X156891939Y-141385000D01*
X156688061Y-141385000D01*
X156488102Y-141424774D01*
X156299744Y-141502795D01*
X156290000Y-141509306D01*
X156280256Y-141502795D01*
X156091898Y-141424774D01*
X155891939Y-141385000D01*
X155688061Y-141385000D01*
X155488102Y-141424774D01*
X155299744Y-141502795D01*
X155130226Y-141616063D01*
X154986063Y-141760226D01*
X154872795Y-141929744D01*
X154794774Y-142118102D01*
X154755000Y-142318061D01*
X129455000Y-142318061D01*
X129455000Y-142308061D01*
X129415226Y-142108102D01*
X129337205Y-141919744D01*
X129223937Y-141750226D01*
X129079774Y-141606063D01*
X128910256Y-141492795D01*
X128721898Y-141414774D01*
X128521939Y-141375000D01*
X128318061Y-141375000D01*
X128118102Y-141414774D01*
X127929744Y-141492795D01*
X127920000Y-141499306D01*
X127910256Y-141492795D01*
X127721898Y-141414774D01*
X127521939Y-141375000D01*
X127318061Y-141375000D01*
X127118102Y-141414774D01*
X126929744Y-141492795D01*
X126920000Y-141499306D01*
X126910256Y-141492795D01*
X126721898Y-141414774D01*
X126521939Y-141375000D01*
X126318061Y-141375000D01*
X126118102Y-141414774D01*
X125929744Y-141492795D01*
X125920000Y-141499306D01*
X125910256Y-141492795D01*
X125721898Y-141414774D01*
X125521939Y-141375000D01*
X125318061Y-141375000D01*
X125118102Y-141414774D01*
X124929744Y-141492795D01*
X124920000Y-141499306D01*
X124910256Y-141492795D01*
X124721898Y-141414774D01*
X124521939Y-141375000D01*
X124318061Y-141375000D01*
X124118102Y-141414774D01*
X123929744Y-141492795D01*
X123920000Y-141499306D01*
X123910256Y-141492795D01*
X123721898Y-141414774D01*
X123521939Y-141375000D01*
X123318061Y-141375000D01*
X123118102Y-141414774D01*
X122929744Y-141492795D01*
X122920000Y-141499306D01*
X122910256Y-141492795D01*
X122721898Y-141414774D01*
X122521939Y-141375000D01*
X122318061Y-141375000D01*
X122118102Y-141414774D01*
X121929744Y-141492795D01*
X121920000Y-141499306D01*
X121910256Y-141492795D01*
X121721898Y-141414774D01*
X121521939Y-141375000D01*
X121318061Y-141375000D01*
X121118102Y-141414774D01*
X120929744Y-141492795D01*
X120760226Y-141606063D01*
X120616063Y-141750226D01*
X120502795Y-141919744D01*
X120424774Y-142108102D01*
X120385000Y-142308061D01*
X110660000Y-142308061D01*
X110660000Y-124058686D01*
X111120919Y-124058686D01*
X111457106Y-124527868D01*
X112087068Y-124868237D01*
X112771327Y-125079166D01*
X113483589Y-125152550D01*
X114196482Y-125085569D01*
X114882609Y-124880796D01*
X115515603Y-124546102D01*
X115542894Y-124527868D01*
X115879081Y-124058686D01*
X113500000Y-121679605D01*
X111120919Y-124058686D01*
X110660000Y-124058686D01*
X110660000Y-123677509D01*
X110941314Y-123879081D01*
X113320395Y-121500000D01*
X113679605Y-121500000D01*
X116058686Y-123879081D01*
X116527868Y-123542894D01*
X116868237Y-122912932D01*
X117079166Y-122228673D01*
X117152550Y-121516411D01*
X117085569Y-120803518D01*
X116880796Y-120117391D01*
X116546102Y-119484397D01*
X116527868Y-119457106D01*
X116058686Y-119120919D01*
X113679605Y-121500000D01*
X113320395Y-121500000D01*
X110941314Y-119120919D01*
X110660000Y-119322491D01*
X110660000Y-118941314D01*
X111120919Y-118941314D01*
X113500000Y-121320395D01*
X115879081Y-118941314D01*
X115542894Y-118472132D01*
X114912932Y-118131763D01*
X114228673Y-117920834D01*
X113516411Y-117847450D01*
X112803518Y-117914431D01*
X112117391Y-118119204D01*
X111484397Y-118453898D01*
X111457106Y-118472132D01*
X111120919Y-118941314D01*
X110660000Y-118941314D01*
X110660000Y-116133999D01*
X123981443Y-116133999D01*
X123985000Y-116170114D01*
X123984999Y-122375292D01*
X123981443Y-122411397D01*
X123995634Y-122555481D01*
X124037662Y-122694029D01*
X124105912Y-122821716D01*
X124197761Y-122933634D01*
X124225807Y-122956651D01*
X127213368Y-125944213D01*
X127236384Y-125972258D01*
X127348302Y-126064107D01*
X127475989Y-126132357D01*
X127614537Y-126174385D01*
X127758622Y-126188576D01*
X127794727Y-126185020D01*
X135869271Y-126185020D01*
X135905376Y-126188576D01*
X135941481Y-126185020D01*
X136049461Y-126174385D01*
X136188009Y-126132357D01*
X136315696Y-126064107D01*
X136427614Y-125972258D01*
X136450635Y-125944207D01*
X138336156Y-124058686D01*
X160120919Y-124058686D01*
X160457106Y-124527868D01*
X161087068Y-124868237D01*
X161771327Y-125079166D01*
X162483589Y-125152550D01*
X163196482Y-125085569D01*
X163882609Y-124880796D01*
X164515603Y-124546102D01*
X164542894Y-124527868D01*
X164879081Y-124058686D01*
X162500000Y-121679605D01*
X160120919Y-124058686D01*
X138336156Y-124058686D01*
X140911253Y-121483589D01*
X158847450Y-121483589D01*
X158914431Y-122196482D01*
X159119204Y-122882609D01*
X159453898Y-123515603D01*
X159472132Y-123542894D01*
X159941314Y-123879081D01*
X162320395Y-121500000D01*
X159941314Y-119120919D01*
X159472132Y-119457106D01*
X159131763Y-120087068D01*
X158920834Y-120771327D01*
X158847450Y-121483589D01*
X140911253Y-121483589D01*
X143453528Y-118941314D01*
X160120919Y-118941314D01*
X162500000Y-121320395D01*
X164879081Y-118941314D01*
X164542894Y-118472132D01*
X163912932Y-118131763D01*
X163228673Y-117920834D01*
X162516411Y-117847450D01*
X161803518Y-117914431D01*
X161117391Y-118119204D01*
X160484397Y-118453898D01*
X160457106Y-118472132D01*
X160120919Y-118941314D01*
X143453528Y-118941314D01*
X146016781Y-116378061D01*
X146535000Y-116378061D01*
X146535000Y-116581939D01*
X146574774Y-116781898D01*
X146652795Y-116970256D01*
X146766063Y-117139774D01*
X146910226Y-117283937D01*
X147079744Y-117397205D01*
X147268102Y-117475226D01*
X147468061Y-117515000D01*
X147671939Y-117515000D01*
X147871898Y-117475226D01*
X148060256Y-117397205D01*
X148070000Y-117390694D01*
X148079744Y-117397205D01*
X148268102Y-117475226D01*
X148468061Y-117515000D01*
X148671939Y-117515000D01*
X148871898Y-117475226D01*
X149060256Y-117397205D01*
X149070000Y-117390694D01*
X149079744Y-117397205D01*
X149268102Y-117475226D01*
X149468061Y-117515000D01*
X149671939Y-117515000D01*
X149871898Y-117475226D01*
X150060256Y-117397205D01*
X150070000Y-117390694D01*
X150079744Y-117397205D01*
X150268102Y-117475226D01*
X150468061Y-117515000D01*
X150671939Y-117515000D01*
X150871898Y-117475226D01*
X151060256Y-117397205D01*
X151229774Y-117283937D01*
X151373937Y-117139774D01*
X151487205Y-116970256D01*
X151565226Y-116781898D01*
X151605000Y-116581939D01*
X151605000Y-116378061D01*
X151565226Y-116178102D01*
X151487205Y-115989744D01*
X151373937Y-115820226D01*
X151229774Y-115676063D01*
X151060256Y-115562795D01*
X150871898Y-115484774D01*
X150671939Y-115445000D01*
X150468061Y-115445000D01*
X150268102Y-115484774D01*
X150079744Y-115562795D01*
X150070000Y-115569306D01*
X150060256Y-115562795D01*
X149871898Y-115484774D01*
X149671939Y-115445000D01*
X149468061Y-115445000D01*
X149268102Y-115484774D01*
X149079744Y-115562795D01*
X149070000Y-115569306D01*
X149060256Y-115562795D01*
X148871898Y-115484774D01*
X148671939Y-115445000D01*
X148468061Y-115445000D01*
X148268102Y-115484774D01*
X148079744Y-115562795D01*
X148070000Y-115569306D01*
X148060256Y-115562795D01*
X147871898Y-115484774D01*
X147671939Y-115445000D01*
X147468061Y-115445000D01*
X147268102Y-115484774D01*
X147079744Y-115562795D01*
X146910226Y-115676063D01*
X146766063Y-115820226D01*
X146652795Y-115989744D01*
X146574774Y-116178102D01*
X146535000Y-116378061D01*
X146016781Y-116378061D01*
X153009831Y-109385011D01*
X157175585Y-109385011D01*
X157211690Y-109388567D01*
X157247795Y-109385011D01*
X157355775Y-109374376D01*
X157494323Y-109332348D01*
X157622010Y-109264098D01*
X157733928Y-109172249D01*
X157756948Y-109144199D01*
X158624204Y-108276944D01*
X158652249Y-108253928D01*
X158744098Y-108142010D01*
X158812348Y-108014323D01*
X158854376Y-107875775D01*
X158865011Y-107767795D01*
X158868567Y-107731691D01*
X158865011Y-107695586D01*
X158865011Y-106831890D01*
X162758524Y-106831890D01*
X162803175Y-106979099D01*
X162928359Y-107241920D01*
X163102412Y-107475269D01*
X163318645Y-107670178D01*
X163568748Y-107819157D01*
X163843109Y-107916481D01*
X164073000Y-107795814D01*
X164073000Y-106602000D01*
X162879845Y-106602000D01*
X162758524Y-106831890D01*
X158865011Y-106831890D01*
X158865011Y-82510105D01*
X158868566Y-82474008D01*
X158865011Y-82437911D01*
X158865011Y-82437904D01*
X158854376Y-82329924D01*
X158812348Y-82191376D01*
X158744098Y-82063689D01*
X158685460Y-81992239D01*
X158675264Y-81979815D01*
X158675261Y-81979812D01*
X158652248Y-81951771D01*
X158624208Y-81928759D01*
X155271260Y-78575812D01*
X155248239Y-78547761D01*
X155136321Y-78455912D01*
X155008634Y-78387662D01*
X154870086Y-78345634D01*
X154762106Y-78334999D01*
X154726001Y-78331443D01*
X154689896Y-78334999D01*
X154090104Y-78334999D01*
X154053999Y-78331443D01*
X153909914Y-78345634D01*
X153771365Y-78387662D01*
X153643679Y-78455912D01*
X153531761Y-78547761D01*
X153508740Y-78575812D01*
X153195807Y-78888745D01*
X153167762Y-78911761D01*
X153075913Y-79023679D01*
X153029653Y-79110226D01*
X153007663Y-79151366D01*
X152965634Y-79289914D01*
X152951443Y-79433999D01*
X152955000Y-79470114D01*
X152954999Y-81033894D01*
X152951443Y-81069999D01*
X152963003Y-81187367D01*
X152965634Y-81214083D01*
X153007662Y-81352631D01*
X153075912Y-81480318D01*
X153167761Y-81592236D01*
X153195807Y-81615253D01*
X153355000Y-81774446D01*
X153355000Y-81871939D01*
X153394774Y-82071898D01*
X153472795Y-82260256D01*
X153479306Y-82270000D01*
X153472795Y-82279744D01*
X153394774Y-82468102D01*
X153355000Y-82668061D01*
X153355000Y-82871939D01*
X153394774Y-83071898D01*
X153472795Y-83260256D01*
X153479306Y-83270000D01*
X153472795Y-83279744D01*
X153394774Y-83468102D01*
X153355000Y-83668061D01*
X153355000Y-83735000D01*
X153288061Y-83735000D01*
X153088102Y-83774774D01*
X152899744Y-83852795D01*
X152890000Y-83859306D01*
X152880256Y-83852795D01*
X152691898Y-83774774D01*
X152491939Y-83735000D01*
X152288061Y-83735000D01*
X152088102Y-83774774D01*
X151899744Y-83852795D01*
X151730226Y-83966063D01*
X151586063Y-84110226D01*
X151472795Y-84279744D01*
X151430979Y-84380697D01*
X151403937Y-84340226D01*
X151259774Y-84196063D01*
X151090256Y-84082795D01*
X150901898Y-84004774D01*
X150701939Y-83965000D01*
X150498061Y-83965000D01*
X150298102Y-84004774D01*
X150109744Y-84082795D01*
X149940226Y-84196063D01*
X149796063Y-84340226D01*
X149682795Y-84509744D01*
X149604774Y-84698102D01*
X149565000Y-84898061D01*
X149565000Y-84995554D01*
X149405807Y-85154747D01*
X149394797Y-85163783D01*
X149425000Y-85011939D01*
X149425000Y-84808061D01*
X149385226Y-84608102D01*
X149307205Y-84419744D01*
X149300694Y-84410000D01*
X149307205Y-84400256D01*
X149385226Y-84211898D01*
X149425000Y-84011939D01*
X149425000Y-83808061D01*
X149385226Y-83608102D01*
X149307205Y-83419744D01*
X149193937Y-83250226D01*
X149049774Y-83106063D01*
X148880256Y-82992795D01*
X148691898Y-82914774D01*
X148491939Y-82875000D01*
X148288061Y-82875000D01*
X148088102Y-82914774D01*
X147899744Y-82992795D01*
X147730226Y-83106063D01*
X147586063Y-83250226D01*
X147472795Y-83419744D01*
X147394774Y-83608102D01*
X147355000Y-83808061D01*
X147355000Y-84011939D01*
X147394774Y-84211898D01*
X147472795Y-84400256D01*
X147479306Y-84410000D01*
X147472795Y-84419744D01*
X147394774Y-84608102D01*
X147355000Y-84808061D01*
X147355000Y-85011939D01*
X147394774Y-85211898D01*
X147472795Y-85400256D01*
X147586063Y-85569774D01*
X147730226Y-85713937D01*
X147899744Y-85827205D01*
X148088102Y-85905226D01*
X148288061Y-85945000D01*
X148491939Y-85945000D01*
X148691898Y-85905226D01*
X148880256Y-85827205D01*
X149049774Y-85713937D01*
X149172120Y-85591591D01*
X149161443Y-85700001D01*
X149164999Y-85736106D01*
X149164999Y-86712737D01*
X149090256Y-86662795D01*
X148901898Y-86584774D01*
X148701939Y-86545000D01*
X148498061Y-86545000D01*
X148298102Y-86584774D01*
X148109744Y-86662795D01*
X147940226Y-86776063D01*
X147796063Y-86920226D01*
X147682795Y-87089744D01*
X147604774Y-87278102D01*
X147565000Y-87478061D01*
X147565000Y-87681939D01*
X147604774Y-87881898D01*
X147682795Y-88070256D01*
X147796063Y-88239774D01*
X147940226Y-88383937D01*
X148109744Y-88497205D01*
X148298102Y-88575226D01*
X148498061Y-88615000D01*
X148701939Y-88615000D01*
X148901898Y-88575226D01*
X149090256Y-88497205D01*
X149165000Y-88447263D01*
X149165000Y-90398154D01*
X147255777Y-92307377D01*
X147227731Y-92330394D01*
X147135882Y-92442312D01*
X147067632Y-92569999D01*
X147052002Y-92621525D01*
X147025604Y-92708546D01*
X147011413Y-92852631D01*
X147014969Y-92888736D01*
X147014970Y-102464187D01*
X133744158Y-115735000D01*
X133148711Y-115735000D01*
X133079774Y-115666063D01*
X132910256Y-115552795D01*
X132721898Y-115474774D01*
X132521939Y-115435000D01*
X132318061Y-115435000D01*
X132118102Y-115474774D01*
X131929744Y-115552795D01*
X131920000Y-115559306D01*
X131910256Y-115552795D01*
X131721898Y-115474774D01*
X131521939Y-115435000D01*
X131318061Y-115435000D01*
X131118102Y-115474774D01*
X130929744Y-115552795D01*
X130920000Y-115559306D01*
X130910256Y-115552795D01*
X130721898Y-115474774D01*
X130521939Y-115435000D01*
X130318061Y-115435000D01*
X130118102Y-115474774D01*
X129929744Y-115552795D01*
X129920000Y-115559306D01*
X129910256Y-115552795D01*
X129721898Y-115474774D01*
X129521939Y-115435000D01*
X129318061Y-115435000D01*
X129118102Y-115474774D01*
X128929744Y-115552795D01*
X128920000Y-115559306D01*
X128910256Y-115552795D01*
X128721898Y-115474774D01*
X128521939Y-115435000D01*
X128318061Y-115435000D01*
X128118102Y-115474774D01*
X127929744Y-115552795D01*
X127920000Y-115559306D01*
X127910256Y-115552795D01*
X127721898Y-115474774D01*
X127521939Y-115435000D01*
X127318061Y-115435000D01*
X127118102Y-115474774D01*
X126929744Y-115552795D01*
X126920000Y-115559306D01*
X126910256Y-115552795D01*
X126721898Y-115474774D01*
X126521939Y-115435000D01*
X126424446Y-115435000D01*
X126265258Y-115275812D01*
X126242237Y-115247761D01*
X126130319Y-115155912D01*
X126002632Y-115087662D01*
X125864084Y-115045634D01*
X125756104Y-115034999D01*
X125719999Y-115031443D01*
X125683894Y-115034999D01*
X125120104Y-115034999D01*
X125083999Y-115031443D01*
X124939914Y-115045634D01*
X124801365Y-115087662D01*
X124737523Y-115121787D01*
X124673679Y-115155912D01*
X124561761Y-115247761D01*
X124538740Y-115275812D01*
X124225807Y-115588745D01*
X124197762Y-115611761D01*
X124105913Y-115723679D01*
X124071871Y-115787367D01*
X124037663Y-115851366D01*
X123995634Y-115989914D01*
X123981443Y-116133999D01*
X110660000Y-116133999D01*
X110660000Y-98910617D01*
X112057934Y-98910617D01*
X112102272Y-99239557D01*
X112209931Y-99553527D01*
X112309421Y-99739661D01*
X112407082Y-99776549D01*
X112345506Y-99809463D01*
X112248815Y-99888815D01*
X112169463Y-99985506D01*
X112110498Y-100095820D01*
X112074188Y-100215518D01*
X112061928Y-100340000D01*
X112061928Y-102440000D01*
X112074188Y-102564482D01*
X112110498Y-102684180D01*
X112169463Y-102794494D01*
X112248815Y-102891185D01*
X112345506Y-102970537D01*
X112455820Y-103029502D01*
X112575518Y-103065812D01*
X112700000Y-103078072D01*
X114800000Y-103078072D01*
X114924482Y-103065812D01*
X115044180Y-103029502D01*
X115154494Y-102970537D01*
X115251185Y-102891185D01*
X115330537Y-102794494D01*
X115371740Y-102717408D01*
X119973000Y-102717408D01*
X119973000Y-102992592D01*
X120026686Y-103262490D01*
X120131995Y-103516727D01*
X120284880Y-103745535D01*
X120479465Y-103940120D01*
X120708273Y-104093005D01*
X120962510Y-104198314D01*
X121232408Y-104252000D01*
X121507592Y-104252000D01*
X121777490Y-104198314D01*
X122031727Y-104093005D01*
X122260535Y-103940120D01*
X122455120Y-103745535D01*
X122608005Y-103516727D01*
X122713314Y-103262490D01*
X122767000Y-102992592D01*
X122767000Y-102717408D01*
X127593000Y-102717408D01*
X127593000Y-102992592D01*
X127646686Y-103262490D01*
X127751995Y-103516727D01*
X127904880Y-103745535D01*
X128099465Y-103940120D01*
X128328273Y-104093005D01*
X128582510Y-104198314D01*
X128852408Y-104252000D01*
X129127592Y-104252000D01*
X129397490Y-104198314D01*
X129651727Y-104093005D01*
X129880535Y-103940120D01*
X130075120Y-103745535D01*
X130228005Y-103516727D01*
X130333314Y-103262490D01*
X130387000Y-102992592D01*
X130387000Y-102717408D01*
X135213000Y-102717408D01*
X135213000Y-102992592D01*
X135266686Y-103262490D01*
X135371995Y-103516727D01*
X135524880Y-103745535D01*
X135719465Y-103940120D01*
X135948273Y-104093005D01*
X136202510Y-104198314D01*
X136472408Y-104252000D01*
X136747592Y-104252000D01*
X137017490Y-104198314D01*
X137271727Y-104093005D01*
X137500535Y-103940120D01*
X137695120Y-103745535D01*
X137848005Y-103516727D01*
X137880000Y-103439485D01*
X137911995Y-103516727D01*
X138064880Y-103745535D01*
X138259465Y-103940120D01*
X138488273Y-104093005D01*
X138742510Y-104198314D01*
X139012408Y-104252000D01*
X139287592Y-104252000D01*
X139557490Y-104198314D01*
X139811727Y-104093005D01*
X140040535Y-103940120D01*
X140235120Y-103745535D01*
X140388005Y-103516727D01*
X140493314Y-103262490D01*
X140547000Y-102992592D01*
X140547000Y-102717408D01*
X140493314Y-102447510D01*
X140388005Y-102193273D01*
X140235120Y-101964465D01*
X140040535Y-101769880D01*
X139811727Y-101616995D01*
X139557490Y-101511686D01*
X139287592Y-101458000D01*
X139012408Y-101458000D01*
X138742510Y-101511686D01*
X138488273Y-101616995D01*
X138259465Y-101769880D01*
X138064880Y-101964465D01*
X137911995Y-102193273D01*
X137880000Y-102270515D01*
X137848005Y-102193273D01*
X137695120Y-101964465D01*
X137500535Y-101769880D01*
X137271727Y-101616995D01*
X137017490Y-101511686D01*
X136747592Y-101458000D01*
X136472408Y-101458000D01*
X136202510Y-101511686D01*
X135948273Y-101616995D01*
X135719465Y-101769880D01*
X135524880Y-101964465D01*
X135371995Y-102193273D01*
X135266686Y-102447510D01*
X135213000Y-102717408D01*
X130387000Y-102717408D01*
X130333314Y-102447510D01*
X130228005Y-102193273D01*
X130075120Y-101964465D01*
X129880535Y-101769880D01*
X129651727Y-101616995D01*
X129397490Y-101511686D01*
X129127592Y-101458000D01*
X128852408Y-101458000D01*
X128582510Y-101511686D01*
X128328273Y-101616995D01*
X128099465Y-101769880D01*
X127904880Y-101964465D01*
X127751995Y-102193273D01*
X127646686Y-102447510D01*
X127593000Y-102717408D01*
X122767000Y-102717408D01*
X122713314Y-102447510D01*
X122608005Y-102193273D01*
X122455120Y-101964465D01*
X122260535Y-101769880D01*
X122031727Y-101616995D01*
X121777490Y-101511686D01*
X121507592Y-101458000D01*
X121232408Y-101458000D01*
X120962510Y-101511686D01*
X120708273Y-101616995D01*
X120479465Y-101769880D01*
X120284880Y-101964465D01*
X120131995Y-102193273D01*
X120026686Y-102447510D01*
X119973000Y-102717408D01*
X115371740Y-102717408D01*
X115389502Y-102684180D01*
X115425812Y-102564482D01*
X115438072Y-102440000D01*
X115438072Y-100340000D01*
X115425812Y-100215518D01*
X115389502Y-100095820D01*
X115330537Y-99985506D01*
X115251185Y-99888815D01*
X115154494Y-99809463D01*
X115092918Y-99776549D01*
X115190579Y-99739661D01*
X115336463Y-99441523D01*
X115421380Y-99120654D01*
X115442066Y-98789383D01*
X115397728Y-98460443D01*
X115290069Y-98146473D01*
X115190579Y-97960339D01*
X114921066Y-97858539D01*
X113929605Y-98850000D01*
X113943748Y-98864143D01*
X113764143Y-99043748D01*
X113750000Y-99029605D01*
X113735858Y-99043748D01*
X113556253Y-98864143D01*
X113570395Y-98850000D01*
X112578934Y-97858539D01*
X112309421Y-97960339D01*
X112163537Y-98258477D01*
X112078620Y-98579346D01*
X112057934Y-98910617D01*
X110660000Y-98910617D01*
X110660000Y-96144042D01*
X112065000Y-96144042D01*
X112065000Y-96475958D01*
X112129754Y-96801496D01*
X112256772Y-97108147D01*
X112441175Y-97384125D01*
X112675875Y-97618825D01*
X112760009Y-97675042D01*
X112758539Y-97678934D01*
X113750000Y-98670395D01*
X114741461Y-97678934D01*
X114739991Y-97675042D01*
X114824125Y-97618825D01*
X115058825Y-97384125D01*
X115243228Y-97108147D01*
X115370246Y-96801496D01*
X115397912Y-96662408D01*
X119973000Y-96662408D01*
X119973000Y-96937592D01*
X120026686Y-97207490D01*
X120131995Y-97461727D01*
X120284880Y-97690535D01*
X120479465Y-97885120D01*
X120708273Y-98038005D01*
X120962510Y-98143314D01*
X121232408Y-98197000D01*
X121507592Y-98197000D01*
X121777490Y-98143314D01*
X122031727Y-98038005D01*
X122260535Y-97885120D01*
X122455120Y-97690535D01*
X122608005Y-97461727D01*
X122713314Y-97207490D01*
X122767000Y-96937592D01*
X122767000Y-96662408D01*
X127593000Y-96662408D01*
X127593000Y-96937592D01*
X127646686Y-97207490D01*
X127751995Y-97461727D01*
X127904880Y-97690535D01*
X128099465Y-97885120D01*
X128328273Y-98038005D01*
X128582510Y-98143314D01*
X128852408Y-98197000D01*
X129127592Y-98197000D01*
X129397490Y-98143314D01*
X129651727Y-98038005D01*
X129880535Y-97885120D01*
X130075120Y-97690535D01*
X130228005Y-97461727D01*
X130333314Y-97207490D01*
X130387000Y-96937592D01*
X130387000Y-96662408D01*
X135213000Y-96662408D01*
X135213000Y-96937592D01*
X135266686Y-97207490D01*
X135371995Y-97461727D01*
X135524880Y-97690535D01*
X135719465Y-97885120D01*
X135948273Y-98038005D01*
X136202510Y-98143314D01*
X136472408Y-98197000D01*
X136747592Y-98197000D01*
X137017490Y-98143314D01*
X137271727Y-98038005D01*
X137500535Y-97885120D01*
X137695120Y-97690535D01*
X137848005Y-97461727D01*
X137880000Y-97384485D01*
X137911995Y-97461727D01*
X138064880Y-97690535D01*
X138259465Y-97885120D01*
X138488273Y-98038005D01*
X138742510Y-98143314D01*
X139012408Y-98197000D01*
X139287592Y-98197000D01*
X139557490Y-98143314D01*
X139811727Y-98038005D01*
X140040535Y-97885120D01*
X140235120Y-97690535D01*
X140388005Y-97461727D01*
X140493314Y-97207490D01*
X140547000Y-96937592D01*
X140547000Y-96662408D01*
X140493314Y-96392510D01*
X140388005Y-96138273D01*
X140235120Y-95909465D01*
X140040535Y-95714880D01*
X139811727Y-95561995D01*
X139557490Y-95456686D01*
X139287592Y-95403000D01*
X139012408Y-95403000D01*
X138742510Y-95456686D01*
X138488273Y-95561995D01*
X138259465Y-95714880D01*
X138064880Y-95909465D01*
X137911995Y-96138273D01*
X137880000Y-96215515D01*
X137848005Y-96138273D01*
X137695120Y-95909465D01*
X137500535Y-95714880D01*
X137271727Y-95561995D01*
X137017490Y-95456686D01*
X136747592Y-95403000D01*
X136472408Y-95403000D01*
X136202510Y-95456686D01*
X135948273Y-95561995D01*
X135719465Y-95714880D01*
X135524880Y-95909465D01*
X135371995Y-96138273D01*
X135266686Y-96392510D01*
X135213000Y-96662408D01*
X130387000Y-96662408D01*
X130333314Y-96392510D01*
X130228005Y-96138273D01*
X130075120Y-95909465D01*
X129880535Y-95714880D01*
X129651727Y-95561995D01*
X129397490Y-95456686D01*
X129127592Y-95403000D01*
X128852408Y-95403000D01*
X128582510Y-95456686D01*
X128328273Y-95561995D01*
X128099465Y-95714880D01*
X127904880Y-95909465D01*
X127751995Y-96138273D01*
X127646686Y-96392510D01*
X127593000Y-96662408D01*
X122767000Y-96662408D01*
X122713314Y-96392510D01*
X122608005Y-96138273D01*
X122455120Y-95909465D01*
X122260535Y-95714880D01*
X122031727Y-95561995D01*
X121777490Y-95456686D01*
X121507592Y-95403000D01*
X121232408Y-95403000D01*
X120962510Y-95456686D01*
X120708273Y-95561995D01*
X120479465Y-95714880D01*
X120284880Y-95909465D01*
X120131995Y-96138273D01*
X120026686Y-96392510D01*
X119973000Y-96662408D01*
X115397912Y-96662408D01*
X115435000Y-96475958D01*
X115435000Y-96144042D01*
X115370246Y-95818504D01*
X115243228Y-95511853D01*
X115058825Y-95235875D01*
X114824125Y-95001175D01*
X114739991Y-94944958D01*
X114741461Y-94941066D01*
X113750000Y-93949605D01*
X112758539Y-94941066D01*
X112760009Y-94944958D01*
X112675875Y-95001175D01*
X112441175Y-95235875D01*
X112256772Y-95511853D01*
X112129754Y-95818504D01*
X112065000Y-96144042D01*
X110660000Y-96144042D01*
X110660000Y-93830617D01*
X112057934Y-93830617D01*
X112102272Y-94159557D01*
X112209931Y-94473527D01*
X112309421Y-94659661D01*
X112578934Y-94761461D01*
X113570395Y-93770000D01*
X113929605Y-93770000D01*
X114921066Y-94761461D01*
X115190579Y-94659661D01*
X115336463Y-94361523D01*
X115421380Y-94040654D01*
X115442066Y-93709383D01*
X115397728Y-93380443D01*
X115290069Y-93066473D01*
X115190579Y-92880339D01*
X114921066Y-92778539D01*
X113929605Y-93770000D01*
X113570395Y-93770000D01*
X112578934Y-92778539D01*
X112309421Y-92880339D01*
X112163537Y-93178477D01*
X112078620Y-93499346D01*
X112057934Y-93830617D01*
X110660000Y-93830617D01*
X110660000Y-91064042D01*
X112065000Y-91064042D01*
X112065000Y-91395958D01*
X112129754Y-91721496D01*
X112256772Y-92028147D01*
X112441175Y-92304125D01*
X112675875Y-92538825D01*
X112760009Y-92595042D01*
X112758539Y-92598934D01*
X113750000Y-93590395D01*
X114741461Y-92598934D01*
X114739991Y-92595042D01*
X114824125Y-92538825D01*
X115058825Y-92304125D01*
X115243228Y-92028147D01*
X115370246Y-91721496D01*
X115435000Y-91395958D01*
X115435000Y-91064042D01*
X115370246Y-90738504D01*
X115318016Y-90612408D01*
X119973000Y-90612408D01*
X119973000Y-90887592D01*
X120026686Y-91157490D01*
X120131995Y-91411727D01*
X120284880Y-91640535D01*
X120479465Y-91835120D01*
X120708273Y-91988005D01*
X120962510Y-92093314D01*
X121232408Y-92147000D01*
X121507592Y-92147000D01*
X121777490Y-92093314D01*
X122031727Y-91988005D01*
X122260535Y-91835120D01*
X122455120Y-91640535D01*
X122608005Y-91411727D01*
X122713314Y-91157490D01*
X122767000Y-90887592D01*
X122767000Y-90612408D01*
X127593000Y-90612408D01*
X127593000Y-90887592D01*
X127646686Y-91157490D01*
X127751995Y-91411727D01*
X127904880Y-91640535D01*
X128099465Y-91835120D01*
X128328273Y-91988005D01*
X128582510Y-92093314D01*
X128852408Y-92147000D01*
X129127592Y-92147000D01*
X129397490Y-92093314D01*
X129651727Y-91988005D01*
X129880535Y-91835120D01*
X130075120Y-91640535D01*
X130228005Y-91411727D01*
X130333314Y-91157490D01*
X130387000Y-90887592D01*
X130387000Y-90612408D01*
X135213000Y-90612408D01*
X135213000Y-90887592D01*
X135266686Y-91157490D01*
X135371995Y-91411727D01*
X135524880Y-91640535D01*
X135719465Y-91835120D01*
X135948273Y-91988005D01*
X136202510Y-92093314D01*
X136472408Y-92147000D01*
X136747592Y-92147000D01*
X137017490Y-92093314D01*
X137271727Y-91988005D01*
X137500535Y-91835120D01*
X137695120Y-91640535D01*
X137848005Y-91411727D01*
X137880000Y-91334485D01*
X137911995Y-91411727D01*
X138064880Y-91640535D01*
X138259465Y-91835120D01*
X138488273Y-91988005D01*
X138742510Y-92093314D01*
X139012408Y-92147000D01*
X139287592Y-92147000D01*
X139557490Y-92093314D01*
X139811727Y-91988005D01*
X140040535Y-91835120D01*
X140235120Y-91640535D01*
X140388005Y-91411727D01*
X140493314Y-91157490D01*
X140547000Y-90887592D01*
X140547000Y-90612408D01*
X140493314Y-90342510D01*
X140388005Y-90088273D01*
X140235120Y-89859465D01*
X140040535Y-89664880D01*
X139811727Y-89511995D01*
X139557490Y-89406686D01*
X139287592Y-89353000D01*
X139012408Y-89353000D01*
X138742510Y-89406686D01*
X138488273Y-89511995D01*
X138259465Y-89664880D01*
X138064880Y-89859465D01*
X137911995Y-90088273D01*
X137880000Y-90165515D01*
X137848005Y-90088273D01*
X137695120Y-89859465D01*
X137500535Y-89664880D01*
X137271727Y-89511995D01*
X137017490Y-89406686D01*
X136747592Y-89353000D01*
X136472408Y-89353000D01*
X136202510Y-89406686D01*
X135948273Y-89511995D01*
X135719465Y-89664880D01*
X135524880Y-89859465D01*
X135371995Y-90088273D01*
X135266686Y-90342510D01*
X135213000Y-90612408D01*
X130387000Y-90612408D01*
X130333314Y-90342510D01*
X130228005Y-90088273D01*
X130075120Y-89859465D01*
X129880535Y-89664880D01*
X129651727Y-89511995D01*
X129397490Y-89406686D01*
X129127592Y-89353000D01*
X128852408Y-89353000D01*
X128582510Y-89406686D01*
X128328273Y-89511995D01*
X128099465Y-89664880D01*
X127904880Y-89859465D01*
X127751995Y-90088273D01*
X127646686Y-90342510D01*
X127593000Y-90612408D01*
X122767000Y-90612408D01*
X122713314Y-90342510D01*
X122608005Y-90088273D01*
X122455120Y-89859465D01*
X122260535Y-89664880D01*
X122031727Y-89511995D01*
X121777490Y-89406686D01*
X121507592Y-89353000D01*
X121232408Y-89353000D01*
X120962510Y-89406686D01*
X120708273Y-89511995D01*
X120479465Y-89664880D01*
X120284880Y-89859465D01*
X120131995Y-90088273D01*
X120026686Y-90342510D01*
X119973000Y-90612408D01*
X115318016Y-90612408D01*
X115243228Y-90431853D01*
X115058825Y-90155875D01*
X114824125Y-89921175D01*
X114739991Y-89864958D01*
X114741461Y-89861066D01*
X113750000Y-88869605D01*
X112758539Y-89861066D01*
X112760009Y-89864958D01*
X112675875Y-89921175D01*
X112441175Y-90155875D01*
X112256772Y-90431853D01*
X112129754Y-90738504D01*
X112065000Y-91064042D01*
X110660000Y-91064042D01*
X110660000Y-88750617D01*
X112057934Y-88750617D01*
X112102272Y-89079557D01*
X112209931Y-89393527D01*
X112309421Y-89579661D01*
X112578934Y-89681461D01*
X113570395Y-88690000D01*
X113929605Y-88690000D01*
X114921066Y-89681461D01*
X115190579Y-89579661D01*
X115336463Y-89281523D01*
X115421380Y-88960654D01*
X115442066Y-88629383D01*
X115397728Y-88300443D01*
X115290069Y-87986473D01*
X115190579Y-87800339D01*
X114921066Y-87698539D01*
X113929605Y-88690000D01*
X113570395Y-88690000D01*
X112578934Y-87698539D01*
X112309421Y-87800339D01*
X112163537Y-88098477D01*
X112078620Y-88419346D01*
X112057934Y-88750617D01*
X110660000Y-88750617D01*
X110660000Y-85984042D01*
X112065000Y-85984042D01*
X112065000Y-86315958D01*
X112129754Y-86641496D01*
X112256772Y-86948147D01*
X112441175Y-87224125D01*
X112675875Y-87458825D01*
X112760009Y-87515042D01*
X112758539Y-87518934D01*
X113750000Y-88510395D01*
X114741461Y-87518934D01*
X114739991Y-87515042D01*
X114824125Y-87458825D01*
X115058825Y-87224125D01*
X115243228Y-86948147D01*
X115370246Y-86641496D01*
X115435000Y-86315958D01*
X115435000Y-85984042D01*
X115370246Y-85658504D01*
X115243228Y-85351853D01*
X115058825Y-85075875D01*
X114824125Y-84841175D01*
X114739991Y-84784958D01*
X114741461Y-84781066D01*
X113750000Y-83789605D01*
X112758539Y-84781066D01*
X112760009Y-84784958D01*
X112675875Y-84841175D01*
X112441175Y-85075875D01*
X112256772Y-85351853D01*
X112129754Y-85658504D01*
X112065000Y-85984042D01*
X110660000Y-85984042D01*
X110660000Y-83670617D01*
X112057934Y-83670617D01*
X112102272Y-83999557D01*
X112209931Y-84313527D01*
X112309421Y-84499661D01*
X112578934Y-84601461D01*
X113570395Y-83610000D01*
X113929605Y-83610000D01*
X114921066Y-84601461D01*
X115024457Y-84562408D01*
X119973000Y-84562408D01*
X119973000Y-84837592D01*
X120026686Y-85107490D01*
X120131995Y-85361727D01*
X120284880Y-85590535D01*
X120479465Y-85785120D01*
X120708273Y-85938005D01*
X120962510Y-86043314D01*
X121232408Y-86097000D01*
X121507592Y-86097000D01*
X121777490Y-86043314D01*
X122031727Y-85938005D01*
X122260535Y-85785120D01*
X122455120Y-85590535D01*
X122608005Y-85361727D01*
X122713314Y-85107490D01*
X122767000Y-84837592D01*
X122767000Y-84562408D01*
X127593000Y-84562408D01*
X127593000Y-84837592D01*
X127646686Y-85107490D01*
X127751995Y-85361727D01*
X127904880Y-85590535D01*
X128099465Y-85785120D01*
X128328273Y-85938005D01*
X128582510Y-86043314D01*
X128852408Y-86097000D01*
X129127592Y-86097000D01*
X129397490Y-86043314D01*
X129651727Y-85938005D01*
X129880535Y-85785120D01*
X130075120Y-85590535D01*
X130228005Y-85361727D01*
X130333314Y-85107490D01*
X130387000Y-84837592D01*
X130387000Y-84562408D01*
X135213000Y-84562408D01*
X135213000Y-84837592D01*
X135266686Y-85107490D01*
X135371995Y-85361727D01*
X135524880Y-85590535D01*
X135719465Y-85785120D01*
X135948273Y-85938005D01*
X136202510Y-86043314D01*
X136472408Y-86097000D01*
X136747592Y-86097000D01*
X137017490Y-86043314D01*
X137271727Y-85938005D01*
X137500535Y-85785120D01*
X137695120Y-85590535D01*
X137848005Y-85361727D01*
X137880000Y-85284485D01*
X137911995Y-85361727D01*
X138064880Y-85590535D01*
X138259465Y-85785120D01*
X138488273Y-85938005D01*
X138742510Y-86043314D01*
X139012408Y-86097000D01*
X139287592Y-86097000D01*
X139557490Y-86043314D01*
X139811727Y-85938005D01*
X140040535Y-85785120D01*
X140235120Y-85590535D01*
X140388005Y-85361727D01*
X140493314Y-85107490D01*
X140547000Y-84837592D01*
X140547000Y-84562408D01*
X140493314Y-84292510D01*
X140388005Y-84038273D01*
X140235120Y-83809465D01*
X140040535Y-83614880D01*
X139811727Y-83461995D01*
X139557490Y-83356686D01*
X139287592Y-83303000D01*
X139012408Y-83303000D01*
X138742510Y-83356686D01*
X138488273Y-83461995D01*
X138259465Y-83614880D01*
X138064880Y-83809465D01*
X137911995Y-84038273D01*
X137880000Y-84115515D01*
X137848005Y-84038273D01*
X137695120Y-83809465D01*
X137500535Y-83614880D01*
X137271727Y-83461995D01*
X137017490Y-83356686D01*
X136747592Y-83303000D01*
X136472408Y-83303000D01*
X136202510Y-83356686D01*
X135948273Y-83461995D01*
X135719465Y-83614880D01*
X135524880Y-83809465D01*
X135371995Y-84038273D01*
X135266686Y-84292510D01*
X135213000Y-84562408D01*
X130387000Y-84562408D01*
X130333314Y-84292510D01*
X130228005Y-84038273D01*
X130075120Y-83809465D01*
X129880535Y-83614880D01*
X129651727Y-83461995D01*
X129397490Y-83356686D01*
X129127592Y-83303000D01*
X128852408Y-83303000D01*
X128582510Y-83356686D01*
X128328273Y-83461995D01*
X128099465Y-83614880D01*
X127904880Y-83809465D01*
X127751995Y-84038273D01*
X127646686Y-84292510D01*
X127593000Y-84562408D01*
X122767000Y-84562408D01*
X122713314Y-84292510D01*
X122608005Y-84038273D01*
X122455120Y-83809465D01*
X122260535Y-83614880D01*
X122031727Y-83461995D01*
X121777490Y-83356686D01*
X121507592Y-83303000D01*
X121232408Y-83303000D01*
X120962510Y-83356686D01*
X120708273Y-83461995D01*
X120479465Y-83614880D01*
X120284880Y-83809465D01*
X120131995Y-84038273D01*
X120026686Y-84292510D01*
X119973000Y-84562408D01*
X115024457Y-84562408D01*
X115190579Y-84499661D01*
X115336463Y-84201523D01*
X115421380Y-83880654D01*
X115442066Y-83549383D01*
X115397728Y-83220443D01*
X115290069Y-82906473D01*
X115190579Y-82720339D01*
X114921066Y-82618539D01*
X113929605Y-83610000D01*
X113570395Y-83610000D01*
X112578934Y-82618539D01*
X112309421Y-82720339D01*
X112163537Y-83018477D01*
X112078620Y-83339346D01*
X112057934Y-83670617D01*
X110660000Y-83670617D01*
X110660000Y-82438934D01*
X112758539Y-82438934D01*
X113750000Y-83430395D01*
X114741461Y-82438934D01*
X114639661Y-82169421D01*
X114341523Y-82023537D01*
X114020654Y-81938620D01*
X113689383Y-81917934D01*
X113360443Y-81962272D01*
X113046473Y-82069931D01*
X112860339Y-82169421D01*
X112758539Y-82438934D01*
X110660000Y-82438934D01*
X110660000Y-78835561D01*
X143027500Y-78835561D01*
X143027500Y-79039439D01*
X143067274Y-79239398D01*
X143145295Y-79427756D01*
X143258563Y-79597274D01*
X143402726Y-79741437D01*
X143572244Y-79854705D01*
X143760602Y-79932726D01*
X143960561Y-79972500D01*
X144164439Y-79972500D01*
X144364398Y-79932726D01*
X144552756Y-79854705D01*
X144722274Y-79741437D01*
X144866437Y-79597274D01*
X144979705Y-79427756D01*
X145057726Y-79239398D01*
X145097500Y-79039439D01*
X145097500Y-78835561D01*
X145066172Y-78678061D01*
X147145000Y-78678061D01*
X147145000Y-78881939D01*
X147184774Y-79081898D01*
X147262795Y-79270256D01*
X147269306Y-79280000D01*
X147262795Y-79289744D01*
X147184774Y-79478102D01*
X147145000Y-79678061D01*
X147145000Y-79881939D01*
X147184774Y-80081898D01*
X147262795Y-80270256D01*
X147376063Y-80439774D01*
X147520226Y-80583937D01*
X147689744Y-80697205D01*
X147878102Y-80775226D01*
X148078061Y-80815000D01*
X148281939Y-80815000D01*
X148481898Y-80775226D01*
X148670256Y-80697205D01*
X148839774Y-80583937D01*
X148983937Y-80439774D01*
X149097205Y-80270256D01*
X149175226Y-80081898D01*
X149215000Y-79881939D01*
X149215000Y-79815000D01*
X149281939Y-79815000D01*
X149481898Y-79775226D01*
X149670256Y-79697205D01*
X149680000Y-79690694D01*
X149689744Y-79697205D01*
X149878102Y-79775226D01*
X150078061Y-79815000D01*
X150281939Y-79815000D01*
X150481898Y-79775226D01*
X150670256Y-79697205D01*
X150839774Y-79583937D01*
X150983937Y-79439774D01*
X151097205Y-79270256D01*
X151175226Y-79081898D01*
X151215000Y-78881939D01*
X151215000Y-78678061D01*
X151175226Y-78478102D01*
X151097205Y-78289744D01*
X150983937Y-78120226D01*
X150839774Y-77976063D01*
X150670256Y-77862795D01*
X150481898Y-77784774D01*
X150281939Y-77745000D01*
X150078061Y-77745000D01*
X149878102Y-77784774D01*
X149689744Y-77862795D01*
X149680000Y-77869306D01*
X149670256Y-77862795D01*
X149481898Y-77784774D01*
X149281939Y-77745000D01*
X149078061Y-77745000D01*
X148878102Y-77784774D01*
X148689744Y-77862795D01*
X148680000Y-77869306D01*
X148670256Y-77862795D01*
X148481898Y-77784774D01*
X148281939Y-77745000D01*
X148078061Y-77745000D01*
X147878102Y-77784774D01*
X147689744Y-77862795D01*
X147520226Y-77976063D01*
X147376063Y-78120226D01*
X147262795Y-78289744D01*
X147184774Y-78478102D01*
X147145000Y-78678061D01*
X145066172Y-78678061D01*
X145057726Y-78635602D01*
X144979705Y-78447244D01*
X144866437Y-78277726D01*
X144722274Y-78133563D01*
X144552756Y-78020295D01*
X144364398Y-77942274D01*
X144164439Y-77902500D01*
X143960561Y-77902500D01*
X143760602Y-77942274D01*
X143572244Y-78020295D01*
X143402726Y-78133563D01*
X143258563Y-78277726D01*
X143145295Y-78447244D01*
X143067274Y-78635602D01*
X143027500Y-78835561D01*
X110660000Y-78835561D01*
X110660000Y-76748061D01*
X145505000Y-76748061D01*
X145505000Y-76951939D01*
X145544774Y-77151898D01*
X145622795Y-77340256D01*
X145736063Y-77509774D01*
X145880226Y-77653937D01*
X146049744Y-77767205D01*
X146238102Y-77845226D01*
X146438061Y-77885000D01*
X146641939Y-77885000D01*
X146841898Y-77845226D01*
X147030256Y-77767205D01*
X147199774Y-77653937D01*
X147343937Y-77509774D01*
X147457205Y-77340256D01*
X147535226Y-77151898D01*
X147575000Y-76951939D01*
X147575000Y-76748061D01*
X147535226Y-76548102D01*
X147457205Y-76359744D01*
X147343937Y-76190226D01*
X147199774Y-76046063D01*
X147030256Y-75932795D01*
X146841898Y-75854774D01*
X146641939Y-75815000D01*
X146438061Y-75815000D01*
X146238102Y-75854774D01*
X146049744Y-75932795D01*
X145880226Y-76046063D01*
X145736063Y-76190226D01*
X145622795Y-76359744D01*
X145544774Y-76548102D01*
X145505000Y-76748061D01*
X110660000Y-76748061D01*
X110660000Y-70652374D01*
X119605000Y-70652374D01*
X119605000Y-71027626D01*
X119678209Y-71395668D01*
X119821811Y-71742356D01*
X120030290Y-72054366D01*
X120295634Y-72319710D01*
X120607644Y-72528189D01*
X120954332Y-72671791D01*
X121322374Y-72745000D01*
X121697626Y-72745000D01*
X122065668Y-72671791D01*
X122326071Y-72563929D01*
X122218209Y-72824332D01*
X122145000Y-73192374D01*
X122145000Y-73567626D01*
X122218209Y-73935668D01*
X122361811Y-74282356D01*
X122570290Y-74594366D01*
X122835634Y-74859710D01*
X123147644Y-75068189D01*
X123494332Y-75211791D01*
X123862374Y-75285000D01*
X124237626Y-75285000D01*
X124605668Y-75211791D01*
X124952356Y-75068189D01*
X125264366Y-74859710D01*
X125416224Y-74707852D01*
X127981753Y-74707852D01*
X128110076Y-74999871D01*
X128445695Y-75167723D01*
X128807611Y-75266874D01*
X129181916Y-75293514D01*
X129554227Y-75246618D01*
X129910235Y-75127988D01*
X130149924Y-74999871D01*
X130278247Y-74707852D01*
X133061753Y-74707852D01*
X133190076Y-74999871D01*
X133525695Y-75167723D01*
X133887611Y-75266874D01*
X134261916Y-75293514D01*
X134634227Y-75246618D01*
X134990235Y-75127988D01*
X135229924Y-74999871D01*
X135358247Y-74707852D01*
X134210000Y-73559605D01*
X133061753Y-74707852D01*
X130278247Y-74707852D01*
X129130000Y-73559605D01*
X127981753Y-74707852D01*
X125416224Y-74707852D01*
X125529710Y-74594366D01*
X125738189Y-74282356D01*
X125881791Y-73935668D01*
X125955000Y-73567626D01*
X125955000Y-73431916D01*
X127216486Y-73431916D01*
X127263382Y-73804227D01*
X127382012Y-74160235D01*
X127510129Y-74399924D01*
X127802148Y-74528247D01*
X128950395Y-73380000D01*
X129309605Y-73380000D01*
X130457852Y-74528247D01*
X130749871Y-74399924D01*
X130917723Y-74064305D01*
X131016874Y-73702389D01*
X131036124Y-73431916D01*
X132296486Y-73431916D01*
X132343382Y-73804227D01*
X132462012Y-74160235D01*
X132590129Y-74399924D01*
X132882148Y-74528247D01*
X134030395Y-73380000D01*
X134389605Y-73380000D01*
X135537852Y-74528247D01*
X135829871Y-74399924D01*
X135997723Y-74064305D01*
X136096874Y-73702389D01*
X136123514Y-73328084D01*
X136106421Y-73192374D01*
X137385000Y-73192374D01*
X137385000Y-73567626D01*
X137458209Y-73935668D01*
X137601811Y-74282356D01*
X137810290Y-74594366D01*
X138075634Y-74859710D01*
X138387644Y-75068189D01*
X138734332Y-75211791D01*
X139102374Y-75285000D01*
X139477626Y-75285000D01*
X139845668Y-75211791D01*
X140192356Y-75068189D01*
X140504366Y-74859710D01*
X140769710Y-74594366D01*
X140978189Y-74282356D01*
X141121791Y-73935668D01*
X141195000Y-73567626D01*
X141195000Y-73192374D01*
X141121791Y-72824332D01*
X141013929Y-72563929D01*
X141274332Y-72671791D01*
X141642374Y-72745000D01*
X142017626Y-72745000D01*
X142385668Y-72671791D01*
X142732356Y-72528189D01*
X143044366Y-72319710D01*
X143309710Y-72054366D01*
X143518189Y-71742356D01*
X143661791Y-71395668D01*
X143735000Y-71027626D01*
X143735000Y-70698061D01*
X145185000Y-70698061D01*
X145185000Y-70901939D01*
X145224774Y-71101898D01*
X145302795Y-71290256D01*
X145416063Y-71459774D01*
X145560226Y-71603937D01*
X145729744Y-71717205D01*
X145918102Y-71795226D01*
X146118061Y-71835000D01*
X146321939Y-71835000D01*
X146521898Y-71795226D01*
X146710256Y-71717205D01*
X146879774Y-71603937D01*
X147023937Y-71459774D01*
X147137205Y-71290256D01*
X147170000Y-71211082D01*
X147202795Y-71290256D01*
X147316063Y-71459774D01*
X147460226Y-71603937D01*
X147629744Y-71717205D01*
X147818102Y-71795226D01*
X148018061Y-71835000D01*
X148221939Y-71835000D01*
X148421898Y-71795226D01*
X148610256Y-71717205D01*
X148779774Y-71603937D01*
X148923937Y-71459774D01*
X149037205Y-71290256D01*
X149115226Y-71101898D01*
X149155000Y-70901939D01*
X149155000Y-70698061D01*
X149115226Y-70498102D01*
X149037205Y-70309744D01*
X148923937Y-70140226D01*
X148779774Y-69996063D01*
X148610256Y-69882795D01*
X148421898Y-69804774D01*
X148221939Y-69765000D01*
X148018061Y-69765000D01*
X147818102Y-69804774D01*
X147629744Y-69882795D01*
X147460226Y-69996063D01*
X147316063Y-70140226D01*
X147202795Y-70309744D01*
X147170000Y-70388918D01*
X147137205Y-70309744D01*
X147023937Y-70140226D01*
X146879774Y-69996063D01*
X146710256Y-69882795D01*
X146521898Y-69804774D01*
X146321939Y-69765000D01*
X146118061Y-69765000D01*
X145918102Y-69804774D01*
X145729744Y-69882795D01*
X145560226Y-69996063D01*
X145416063Y-70140226D01*
X145302795Y-70309744D01*
X145224774Y-70498102D01*
X145185000Y-70698061D01*
X143735000Y-70698061D01*
X143735000Y-70652374D01*
X143661791Y-70284332D01*
X143518189Y-69937644D01*
X143309710Y-69625634D01*
X143044366Y-69360290D01*
X142732356Y-69151811D01*
X142385668Y-69008209D01*
X142017626Y-68935000D01*
X141642374Y-68935000D01*
X141274332Y-69008209D01*
X140927644Y-69151811D01*
X140615634Y-69360290D01*
X140350290Y-69625634D01*
X140141811Y-69937644D01*
X139998209Y-70284332D01*
X139925000Y-70652374D01*
X139925000Y-71027626D01*
X139998209Y-71395668D01*
X140106071Y-71656071D01*
X139845668Y-71548209D01*
X139477626Y-71475000D01*
X139102374Y-71475000D01*
X138734332Y-71548209D01*
X138387644Y-71691811D01*
X138075634Y-71900290D01*
X137810290Y-72165634D01*
X137601811Y-72477644D01*
X137458209Y-72824332D01*
X137385000Y-73192374D01*
X136106421Y-73192374D01*
X136076618Y-72955773D01*
X135957988Y-72599765D01*
X135829871Y-72360076D01*
X135537852Y-72231753D01*
X134389605Y-73380000D01*
X134030395Y-73380000D01*
X132882148Y-72231753D01*
X132590129Y-72360076D01*
X132422277Y-72695695D01*
X132323126Y-73057611D01*
X132296486Y-73431916D01*
X131036124Y-73431916D01*
X131043514Y-73328084D01*
X130996618Y-72955773D01*
X130877988Y-72599765D01*
X130749871Y-72360076D01*
X130457852Y-72231753D01*
X129309605Y-73380000D01*
X128950395Y-73380000D01*
X127802148Y-72231753D01*
X127510129Y-72360076D01*
X127342277Y-72695695D01*
X127243126Y-73057611D01*
X127216486Y-73431916D01*
X125955000Y-73431916D01*
X125955000Y-73192374D01*
X125881791Y-72824332D01*
X125738189Y-72477644D01*
X125529710Y-72165634D01*
X125416224Y-72052148D01*
X127981753Y-72052148D01*
X129130000Y-73200395D01*
X130278247Y-72052148D01*
X133061753Y-72052148D01*
X134210000Y-73200395D01*
X135358247Y-72052148D01*
X135229924Y-71760129D01*
X134894305Y-71592277D01*
X134532389Y-71493126D01*
X134158084Y-71466486D01*
X133785773Y-71513382D01*
X133429765Y-71632012D01*
X133190076Y-71760129D01*
X133061753Y-72052148D01*
X130278247Y-72052148D01*
X130149924Y-71760129D01*
X129814305Y-71592277D01*
X129452389Y-71493126D01*
X129078084Y-71466486D01*
X128705773Y-71513382D01*
X128349765Y-71632012D01*
X128110076Y-71760129D01*
X127981753Y-72052148D01*
X125416224Y-72052148D01*
X125264366Y-71900290D01*
X124952356Y-71691811D01*
X124605668Y-71548209D01*
X124237626Y-71475000D01*
X123862374Y-71475000D01*
X123494332Y-71548209D01*
X123233929Y-71656071D01*
X123341791Y-71395668D01*
X123415000Y-71027626D01*
X123415000Y-70652374D01*
X123341791Y-70284332D01*
X123198189Y-69937644D01*
X122989710Y-69625634D01*
X122724366Y-69360290D01*
X122412356Y-69151811D01*
X122065668Y-69008209D01*
X121697626Y-68935000D01*
X121322374Y-68935000D01*
X120954332Y-69008209D01*
X120607644Y-69151811D01*
X120295634Y-69360290D01*
X120030290Y-69625634D01*
X119821811Y-69937644D01*
X119678209Y-70284332D01*
X119605000Y-70652374D01*
X110660000Y-70652374D01*
X110660000Y-68498061D01*
X145185000Y-68498061D01*
X145185000Y-68701939D01*
X145224774Y-68901898D01*
X145302795Y-69090256D01*
X145416063Y-69259774D01*
X145560226Y-69403937D01*
X145729744Y-69517205D01*
X145918102Y-69595226D01*
X146118061Y-69635000D01*
X146321939Y-69635000D01*
X146521898Y-69595226D01*
X146655224Y-69540000D01*
X158111928Y-69540000D01*
X158111928Y-71240000D01*
X158124188Y-71364482D01*
X158160498Y-71484180D01*
X158219463Y-71594494D01*
X158298815Y-71691185D01*
X158395506Y-71770537D01*
X158505820Y-71829502D01*
X158578380Y-71851513D01*
X158446525Y-71983368D01*
X158284010Y-72226589D01*
X158172068Y-72496842D01*
X158115000Y-72783740D01*
X158115000Y-73076260D01*
X158172068Y-73363158D01*
X158284010Y-73633411D01*
X158446525Y-73876632D01*
X158653368Y-74083475D01*
X158896589Y-74245990D01*
X159166842Y-74357932D01*
X159453740Y-74415000D01*
X159746260Y-74415000D01*
X160033158Y-74357932D01*
X160303411Y-74245990D01*
X160546632Y-74083475D01*
X160753475Y-73876632D01*
X160915990Y-73633411D01*
X161027932Y-73363158D01*
X161085000Y-73076260D01*
X161085000Y-72783740D01*
X161027932Y-72496842D01*
X160915990Y-72226589D01*
X160753475Y-71983368D01*
X160621620Y-71851513D01*
X160694180Y-71829502D01*
X160804494Y-71770537D01*
X160901185Y-71691185D01*
X160980537Y-71594494D01*
X161039502Y-71484180D01*
X161075812Y-71364482D01*
X161088072Y-71240000D01*
X161088072Y-69540000D01*
X161075812Y-69415518D01*
X161039502Y-69295820D01*
X160980537Y-69185506D01*
X160901185Y-69088815D01*
X160804494Y-69009463D01*
X160694180Y-68950498D01*
X160574482Y-68914188D01*
X160450000Y-68901928D01*
X158750000Y-68901928D01*
X158625518Y-68914188D01*
X158505820Y-68950498D01*
X158395506Y-69009463D01*
X158298815Y-69088815D01*
X158219463Y-69185506D01*
X158160498Y-69295820D01*
X158124188Y-69415518D01*
X158111928Y-69540000D01*
X146655224Y-69540000D01*
X146710256Y-69517205D01*
X146879774Y-69403937D01*
X147023937Y-69259774D01*
X147137205Y-69090256D01*
X147215226Y-68901898D01*
X147255000Y-68701939D01*
X147255000Y-68498061D01*
X147215226Y-68298102D01*
X147137205Y-68109744D01*
X147023937Y-67940226D01*
X146879774Y-67796063D01*
X146710256Y-67682795D01*
X146521898Y-67604774D01*
X146321939Y-67565000D01*
X146118061Y-67565000D01*
X145918102Y-67604774D01*
X145729744Y-67682795D01*
X145560226Y-67796063D01*
X145416063Y-67940226D01*
X145302795Y-68109744D01*
X145224774Y-68298102D01*
X145185000Y-68498061D01*
X110660000Y-68498061D01*
X110660000Y-66058686D01*
X111120919Y-66058686D01*
X111457106Y-66527868D01*
X112087068Y-66868237D01*
X112771327Y-67079166D01*
X113483589Y-67152550D01*
X114196482Y-67085569D01*
X114882609Y-66880796D01*
X115515603Y-66546102D01*
X115542894Y-66527868D01*
X115879081Y-66058686D01*
X113500000Y-63679605D01*
X111120919Y-66058686D01*
X110660000Y-66058686D01*
X110660000Y-65677509D01*
X110941314Y-65879081D01*
X113320395Y-63500000D01*
X113679605Y-63500000D01*
X116058686Y-65879081D01*
X116527868Y-65542894D01*
X116868237Y-64912932D01*
X117079166Y-64228673D01*
X117152550Y-63516411D01*
X117085569Y-62803518D01*
X116880796Y-62117391D01*
X116546102Y-61484397D01*
X116527868Y-61457106D01*
X116058686Y-61120919D01*
X113679605Y-63500000D01*
X113320395Y-63500000D01*
X110941314Y-61120919D01*
X110690142Y-61300894D01*
X110726308Y-61181106D01*
X110802982Y-61036904D01*
X110906207Y-60910337D01*
X111032051Y-60806231D01*
X111175711Y-60728553D01*
X111301206Y-60689706D01*
X111120919Y-60941314D01*
X113500000Y-63320395D01*
X115879081Y-60941314D01*
X115677509Y-60660000D01*
X125984692Y-60660000D01*
X125823178Y-60692127D01*
G37*
X125823178Y-60692127D02*
X125344749Y-60890299D01*
X124914174Y-61178000D01*
X124548000Y-61544174D01*
X124260299Y-61974749D01*
X124062127Y-62453178D01*
X123961100Y-62961076D01*
X123961100Y-63478924D01*
X124062127Y-63986822D01*
X124260299Y-64465251D01*
X124548000Y-64895826D01*
X124914174Y-65262000D01*
X125344749Y-65549701D01*
X125823178Y-65747873D01*
X126331076Y-65848900D01*
X126848924Y-65848900D01*
X127356822Y-65747873D01*
X127835251Y-65549701D01*
X128265826Y-65262000D01*
X128632000Y-64895826D01*
X128919701Y-64465251D01*
X129117873Y-63986822D01*
X129218900Y-63478924D01*
X129218900Y-62961076D01*
X129117873Y-62453178D01*
X128919701Y-61974749D01*
X128632000Y-61544174D01*
X128265826Y-61178000D01*
X127835251Y-60890299D01*
X127356822Y-60692127D01*
X127195308Y-60660000D01*
X136144692Y-60660000D01*
X135983178Y-60692127D01*
X135504749Y-60890299D01*
X135074174Y-61178000D01*
X134708000Y-61544174D01*
X134420299Y-61974749D01*
X134222127Y-62453178D01*
X134121100Y-62961076D01*
X134121100Y-63478924D01*
X134222127Y-63986822D01*
X134420299Y-64465251D01*
X134708000Y-64895826D01*
X135074174Y-65262000D01*
X135504749Y-65549701D01*
X135983178Y-65747873D01*
X136491076Y-65848900D01*
X137008924Y-65848900D01*
X137516822Y-65747873D01*
X137995251Y-65549701D01*
X138373444Y-65297000D01*
X146315000Y-65297000D01*
X146315000Y-66047000D01*
X146360624Y-66256233D01*
X146446191Y-66452545D01*
X146568413Y-66628391D01*
X146722592Y-66777014D01*
X146902803Y-66892702D01*
X147105999Y-66964408D01*
X147273000Y-66837502D01*
X147273000Y-65297000D01*
X146315000Y-65297000D01*
X138373444Y-65297000D01*
X138425826Y-65262000D01*
X138792000Y-64895826D01*
X139079701Y-64465251D01*
X139151049Y-64293000D01*
X146315000Y-64293000D01*
X146315000Y-65043000D01*
X147273000Y-65043000D01*
X147273000Y-63502498D01*
X147527000Y-63502498D01*
X147527000Y-65043000D01*
X147793537Y-65043000D01*
X147800368Y-65078989D01*
X147873043Y-65258893D01*
X147881233Y-65274216D01*
X148079480Y-65290912D01*
X148073392Y-65297000D01*
X147527000Y-65297000D01*
X147527000Y-66837502D01*
X147694001Y-66964408D01*
X147897197Y-66892702D01*
X148077408Y-66777014D01*
X148231587Y-66628391D01*
X148353809Y-66452545D01*
X148420225Y-66300170D01*
X148570395Y-66150000D01*
X148556253Y-66135858D01*
X148615000Y-66077110D01*
X148615000Y-66247014D01*
X148651101Y-66428504D01*
X148259088Y-66820517D01*
X148275784Y-67018767D01*
X148454384Y-67094589D01*
X148644344Y-67134110D01*
X148838364Y-67135813D01*
X149028989Y-67099632D01*
X149175651Y-67040385D01*
X149312686Y-67097147D01*
X149502986Y-67135000D01*
X149697014Y-67135000D01*
X149887314Y-67097147D01*
X150025000Y-67040116D01*
X150162686Y-67097147D01*
X150352986Y-67135000D01*
X150547014Y-67135000D01*
X150737314Y-67097147D01*
X150875000Y-67040116D01*
X151012686Y-67097147D01*
X151202986Y-67135000D01*
X151397014Y-67135000D01*
X151587314Y-67097147D01*
X151725000Y-67040116D01*
X151862686Y-67097147D01*
X152052986Y-67135000D01*
X152247014Y-67135000D01*
X152437314Y-67097147D01*
X152575000Y-67040116D01*
X152712686Y-67097147D01*
X152902986Y-67135000D01*
X153097014Y-67135000D01*
X153287314Y-67097147D01*
X153425000Y-67040116D01*
X153562686Y-67097147D01*
X153752986Y-67135000D01*
X153947014Y-67135000D01*
X154137314Y-67097147D01*
X154275542Y-67039891D01*
X154404384Y-67094589D01*
X154594344Y-67134110D01*
X154788364Y-67135813D01*
X154978989Y-67099632D01*
X155158893Y-67026957D01*
X155174216Y-67018767D01*
X155190912Y-66820517D01*
X154798899Y-66428504D01*
X154835000Y-66247014D01*
X154835000Y-66077110D01*
X154893748Y-66135858D01*
X154879605Y-66150000D01*
X155029775Y-66300170D01*
X155096191Y-66452545D01*
X155218413Y-66628391D01*
X155372592Y-66777014D01*
X155552803Y-66892702D01*
X155755999Y-66964408D01*
X155923000Y-66837502D01*
X155923000Y-65297000D01*
X156177000Y-65297000D01*
X156177000Y-66837502D01*
X156344001Y-66964408D01*
X156547197Y-66892702D01*
X156727408Y-66777014D01*
X156881587Y-66628391D01*
X157003809Y-66452545D01*
X157089376Y-66256233D01*
X157135000Y-66047000D01*
X157135000Y-65297000D01*
X156177000Y-65297000D01*
X155923000Y-65297000D01*
X155376608Y-65297000D01*
X155370520Y-65290912D01*
X155568767Y-65274216D01*
X155644589Y-65095616D01*
X155655536Y-65043000D01*
X155923000Y-65043000D01*
X155923000Y-63502498D01*
X156177000Y-63502498D01*
X156177000Y-65043000D01*
X157135000Y-65043000D01*
X157135000Y-64293000D01*
X157089376Y-64083767D01*
X157003809Y-63887455D01*
X156881587Y-63711609D01*
X156727408Y-63562986D01*
X156547197Y-63447298D01*
X156344001Y-63375592D01*
X156177000Y-63502498D01*
X155923000Y-63502498D01*
X155755999Y-63375592D01*
X155552803Y-63447298D01*
X155372592Y-63562986D01*
X155218413Y-63711609D01*
X155096191Y-63887455D01*
X155092272Y-63896445D01*
X154995616Y-63855411D01*
X154805656Y-63815890D01*
X154611636Y-63814187D01*
X154421011Y-63850368D01*
X154274349Y-63909615D01*
X154137314Y-63852853D01*
X153947014Y-63815000D01*
X153752986Y-63815000D01*
X153562686Y-63852853D01*
X153425000Y-63909884D01*
X153287314Y-63852853D01*
X153097014Y-63815000D01*
X152902986Y-63815000D01*
X152712686Y-63852853D01*
X152575000Y-63909884D01*
X152437314Y-63852853D01*
X152247014Y-63815000D01*
X152052986Y-63815000D01*
X151862686Y-63852853D01*
X151725000Y-63909884D01*
X151587314Y-63852853D01*
X151397014Y-63815000D01*
X151202986Y-63815000D01*
X151012686Y-63852853D01*
X150875000Y-63909884D01*
X150737314Y-63852853D01*
X150547014Y-63815000D01*
X150352986Y-63815000D01*
X150162686Y-63852853D01*
X150025000Y-63909884D01*
X149887314Y-63852853D01*
X149697014Y-63815000D01*
X149502986Y-63815000D01*
X149312686Y-63852853D01*
X149174458Y-63910109D01*
X149045616Y-63855411D01*
X148855656Y-63815890D01*
X148661636Y-63814187D01*
X148471011Y-63850368D01*
X148357611Y-63896178D01*
X148353809Y-63887455D01*
X148231587Y-63711609D01*
X148077408Y-63562986D01*
X147897197Y-63447298D01*
X147694001Y-63375592D01*
X147527000Y-63502498D01*
X147273000Y-63502498D01*
X147105999Y-63375592D01*
X146902803Y-63447298D01*
X146722592Y-63562986D01*
X146568413Y-63711609D01*
X146446191Y-63887455D01*
X146360624Y-64083767D01*
X146315000Y-64293000D01*
X139151049Y-64293000D01*
X139277873Y-63986822D01*
X139378900Y-63478924D01*
X139378900Y-62961076D01*
X139277873Y-62453178D01*
X139079701Y-61974749D01*
X139041115Y-61917000D01*
X146315000Y-61917000D01*
X146315000Y-62317000D01*
X146360624Y-62526233D01*
X146446191Y-62722545D01*
X146568413Y-62898391D01*
X146722592Y-63047014D01*
X146902803Y-63162702D01*
X147105999Y-63234408D01*
X147273000Y-63107502D01*
X147273000Y-61917000D01*
X147527000Y-61917000D01*
X147527000Y-63107502D01*
X147694001Y-63234408D01*
X147897197Y-63162702D01*
X148077408Y-63047014D01*
X148231587Y-62898391D01*
X148353809Y-62722545D01*
X148439376Y-62526233D01*
X148485000Y-62317000D01*
X148485000Y-61917000D01*
X154965000Y-61917000D01*
X154965000Y-62317000D01*
X155010624Y-62526233D01*
X155096191Y-62722545D01*
X155218413Y-62898391D01*
X155372592Y-63047014D01*
X155552803Y-63162702D01*
X155755999Y-63234408D01*
X155923000Y-63107502D01*
X155923000Y-61917000D01*
X156177000Y-61917000D01*
X156177000Y-63107502D01*
X156344001Y-63234408D01*
X156547197Y-63162702D01*
X156727408Y-63047014D01*
X156881587Y-62898391D01*
X157003809Y-62722545D01*
X157089376Y-62526233D01*
X157135000Y-62317000D01*
X157135000Y-61917000D01*
X156177000Y-61917000D01*
X155923000Y-61917000D01*
X154965000Y-61917000D01*
X148485000Y-61917000D01*
X147527000Y-61917000D01*
X147273000Y-61917000D01*
X146315000Y-61917000D01*
X139041115Y-61917000D01*
X138792000Y-61544174D01*
X138425826Y-61178000D01*
X137995251Y-60890299D01*
X137516822Y-60692127D01*
X137355308Y-60660000D01*
X146590830Y-60660000D01*
X146568413Y-60681609D01*
X146446191Y-60857455D01*
X146360624Y-61053767D01*
X146315000Y-61263000D01*
X146315000Y-61663000D01*
X147273000Y-61663000D01*
X147273000Y-61643000D01*
X147527000Y-61643000D01*
X147527000Y-61663000D01*
X148485000Y-61663000D01*
X148485000Y-61263000D01*
X148439376Y-61053767D01*
X148353809Y-60857455D01*
X148231587Y-60681609D01*
X148209170Y-60660000D01*
X155240830Y-60660000D01*
X155218413Y-60681609D01*
X155096191Y-60857455D01*
X155010624Y-61053767D01*
X154965000Y-61263000D01*
X154965000Y-61663000D01*
X155923000Y-61663000D01*
X155923000Y-61643000D01*
X156177000Y-61643000D01*
X156177000Y-61663000D01*
X157135000Y-61663000D01*
X157135000Y-61263000D01*
X157089376Y-61053767D01*
X157003809Y-60857455D01*
X156881587Y-60681609D01*
X156859170Y-60660000D01*
X164467723Y-60660000D01*
X164662540Y-60679102D01*
X164818894Y-60726308D01*
X164963096Y-60802982D01*
X165089663Y-60906207D01*
X165193769Y-61032051D01*
X165271447Y-61175711D01*
X165319742Y-61331729D01*
X165340000Y-61524473D01*
X165340000Y-77119990D01*
X165294180Y-77095498D01*
X165174482Y-77059188D01*
X165050000Y-77046928D01*
X163350000Y-77046928D01*
X163225518Y-77059188D01*
X163105820Y-77095498D01*
X162995506Y-77154463D01*
X162898815Y-77233815D01*
X162819463Y-77330506D01*
X162760498Y-77440820D01*
X162724188Y-77560518D01*
X162711928Y-77685000D01*
X162711928Y-79385000D01*
X162724188Y-79509482D01*
X162760498Y-79629180D01*
X162819463Y-79739494D01*
X162898815Y-79836185D01*
X162995506Y-79915537D01*
X163105820Y-79974502D01*
X163178380Y-79996513D01*
X163046525Y-80128368D01*
X162884010Y-80371589D01*
X162772068Y-80641842D01*
X162715000Y-80928740D01*
X162715000Y-81221260D01*
X162772068Y-81508158D01*
X162884010Y-81778411D01*
X163046525Y-82021632D01*
X163253368Y-82228475D01*
X163435534Y-82350195D01*
X163318645Y-82419822D01*
X163102412Y-82614731D01*
X162928359Y-82848080D01*
X162803175Y-83110901D01*
X162758524Y-83258110D01*
X162879845Y-83488000D01*
X164073000Y-83488000D01*
X164073000Y-83468000D01*
X164327000Y-83468000D01*
X164327000Y-83488000D01*
X164347000Y-83488000D01*
X164347000Y-83742000D01*
X164327000Y-83742000D01*
X164327000Y-83762000D01*
X164073000Y-83762000D01*
X164073000Y-83742000D01*
X162879845Y-83742000D01*
X162758524Y-83971890D01*
X162803175Y-84119099D01*
X162928359Y-84381920D01*
X163102412Y-84615269D01*
X163318645Y-84810178D01*
X163435534Y-84879805D01*
X163253368Y-85001525D01*
X163046525Y-85208368D01*
X162884010Y-85451589D01*
X162772068Y-85721842D01*
X162715000Y-86008740D01*
X162715000Y-86301260D01*
X162772068Y-86588158D01*
X162884010Y-86858411D01*
X163046525Y-87101632D01*
X163253368Y-87308475D01*
X163427760Y-87425000D01*
X163253368Y-87541525D01*
X163046525Y-87748368D01*
X162884010Y-87991589D01*
X162772068Y-88261842D01*
X162715000Y-88548740D01*
X162715000Y-88841260D01*
X162772068Y-89128158D01*
X162884010Y-89398411D01*
X163046525Y-89641632D01*
X163253368Y-89848475D01*
X163435534Y-89970195D01*
X163318645Y-90039822D01*
X163102412Y-90234731D01*
X162928359Y-90468080D01*
X162803175Y-90730901D01*
X162758524Y-90878110D01*
X162879845Y-91108000D01*
X164073000Y-91108000D01*
X164073000Y-91088000D01*
X164327000Y-91088000D01*
X164327000Y-91108000D01*
X164347000Y-91108000D01*
X164347000Y-91362000D01*
X164327000Y-91362000D01*
X164327000Y-91382000D01*
X164073000Y-91382000D01*
X164073000Y-91362000D01*
X162879845Y-91362000D01*
X162758524Y-91591890D01*
X162803175Y-91739099D01*
X162928359Y-92001920D01*
X163102412Y-92235269D01*
X163318645Y-92430178D01*
X163435534Y-92499805D01*
X163253368Y-92621525D01*
X163046525Y-92828368D01*
X162884010Y-93071589D01*
X162772068Y-93341842D01*
X162715000Y-93628740D01*
X162715000Y-93921260D01*
X162772068Y-94208158D01*
X162884010Y-94478411D01*
X163046525Y-94721632D01*
X163253368Y-94928475D01*
X163427760Y-95045000D01*
X163253368Y-95161525D01*
X163046525Y-95368368D01*
X162884010Y-95611589D01*
X162772068Y-95881842D01*
X162715000Y-96168740D01*
X162715000Y-96461260D01*
X162772068Y-96748158D01*
X162884010Y-97018411D01*
X163046525Y-97261632D01*
X163253368Y-97468475D01*
X163435534Y-97590195D01*
X163318645Y-97659822D01*
X163102412Y-97854731D01*
X162928359Y-98088080D01*
X162803175Y-98350901D01*
X162758524Y-98498110D01*
X162879845Y-98728000D01*
X164073000Y-98728000D01*
X164073000Y-98708000D01*
X164327000Y-98708000D01*
X164327000Y-98728000D01*
X164347000Y-98728000D01*
X164347000Y-98982000D01*
X164327000Y-98982000D01*
X164327000Y-99002000D01*
X164073000Y-99002000D01*
X164073000Y-98982000D01*
X162879845Y-98982000D01*
X162758524Y-99211890D01*
X162803175Y-99359099D01*
X162928359Y-99621920D01*
X163102412Y-99855269D01*
X163318645Y-100050178D01*
X163435534Y-100119805D01*
X163253368Y-100241525D01*
X163046525Y-100448368D01*
X162884010Y-100691589D01*
X162772068Y-100961842D01*
X162715000Y-101248740D01*
X162715000Y-101541260D01*
X162772068Y-101828158D01*
X162884010Y-102098411D01*
X163046525Y-102341632D01*
X163253368Y-102548475D01*
X163427760Y-102665000D01*
X163253368Y-102781525D01*
X163046525Y-102988368D01*
X162884010Y-103231589D01*
X162772068Y-103501842D01*
X162715000Y-103788740D01*
X162715000Y-104081260D01*
X162772068Y-104368158D01*
X162884010Y-104638411D01*
X163046525Y-104881632D01*
X163253368Y-105088475D01*
X163435534Y-105210195D01*
X163318645Y-105279822D01*
X163102412Y-105474731D01*
X162928359Y-105708080D01*
X162803175Y-105970901D01*
X162758524Y-106118110D01*
X162879845Y-106348000D01*
X164073000Y-106348000D01*
X164073000Y-106328000D01*
X164327000Y-106328000D01*
X164327000Y-106348000D01*
X164347000Y-106348000D01*
X164347000Y-106602000D01*
X164327000Y-106602000D01*
X164327000Y-107795814D01*
X164556891Y-107916481D01*
X164831252Y-107819157D01*
X165081355Y-107670178D01*
X165297588Y-107475269D01*
X165340001Y-107418407D01*
X165340001Y-119322492D01*
X165058686Y-119120919D01*
X162679605Y-121500000D01*
X165058686Y-123879081D01*
X165340001Y-123677508D01*
X165340001Y-143467712D01*
X165320898Y-143662540D01*
X165273692Y-143818895D01*
X165197018Y-143963096D01*
X165093792Y-144089664D01*
X164967951Y-144193768D01*
X164824289Y-144271447D01*
X164668271Y-144319742D01*
X164475527Y-144340000D01*
X111532277Y-144340000D01*
X111337460Y-144320898D01*
X111181105Y-144273692D01*
X111036904Y-144197018D01*
X110910336Y-144093792D01*
X110806232Y-143967951D01*
X110728553Y-143824289D01*
X110680258Y-143668271D01*
X110660000Y-143475527D01*
X110660000Y-142308061D01*
X120385000Y-142308061D01*
X120385000Y-142511939D01*
X120424774Y-142711898D01*
X120502795Y-142900256D01*
X120616063Y-143069774D01*
X120760226Y-143213937D01*
X120929744Y-143327205D01*
X121118102Y-143405226D01*
X121318061Y-143445000D01*
X121521939Y-143445000D01*
X121721898Y-143405226D01*
X121910256Y-143327205D01*
X121920000Y-143320694D01*
X121929744Y-143327205D01*
X122118102Y-143405226D01*
X122318061Y-143445000D01*
X122521939Y-143445000D01*
X122721898Y-143405226D01*
X122910256Y-143327205D01*
X122920000Y-143320694D01*
X122929744Y-143327205D01*
X123118102Y-143405226D01*
X123318061Y-143445000D01*
X123521939Y-143445000D01*
X123721898Y-143405226D01*
X123910256Y-143327205D01*
X123920000Y-143320694D01*
X123929744Y-143327205D01*
X124118102Y-143405226D01*
X124318061Y-143445000D01*
X124521939Y-143445000D01*
X124721898Y-143405226D01*
X124910256Y-143327205D01*
X124920000Y-143320694D01*
X124929744Y-143327205D01*
X125118102Y-143405226D01*
X125318061Y-143445000D01*
X125521939Y-143445000D01*
X125721898Y-143405226D01*
X125910256Y-143327205D01*
X125920000Y-143320694D01*
X125929744Y-143327205D01*
X126118102Y-143405226D01*
X126318061Y-143445000D01*
X126521939Y-143445000D01*
X126721898Y-143405226D01*
X126910256Y-143327205D01*
X126920000Y-143320694D01*
X126929744Y-143327205D01*
X127118102Y-143405226D01*
X127318061Y-143445000D01*
X127521939Y-143445000D01*
X127721898Y-143405226D01*
X127910256Y-143327205D01*
X127920000Y-143320694D01*
X127929744Y-143327205D01*
X128118102Y-143405226D01*
X128318061Y-143445000D01*
X128521939Y-143445000D01*
X128721898Y-143405226D01*
X128910256Y-143327205D01*
X129079774Y-143213937D01*
X129223937Y-143069774D01*
X129337205Y-142900256D01*
X129415226Y-142711898D01*
X129455000Y-142511939D01*
X129455000Y-142318061D01*
X154755000Y-142318061D01*
X154755000Y-142521939D01*
X154794774Y-142721898D01*
X154872795Y-142910256D01*
X154986063Y-143079774D01*
X155130226Y-143223937D01*
X155299744Y-143337205D01*
X155488102Y-143415226D01*
X155688061Y-143455000D01*
X155891939Y-143455000D01*
X156091898Y-143415226D01*
X156280256Y-143337205D01*
X156290000Y-143330694D01*
X156299744Y-143337205D01*
X156488102Y-143415226D01*
X156688061Y-143455000D01*
X156891939Y-143455000D01*
X157091898Y-143415226D01*
X157280256Y-143337205D01*
X157290000Y-143330694D01*
X157299744Y-143337205D01*
X157488102Y-143415226D01*
X157688061Y-143455000D01*
X157891939Y-143455000D01*
X158091898Y-143415226D01*
X158280256Y-143337205D01*
X158290000Y-143330694D01*
X158299744Y-143337205D01*
X158488102Y-143415226D01*
X158688061Y-143455000D01*
X158891939Y-143455000D01*
X159091898Y-143415226D01*
X159280256Y-143337205D01*
X159449774Y-143223937D01*
X159593937Y-143079774D01*
X159707205Y-142910256D01*
X159785226Y-142721898D01*
X159825000Y-142521939D01*
X159825000Y-142318061D01*
X159785226Y-142118102D01*
X159707205Y-141929744D01*
X159593937Y-141760226D01*
X159449774Y-141616063D01*
X159280256Y-141502795D01*
X159091898Y-141424774D01*
X158891939Y-141385000D01*
X158688061Y-141385000D01*
X158488102Y-141424774D01*
X158299744Y-141502795D01*
X158290000Y-141509306D01*
X158280256Y-141502795D01*
X158091898Y-141424774D01*
X157891939Y-141385000D01*
X157688061Y-141385000D01*
X157488102Y-141424774D01*
X157299744Y-141502795D01*
X157290000Y-141509306D01*
X157280256Y-141502795D01*
X157091898Y-141424774D01*
X156891939Y-141385000D01*
X156688061Y-141385000D01*
X156488102Y-141424774D01*
X156299744Y-141502795D01*
X156290000Y-141509306D01*
X156280256Y-141502795D01*
X156091898Y-141424774D01*
X155891939Y-141385000D01*
X155688061Y-141385000D01*
X155488102Y-141424774D01*
X155299744Y-141502795D01*
X155130226Y-141616063D01*
X154986063Y-141760226D01*
X154872795Y-141929744D01*
X154794774Y-142118102D01*
X154755000Y-142318061D01*
X129455000Y-142318061D01*
X129455000Y-142308061D01*
X129415226Y-142108102D01*
X129337205Y-141919744D01*
X129223937Y-141750226D01*
X129079774Y-141606063D01*
X128910256Y-141492795D01*
X128721898Y-141414774D01*
X128521939Y-141375000D01*
X128318061Y-141375000D01*
X128118102Y-141414774D01*
X127929744Y-141492795D01*
X127920000Y-141499306D01*
X127910256Y-141492795D01*
X127721898Y-141414774D01*
X127521939Y-141375000D01*
X127318061Y-141375000D01*
X127118102Y-141414774D01*
X126929744Y-141492795D01*
X126920000Y-141499306D01*
X126910256Y-141492795D01*
X126721898Y-141414774D01*
X126521939Y-141375000D01*
X126318061Y-141375000D01*
X126118102Y-141414774D01*
X125929744Y-141492795D01*
X125920000Y-141499306D01*
X125910256Y-141492795D01*
X125721898Y-141414774D01*
X125521939Y-141375000D01*
X125318061Y-141375000D01*
X125118102Y-141414774D01*
X124929744Y-141492795D01*
X124920000Y-141499306D01*
X124910256Y-141492795D01*
X124721898Y-141414774D01*
X124521939Y-141375000D01*
X124318061Y-141375000D01*
X124118102Y-141414774D01*
X123929744Y-141492795D01*
X123920000Y-141499306D01*
X123910256Y-141492795D01*
X123721898Y-141414774D01*
X123521939Y-141375000D01*
X123318061Y-141375000D01*
X123118102Y-141414774D01*
X122929744Y-141492795D01*
X122920000Y-141499306D01*
X122910256Y-141492795D01*
X122721898Y-141414774D01*
X122521939Y-141375000D01*
X122318061Y-141375000D01*
X122118102Y-141414774D01*
X121929744Y-141492795D01*
X121920000Y-141499306D01*
X121910256Y-141492795D01*
X121721898Y-141414774D01*
X121521939Y-141375000D01*
X121318061Y-141375000D01*
X121118102Y-141414774D01*
X120929744Y-141492795D01*
X120760226Y-141606063D01*
X120616063Y-141750226D01*
X120502795Y-141919744D01*
X120424774Y-142108102D01*
X120385000Y-142308061D01*
X110660000Y-142308061D01*
X110660000Y-124058686D01*
X111120919Y-124058686D01*
X111457106Y-124527868D01*
X112087068Y-124868237D01*
X112771327Y-125079166D01*
X113483589Y-125152550D01*
X114196482Y-125085569D01*
X114882609Y-124880796D01*
X115515603Y-124546102D01*
X115542894Y-124527868D01*
X115879081Y-124058686D01*
X113500000Y-121679605D01*
X111120919Y-124058686D01*
X110660000Y-124058686D01*
X110660000Y-123677509D01*
X110941314Y-123879081D01*
X113320395Y-121500000D01*
X113679605Y-121500000D01*
X116058686Y-123879081D01*
X116527868Y-123542894D01*
X116868237Y-122912932D01*
X117079166Y-122228673D01*
X117152550Y-121516411D01*
X117085569Y-120803518D01*
X116880796Y-120117391D01*
X116546102Y-119484397D01*
X116527868Y-119457106D01*
X116058686Y-119120919D01*
X113679605Y-121500000D01*
X113320395Y-121500000D01*
X110941314Y-119120919D01*
X110660000Y-119322491D01*
X110660000Y-118941314D01*
X111120919Y-118941314D01*
X113500000Y-121320395D01*
X115879081Y-118941314D01*
X115542894Y-118472132D01*
X114912932Y-118131763D01*
X114228673Y-117920834D01*
X113516411Y-117847450D01*
X112803518Y-117914431D01*
X112117391Y-118119204D01*
X111484397Y-118453898D01*
X111457106Y-118472132D01*
X111120919Y-118941314D01*
X110660000Y-118941314D01*
X110660000Y-116133999D01*
X123981443Y-116133999D01*
X123985000Y-116170114D01*
X123984999Y-122375292D01*
X123981443Y-122411397D01*
X123995634Y-122555481D01*
X124037662Y-122694029D01*
X124105912Y-122821716D01*
X124197761Y-122933634D01*
X124225807Y-122956651D01*
X127213368Y-125944213D01*
X127236384Y-125972258D01*
X127348302Y-126064107D01*
X127475989Y-126132357D01*
X127614537Y-126174385D01*
X127758622Y-126188576D01*
X127794727Y-126185020D01*
X135869271Y-126185020D01*
X135905376Y-126188576D01*
X135941481Y-126185020D01*
X136049461Y-126174385D01*
X136188009Y-126132357D01*
X136315696Y-126064107D01*
X136427614Y-125972258D01*
X136450635Y-125944207D01*
X138336156Y-124058686D01*
X160120919Y-124058686D01*
X160457106Y-124527868D01*
X161087068Y-124868237D01*
X161771327Y-125079166D01*
X162483589Y-125152550D01*
X163196482Y-125085569D01*
X163882609Y-124880796D01*
X164515603Y-124546102D01*
X164542894Y-124527868D01*
X164879081Y-124058686D01*
X162500000Y-121679605D01*
X160120919Y-124058686D01*
X138336156Y-124058686D01*
X140911253Y-121483589D01*
X158847450Y-121483589D01*
X158914431Y-122196482D01*
X159119204Y-122882609D01*
X159453898Y-123515603D01*
X159472132Y-123542894D01*
X159941314Y-123879081D01*
X162320395Y-121500000D01*
X159941314Y-119120919D01*
X159472132Y-119457106D01*
X159131763Y-120087068D01*
X158920834Y-120771327D01*
X158847450Y-121483589D01*
X140911253Y-121483589D01*
X143453528Y-118941314D01*
X160120919Y-118941314D01*
X162500000Y-121320395D01*
X164879081Y-118941314D01*
X164542894Y-118472132D01*
X163912932Y-118131763D01*
X163228673Y-117920834D01*
X162516411Y-117847450D01*
X161803518Y-117914431D01*
X161117391Y-118119204D01*
X160484397Y-118453898D01*
X160457106Y-118472132D01*
X160120919Y-118941314D01*
X143453528Y-118941314D01*
X146016781Y-116378061D01*
X146535000Y-116378061D01*
X146535000Y-116581939D01*
X146574774Y-116781898D01*
X146652795Y-116970256D01*
X146766063Y-117139774D01*
X146910226Y-117283937D01*
X147079744Y-117397205D01*
X147268102Y-117475226D01*
X147468061Y-117515000D01*
X147671939Y-117515000D01*
X147871898Y-117475226D01*
X148060256Y-117397205D01*
X148070000Y-117390694D01*
X148079744Y-117397205D01*
X148268102Y-117475226D01*
X148468061Y-117515000D01*
X148671939Y-117515000D01*
X148871898Y-117475226D01*
X149060256Y-117397205D01*
X149070000Y-117390694D01*
X149079744Y-117397205D01*
X149268102Y-117475226D01*
X149468061Y-117515000D01*
X149671939Y-117515000D01*
X149871898Y-117475226D01*
X150060256Y-117397205D01*
X150070000Y-117390694D01*
X150079744Y-117397205D01*
X150268102Y-117475226D01*
X150468061Y-117515000D01*
X150671939Y-117515000D01*
X150871898Y-117475226D01*
X151060256Y-117397205D01*
X151229774Y-117283937D01*
X151373937Y-117139774D01*
X151487205Y-116970256D01*
X151565226Y-116781898D01*
X151605000Y-116581939D01*
X151605000Y-116378061D01*
X151565226Y-116178102D01*
X151487205Y-115989744D01*
X151373937Y-115820226D01*
X151229774Y-115676063D01*
X151060256Y-115562795D01*
X150871898Y-115484774D01*
X150671939Y-115445000D01*
X150468061Y-115445000D01*
X150268102Y-115484774D01*
X150079744Y-115562795D01*
X150070000Y-115569306D01*
X150060256Y-115562795D01*
X149871898Y-115484774D01*
X149671939Y-115445000D01*
X149468061Y-115445000D01*
X149268102Y-115484774D01*
X149079744Y-115562795D01*
X149070000Y-115569306D01*
X149060256Y-115562795D01*
X148871898Y-115484774D01*
X148671939Y-115445000D01*
X148468061Y-115445000D01*
X148268102Y-115484774D01*
X148079744Y-115562795D01*
X148070000Y-115569306D01*
X148060256Y-115562795D01*
X147871898Y-115484774D01*
X147671939Y-115445000D01*
X147468061Y-115445000D01*
X147268102Y-115484774D01*
X147079744Y-115562795D01*
X146910226Y-115676063D01*
X146766063Y-115820226D01*
X146652795Y-115989744D01*
X146574774Y-116178102D01*
X146535000Y-116378061D01*
X146016781Y-116378061D01*
X153009831Y-109385011D01*
X157175585Y-109385011D01*
X157211690Y-109388567D01*
X157247795Y-109385011D01*
X157355775Y-109374376D01*
X157494323Y-109332348D01*
X157622010Y-109264098D01*
X157733928Y-109172249D01*
X157756948Y-109144199D01*
X158624204Y-108276944D01*
X158652249Y-108253928D01*
X158744098Y-108142010D01*
X158812348Y-108014323D01*
X158854376Y-107875775D01*
X158865011Y-107767795D01*
X158868567Y-107731691D01*
X158865011Y-107695586D01*
X158865011Y-106831890D01*
X162758524Y-106831890D01*
X162803175Y-106979099D01*
X162928359Y-107241920D01*
X163102412Y-107475269D01*
X163318645Y-107670178D01*
X163568748Y-107819157D01*
X163843109Y-107916481D01*
X164073000Y-107795814D01*
X164073000Y-106602000D01*
X162879845Y-106602000D01*
X162758524Y-106831890D01*
X158865011Y-106831890D01*
X158865011Y-82510105D01*
X158868566Y-82474008D01*
X158865011Y-82437911D01*
X158865011Y-82437904D01*
X158854376Y-82329924D01*
X158812348Y-82191376D01*
X158744098Y-82063689D01*
X158685460Y-81992239D01*
X158675264Y-81979815D01*
X158675261Y-81979812D01*
X158652248Y-81951771D01*
X158624208Y-81928759D01*
X155271260Y-78575812D01*
X155248239Y-78547761D01*
X155136321Y-78455912D01*
X155008634Y-78387662D01*
X154870086Y-78345634D01*
X154762106Y-78334999D01*
X154726001Y-78331443D01*
X154689896Y-78334999D01*
X154090104Y-78334999D01*
X154053999Y-78331443D01*
X153909914Y-78345634D01*
X153771365Y-78387662D01*
X153643679Y-78455912D01*
X153531761Y-78547761D01*
X153508740Y-78575812D01*
X153195807Y-78888745D01*
X153167762Y-78911761D01*
X153075913Y-79023679D01*
X153029653Y-79110226D01*
X153007663Y-79151366D01*
X152965634Y-79289914D01*
X152951443Y-79433999D01*
X152955000Y-79470114D01*
X152954999Y-81033894D01*
X152951443Y-81069999D01*
X152963003Y-81187367D01*
X152965634Y-81214083D01*
X153007662Y-81352631D01*
X153075912Y-81480318D01*
X153167761Y-81592236D01*
X153195807Y-81615253D01*
X153355000Y-81774446D01*
X153355000Y-81871939D01*
X153394774Y-82071898D01*
X153472795Y-82260256D01*
X153479306Y-82270000D01*
X153472795Y-82279744D01*
X153394774Y-82468102D01*
X153355000Y-82668061D01*
X153355000Y-82871939D01*
X153394774Y-83071898D01*
X153472795Y-83260256D01*
X153479306Y-83270000D01*
X153472795Y-83279744D01*
X153394774Y-83468102D01*
X153355000Y-83668061D01*
X153355000Y-83735000D01*
X153288061Y-83735000D01*
X153088102Y-83774774D01*
X152899744Y-83852795D01*
X152890000Y-83859306D01*
X152880256Y-83852795D01*
X152691898Y-83774774D01*
X152491939Y-83735000D01*
X152288061Y-83735000D01*
X152088102Y-83774774D01*
X151899744Y-83852795D01*
X151730226Y-83966063D01*
X151586063Y-84110226D01*
X151472795Y-84279744D01*
X151430979Y-84380697D01*
X151403937Y-84340226D01*
X151259774Y-84196063D01*
X151090256Y-84082795D01*
X150901898Y-84004774D01*
X150701939Y-83965000D01*
X150498061Y-83965000D01*
X150298102Y-84004774D01*
X150109744Y-84082795D01*
X149940226Y-84196063D01*
X149796063Y-84340226D01*
X149682795Y-84509744D01*
X149604774Y-84698102D01*
X149565000Y-84898061D01*
X149565000Y-84995554D01*
X149405807Y-85154747D01*
X149394797Y-85163783D01*
X149425000Y-85011939D01*
X149425000Y-84808061D01*
X149385226Y-84608102D01*
X149307205Y-84419744D01*
X149300694Y-84410000D01*
X149307205Y-84400256D01*
X149385226Y-84211898D01*
X149425000Y-84011939D01*
X149425000Y-83808061D01*
X149385226Y-83608102D01*
X149307205Y-83419744D01*
X149193937Y-83250226D01*
X149049774Y-83106063D01*
X148880256Y-82992795D01*
X148691898Y-82914774D01*
X148491939Y-82875000D01*
X148288061Y-82875000D01*
X148088102Y-82914774D01*
X147899744Y-82992795D01*
X147730226Y-83106063D01*
X147586063Y-83250226D01*
X147472795Y-83419744D01*
X147394774Y-83608102D01*
X147355000Y-83808061D01*
X147355000Y-84011939D01*
X147394774Y-84211898D01*
X147472795Y-84400256D01*
X147479306Y-84410000D01*
X147472795Y-84419744D01*
X147394774Y-84608102D01*
X147355000Y-84808061D01*
X147355000Y-85011939D01*
X147394774Y-85211898D01*
X147472795Y-85400256D01*
X147586063Y-85569774D01*
X147730226Y-85713937D01*
X147899744Y-85827205D01*
X148088102Y-85905226D01*
X148288061Y-85945000D01*
X148491939Y-85945000D01*
X148691898Y-85905226D01*
X148880256Y-85827205D01*
X149049774Y-85713937D01*
X149172120Y-85591591D01*
X149161443Y-85700001D01*
X149164999Y-85736106D01*
X149164999Y-86712737D01*
X149090256Y-86662795D01*
X148901898Y-86584774D01*
X148701939Y-86545000D01*
X148498061Y-86545000D01*
X148298102Y-86584774D01*
X148109744Y-86662795D01*
X147940226Y-86776063D01*
X147796063Y-86920226D01*
X147682795Y-87089744D01*
X147604774Y-87278102D01*
X147565000Y-87478061D01*
X147565000Y-87681939D01*
X147604774Y-87881898D01*
X147682795Y-88070256D01*
X147796063Y-88239774D01*
X147940226Y-88383937D01*
X148109744Y-88497205D01*
X148298102Y-88575226D01*
X148498061Y-88615000D01*
X148701939Y-88615000D01*
X148901898Y-88575226D01*
X149090256Y-88497205D01*
X149165000Y-88447263D01*
X149165000Y-90398154D01*
X147255777Y-92307377D01*
X147227731Y-92330394D01*
X147135882Y-92442312D01*
X147067632Y-92569999D01*
X147052002Y-92621525D01*
X147025604Y-92708546D01*
X147011413Y-92852631D01*
X147014969Y-92888736D01*
X147014970Y-102464187D01*
X133744158Y-115735000D01*
X133148711Y-115735000D01*
X133079774Y-115666063D01*
X132910256Y-115552795D01*
X132721898Y-115474774D01*
X132521939Y-115435000D01*
X132318061Y-115435000D01*
X132118102Y-115474774D01*
X131929744Y-115552795D01*
X131920000Y-115559306D01*
X131910256Y-115552795D01*
X131721898Y-115474774D01*
X131521939Y-115435000D01*
X131318061Y-115435000D01*
X131118102Y-115474774D01*
X130929744Y-115552795D01*
X130920000Y-115559306D01*
X130910256Y-115552795D01*
X130721898Y-115474774D01*
X130521939Y-115435000D01*
X130318061Y-115435000D01*
X130118102Y-115474774D01*
X129929744Y-115552795D01*
X129920000Y-115559306D01*
X129910256Y-115552795D01*
X129721898Y-115474774D01*
X129521939Y-115435000D01*
X129318061Y-115435000D01*
X129118102Y-115474774D01*
X128929744Y-115552795D01*
X128920000Y-115559306D01*
X128910256Y-115552795D01*
X128721898Y-115474774D01*
X128521939Y-115435000D01*
X128318061Y-115435000D01*
X128118102Y-115474774D01*
X127929744Y-115552795D01*
X127920000Y-115559306D01*
X127910256Y-115552795D01*
X127721898Y-115474774D01*
X127521939Y-115435000D01*
X127318061Y-115435000D01*
X127118102Y-115474774D01*
X126929744Y-115552795D01*
X126920000Y-115559306D01*
X126910256Y-115552795D01*
X126721898Y-115474774D01*
X126521939Y-115435000D01*
X126424446Y-115435000D01*
X126265258Y-115275812D01*
X126242237Y-115247761D01*
X126130319Y-115155912D01*
X126002632Y-115087662D01*
X125864084Y-115045634D01*
X125756104Y-115034999D01*
X125719999Y-115031443D01*
X125683894Y-115034999D01*
X125120104Y-115034999D01*
X125083999Y-115031443D01*
X124939914Y-115045634D01*
X124801365Y-115087662D01*
X124737523Y-115121787D01*
X124673679Y-115155912D01*
X124561761Y-115247761D01*
X124538740Y-115275812D01*
X124225807Y-115588745D01*
X124197762Y-115611761D01*
X124105913Y-115723679D01*
X124071871Y-115787367D01*
X124037663Y-115851366D01*
X123995634Y-115989914D01*
X123981443Y-116133999D01*
X110660000Y-116133999D01*
X110660000Y-98910617D01*
X112057934Y-98910617D01*
X112102272Y-99239557D01*
X112209931Y-99553527D01*
X112309421Y-99739661D01*
X112407082Y-99776549D01*
X112345506Y-99809463D01*
X112248815Y-99888815D01*
X112169463Y-99985506D01*
X112110498Y-100095820D01*
X112074188Y-100215518D01*
X112061928Y-100340000D01*
X112061928Y-102440000D01*
X112074188Y-102564482D01*
X112110498Y-102684180D01*
X112169463Y-102794494D01*
X112248815Y-102891185D01*
X112345506Y-102970537D01*
X112455820Y-103029502D01*
X112575518Y-103065812D01*
X112700000Y-103078072D01*
X114800000Y-103078072D01*
X114924482Y-103065812D01*
X115044180Y-103029502D01*
X115154494Y-102970537D01*
X115251185Y-102891185D01*
X115330537Y-102794494D01*
X115371740Y-102717408D01*
X119973000Y-102717408D01*
X119973000Y-102992592D01*
X120026686Y-103262490D01*
X120131995Y-103516727D01*
X120284880Y-103745535D01*
X120479465Y-103940120D01*
X120708273Y-104093005D01*
X120962510Y-104198314D01*
X121232408Y-104252000D01*
X121507592Y-104252000D01*
X121777490Y-104198314D01*
X122031727Y-104093005D01*
X122260535Y-103940120D01*
X122455120Y-103745535D01*
X122608005Y-103516727D01*
X122713314Y-103262490D01*
X122767000Y-102992592D01*
X122767000Y-102717408D01*
X127593000Y-102717408D01*
X127593000Y-102992592D01*
X127646686Y-103262490D01*
X127751995Y-103516727D01*
X127904880Y-103745535D01*
X128099465Y-103940120D01*
X128328273Y-104093005D01*
X128582510Y-104198314D01*
X128852408Y-104252000D01*
X129127592Y-104252000D01*
X129397490Y-104198314D01*
X129651727Y-104093005D01*
X129880535Y-103940120D01*
X130075120Y-103745535D01*
X130228005Y-103516727D01*
X130333314Y-103262490D01*
X130387000Y-102992592D01*
X130387000Y-102717408D01*
X135213000Y-102717408D01*
X135213000Y-102992592D01*
X135266686Y-103262490D01*
X135371995Y-103516727D01*
X135524880Y-103745535D01*
X135719465Y-103940120D01*
X135948273Y-104093005D01*
X136202510Y-104198314D01*
X136472408Y-104252000D01*
X136747592Y-104252000D01*
X137017490Y-104198314D01*
X137271727Y-104093005D01*
X137500535Y-103940120D01*
X137695120Y-103745535D01*
X137848005Y-103516727D01*
X137880000Y-103439485D01*
X137911995Y-103516727D01*
X138064880Y-103745535D01*
X138259465Y-103940120D01*
X138488273Y-104093005D01*
X138742510Y-104198314D01*
X139012408Y-104252000D01*
X139287592Y-104252000D01*
X139557490Y-104198314D01*
X139811727Y-104093005D01*
X140040535Y-103940120D01*
X140235120Y-103745535D01*
X140388005Y-103516727D01*
X140493314Y-103262490D01*
X140547000Y-102992592D01*
X140547000Y-102717408D01*
X140493314Y-102447510D01*
X140388005Y-102193273D01*
X140235120Y-101964465D01*
X140040535Y-101769880D01*
X139811727Y-101616995D01*
X139557490Y-101511686D01*
X139287592Y-101458000D01*
X139012408Y-101458000D01*
X138742510Y-101511686D01*
X138488273Y-101616995D01*
X138259465Y-101769880D01*
X138064880Y-101964465D01*
X137911995Y-102193273D01*
X137880000Y-102270515D01*
X137848005Y-102193273D01*
X137695120Y-101964465D01*
X137500535Y-101769880D01*
X137271727Y-101616995D01*
X137017490Y-101511686D01*
X136747592Y-101458000D01*
X136472408Y-101458000D01*
X136202510Y-101511686D01*
X135948273Y-101616995D01*
X135719465Y-101769880D01*
X135524880Y-101964465D01*
X135371995Y-102193273D01*
X135266686Y-102447510D01*
X135213000Y-102717408D01*
X130387000Y-102717408D01*
X130333314Y-102447510D01*
X130228005Y-102193273D01*
X130075120Y-101964465D01*
X129880535Y-101769880D01*
X129651727Y-101616995D01*
X129397490Y-101511686D01*
X129127592Y-101458000D01*
X128852408Y-101458000D01*
X128582510Y-101511686D01*
X128328273Y-101616995D01*
X128099465Y-101769880D01*
X127904880Y-101964465D01*
X127751995Y-102193273D01*
X127646686Y-102447510D01*
X127593000Y-102717408D01*
X122767000Y-102717408D01*
X122713314Y-102447510D01*
X122608005Y-102193273D01*
X122455120Y-101964465D01*
X122260535Y-101769880D01*
X122031727Y-101616995D01*
X121777490Y-101511686D01*
X121507592Y-101458000D01*
X121232408Y-101458000D01*
X120962510Y-101511686D01*
X120708273Y-101616995D01*
X120479465Y-101769880D01*
X120284880Y-101964465D01*
X120131995Y-102193273D01*
X120026686Y-102447510D01*
X119973000Y-102717408D01*
X115371740Y-102717408D01*
X115389502Y-102684180D01*
X115425812Y-102564482D01*
X115438072Y-102440000D01*
X115438072Y-100340000D01*
X115425812Y-100215518D01*
X115389502Y-100095820D01*
X115330537Y-99985506D01*
X115251185Y-99888815D01*
X115154494Y-99809463D01*
X115092918Y-99776549D01*
X115190579Y-99739661D01*
X115336463Y-99441523D01*
X115421380Y-99120654D01*
X115442066Y-98789383D01*
X115397728Y-98460443D01*
X115290069Y-98146473D01*
X115190579Y-97960339D01*
X114921066Y-97858539D01*
X113929605Y-98850000D01*
X113943748Y-98864143D01*
X113764143Y-99043748D01*
X113750000Y-99029605D01*
X113735858Y-99043748D01*
X113556253Y-98864143D01*
X113570395Y-98850000D01*
X112578934Y-97858539D01*
X112309421Y-97960339D01*
X112163537Y-98258477D01*
X112078620Y-98579346D01*
X112057934Y-98910617D01*
X110660000Y-98910617D01*
X110660000Y-96144042D01*
X112065000Y-96144042D01*
X112065000Y-96475958D01*
X112129754Y-96801496D01*
X112256772Y-97108147D01*
X112441175Y-97384125D01*
X112675875Y-97618825D01*
X112760009Y-97675042D01*
X112758539Y-97678934D01*
X113750000Y-98670395D01*
X114741461Y-97678934D01*
X114739991Y-97675042D01*
X114824125Y-97618825D01*
X115058825Y-97384125D01*
X115243228Y-97108147D01*
X115370246Y-96801496D01*
X115397912Y-96662408D01*
X119973000Y-96662408D01*
X119973000Y-96937592D01*
X120026686Y-97207490D01*
X120131995Y-97461727D01*
X120284880Y-97690535D01*
X120479465Y-97885120D01*
X120708273Y-98038005D01*
X120962510Y-98143314D01*
X121232408Y-98197000D01*
X121507592Y-98197000D01*
X121777490Y-98143314D01*
X122031727Y-98038005D01*
X122260535Y-97885120D01*
X122455120Y-97690535D01*
X122608005Y-97461727D01*
X122713314Y-97207490D01*
X122767000Y-96937592D01*
X122767000Y-96662408D01*
X127593000Y-96662408D01*
X127593000Y-96937592D01*
X127646686Y-97207490D01*
X127751995Y-97461727D01*
X127904880Y-97690535D01*
X128099465Y-97885120D01*
X128328273Y-98038005D01*
X128582510Y-98143314D01*
X128852408Y-98197000D01*
X129127592Y-98197000D01*
X129397490Y-98143314D01*
X129651727Y-98038005D01*
X129880535Y-97885120D01*
X130075120Y-97690535D01*
X130228005Y-97461727D01*
X130333314Y-97207490D01*
X130387000Y-96937592D01*
X130387000Y-96662408D01*
X135213000Y-96662408D01*
X135213000Y-96937592D01*
X135266686Y-97207490D01*
X135371995Y-97461727D01*
X135524880Y-97690535D01*
X135719465Y-97885120D01*
X135948273Y-98038005D01*
X136202510Y-98143314D01*
X136472408Y-98197000D01*
X136747592Y-98197000D01*
X137017490Y-98143314D01*
X137271727Y-98038005D01*
X137500535Y-97885120D01*
X137695120Y-97690535D01*
X137848005Y-97461727D01*
X137880000Y-97384485D01*
X137911995Y-97461727D01*
X138064880Y-97690535D01*
X138259465Y-97885120D01*
X138488273Y-98038005D01*
X138742510Y-98143314D01*
X139012408Y-98197000D01*
X139287592Y-98197000D01*
X139557490Y-98143314D01*
X139811727Y-98038005D01*
X140040535Y-97885120D01*
X140235120Y-97690535D01*
X140388005Y-97461727D01*
X140493314Y-97207490D01*
X140547000Y-96937592D01*
X140547000Y-96662408D01*
X140493314Y-96392510D01*
X140388005Y-96138273D01*
X140235120Y-95909465D01*
X140040535Y-95714880D01*
X139811727Y-95561995D01*
X139557490Y-95456686D01*
X139287592Y-95403000D01*
X139012408Y-95403000D01*
X138742510Y-95456686D01*
X138488273Y-95561995D01*
X138259465Y-95714880D01*
X138064880Y-95909465D01*
X137911995Y-96138273D01*
X137880000Y-96215515D01*
X137848005Y-96138273D01*
X137695120Y-95909465D01*
X137500535Y-95714880D01*
X137271727Y-95561995D01*
X137017490Y-95456686D01*
X136747592Y-95403000D01*
X136472408Y-95403000D01*
X136202510Y-95456686D01*
X135948273Y-95561995D01*
X135719465Y-95714880D01*
X135524880Y-95909465D01*
X135371995Y-96138273D01*
X135266686Y-96392510D01*
X135213000Y-96662408D01*
X130387000Y-96662408D01*
X130333314Y-96392510D01*
X130228005Y-96138273D01*
X130075120Y-95909465D01*
X129880535Y-95714880D01*
X129651727Y-95561995D01*
X129397490Y-95456686D01*
X129127592Y-95403000D01*
X128852408Y-95403000D01*
X128582510Y-95456686D01*
X128328273Y-95561995D01*
X128099465Y-95714880D01*
X127904880Y-95909465D01*
X127751995Y-96138273D01*
X127646686Y-96392510D01*
X127593000Y-96662408D01*
X122767000Y-96662408D01*
X122713314Y-96392510D01*
X122608005Y-96138273D01*
X122455120Y-95909465D01*
X122260535Y-95714880D01*
X122031727Y-95561995D01*
X121777490Y-95456686D01*
X121507592Y-95403000D01*
X121232408Y-95403000D01*
X120962510Y-95456686D01*
X120708273Y-95561995D01*
X120479465Y-95714880D01*
X120284880Y-95909465D01*
X120131995Y-96138273D01*
X120026686Y-96392510D01*
X119973000Y-96662408D01*
X115397912Y-96662408D01*
X115435000Y-96475958D01*
X115435000Y-96144042D01*
X115370246Y-95818504D01*
X115243228Y-95511853D01*
X115058825Y-95235875D01*
X114824125Y-95001175D01*
X114739991Y-94944958D01*
X114741461Y-94941066D01*
X113750000Y-93949605D01*
X112758539Y-94941066D01*
X112760009Y-94944958D01*
X112675875Y-95001175D01*
X112441175Y-95235875D01*
X112256772Y-95511853D01*
X112129754Y-95818504D01*
X112065000Y-96144042D01*
X110660000Y-96144042D01*
X110660000Y-93830617D01*
X112057934Y-93830617D01*
X112102272Y-94159557D01*
X112209931Y-94473527D01*
X112309421Y-94659661D01*
X112578934Y-94761461D01*
X113570395Y-93770000D01*
X113929605Y-93770000D01*
X114921066Y-94761461D01*
X115190579Y-94659661D01*
X115336463Y-94361523D01*
X115421380Y-94040654D01*
X115442066Y-93709383D01*
X115397728Y-93380443D01*
X115290069Y-93066473D01*
X115190579Y-92880339D01*
X114921066Y-92778539D01*
X113929605Y-93770000D01*
X113570395Y-93770000D01*
X112578934Y-92778539D01*
X112309421Y-92880339D01*
X112163537Y-93178477D01*
X112078620Y-93499346D01*
X112057934Y-93830617D01*
X110660000Y-93830617D01*
X110660000Y-91064042D01*
X112065000Y-91064042D01*
X112065000Y-91395958D01*
X112129754Y-91721496D01*
X112256772Y-92028147D01*
X112441175Y-92304125D01*
X112675875Y-92538825D01*
X112760009Y-92595042D01*
X112758539Y-92598934D01*
X113750000Y-93590395D01*
X114741461Y-92598934D01*
X114739991Y-92595042D01*
X114824125Y-92538825D01*
X115058825Y-92304125D01*
X115243228Y-92028147D01*
X115370246Y-91721496D01*
X115435000Y-91395958D01*
X115435000Y-91064042D01*
X115370246Y-90738504D01*
X115318016Y-90612408D01*
X119973000Y-90612408D01*
X119973000Y-90887592D01*
X120026686Y-91157490D01*
X120131995Y-91411727D01*
X120284880Y-91640535D01*
X120479465Y-91835120D01*
X120708273Y-91988005D01*
X120962510Y-92093314D01*
X121232408Y-92147000D01*
X121507592Y-92147000D01*
X121777490Y-92093314D01*
X122031727Y-91988005D01*
X122260535Y-91835120D01*
X122455120Y-91640535D01*
X122608005Y-91411727D01*
X122713314Y-91157490D01*
X122767000Y-90887592D01*
X122767000Y-90612408D01*
X127593000Y-90612408D01*
X127593000Y-90887592D01*
X127646686Y-91157490D01*
X127751995Y-91411727D01*
X127904880Y-91640535D01*
X128099465Y-91835120D01*
X128328273Y-91988005D01*
X128582510Y-92093314D01*
X128852408Y-92147000D01*
X129127592Y-92147000D01*
X129397490Y-92093314D01*
X129651727Y-91988005D01*
X129880535Y-91835120D01*
X130075120Y-91640535D01*
X130228005Y-91411727D01*
X130333314Y-91157490D01*
X130387000Y-90887592D01*
X130387000Y-90612408D01*
X135213000Y-90612408D01*
X135213000Y-90887592D01*
X135266686Y-91157490D01*
X135371995Y-91411727D01*
X135524880Y-91640535D01*
X135719465Y-91835120D01*
X135948273Y-91988005D01*
X136202510Y-92093314D01*
X136472408Y-92147000D01*
X136747592Y-92147000D01*
X137017490Y-92093314D01*
X137271727Y-91988005D01*
X137500535Y-91835120D01*
X137695120Y-91640535D01*
X137848005Y-91411727D01*
X137880000Y-91334485D01*
X137911995Y-91411727D01*
X138064880Y-91640535D01*
X138259465Y-91835120D01*
X138488273Y-91988005D01*
X138742510Y-92093314D01*
X139012408Y-92147000D01*
X139287592Y-92147000D01*
X139557490Y-92093314D01*
X139811727Y-91988005D01*
X140040535Y-91835120D01*
X140235120Y-91640535D01*
X140388005Y-91411727D01*
X140493314Y-91157490D01*
X140547000Y-90887592D01*
X140547000Y-90612408D01*
X140493314Y-90342510D01*
X140388005Y-90088273D01*
X140235120Y-89859465D01*
X140040535Y-89664880D01*
X139811727Y-89511995D01*
X139557490Y-89406686D01*
X139287592Y-89353000D01*
X139012408Y-89353000D01*
X138742510Y-89406686D01*
X138488273Y-89511995D01*
X138259465Y-89664880D01*
X138064880Y-89859465D01*
X137911995Y-90088273D01*
X137880000Y-90165515D01*
X137848005Y-90088273D01*
X137695120Y-89859465D01*
X137500535Y-89664880D01*
X137271727Y-89511995D01*
X137017490Y-89406686D01*
X136747592Y-89353000D01*
X136472408Y-89353000D01*
X136202510Y-89406686D01*
X135948273Y-89511995D01*
X135719465Y-89664880D01*
X135524880Y-89859465D01*
X135371995Y-90088273D01*
X135266686Y-90342510D01*
X135213000Y-90612408D01*
X130387000Y-90612408D01*
X130333314Y-90342510D01*
X130228005Y-90088273D01*
X130075120Y-89859465D01*
X129880535Y-89664880D01*
X129651727Y-89511995D01*
X129397490Y-89406686D01*
X129127592Y-89353000D01*
X128852408Y-89353000D01*
X128582510Y-89406686D01*
X128328273Y-89511995D01*
X128099465Y-89664880D01*
X127904880Y-89859465D01*
X127751995Y-90088273D01*
X127646686Y-90342510D01*
X127593000Y-90612408D01*
X122767000Y-90612408D01*
X122713314Y-90342510D01*
X122608005Y-90088273D01*
X122455120Y-89859465D01*
X122260535Y-89664880D01*
X122031727Y-89511995D01*
X121777490Y-89406686D01*
X121507592Y-89353000D01*
X121232408Y-89353000D01*
X120962510Y-89406686D01*
X120708273Y-89511995D01*
X120479465Y-89664880D01*
X120284880Y-89859465D01*
X120131995Y-90088273D01*
X120026686Y-90342510D01*
X119973000Y-90612408D01*
X115318016Y-90612408D01*
X115243228Y-90431853D01*
X115058825Y-90155875D01*
X114824125Y-89921175D01*
X114739991Y-89864958D01*
X114741461Y-89861066D01*
X113750000Y-88869605D01*
X112758539Y-89861066D01*
X112760009Y-89864958D01*
X112675875Y-89921175D01*
X112441175Y-90155875D01*
X112256772Y-90431853D01*
X112129754Y-90738504D01*
X112065000Y-91064042D01*
X110660000Y-91064042D01*
X110660000Y-88750617D01*
X112057934Y-88750617D01*
X112102272Y-89079557D01*
X112209931Y-89393527D01*
X112309421Y-89579661D01*
X112578934Y-89681461D01*
X113570395Y-88690000D01*
X113929605Y-88690000D01*
X114921066Y-89681461D01*
X115190579Y-89579661D01*
X115336463Y-89281523D01*
X115421380Y-88960654D01*
X115442066Y-88629383D01*
X115397728Y-88300443D01*
X115290069Y-87986473D01*
X115190579Y-87800339D01*
X114921066Y-87698539D01*
X113929605Y-88690000D01*
X113570395Y-88690000D01*
X112578934Y-87698539D01*
X112309421Y-87800339D01*
X112163537Y-88098477D01*
X112078620Y-88419346D01*
X112057934Y-88750617D01*
X110660000Y-88750617D01*
X110660000Y-85984042D01*
X112065000Y-85984042D01*
X112065000Y-86315958D01*
X112129754Y-86641496D01*
X112256772Y-86948147D01*
X112441175Y-87224125D01*
X112675875Y-87458825D01*
X112760009Y-87515042D01*
X112758539Y-87518934D01*
X113750000Y-88510395D01*
X114741461Y-87518934D01*
X114739991Y-87515042D01*
X114824125Y-87458825D01*
X115058825Y-87224125D01*
X115243228Y-86948147D01*
X115370246Y-86641496D01*
X115435000Y-86315958D01*
X115435000Y-85984042D01*
X115370246Y-85658504D01*
X115243228Y-85351853D01*
X115058825Y-85075875D01*
X114824125Y-84841175D01*
X114739991Y-84784958D01*
X114741461Y-84781066D01*
X113750000Y-83789605D01*
X112758539Y-84781066D01*
X112760009Y-84784958D01*
X112675875Y-84841175D01*
X112441175Y-85075875D01*
X112256772Y-85351853D01*
X112129754Y-85658504D01*
X112065000Y-85984042D01*
X110660000Y-85984042D01*
X110660000Y-83670617D01*
X112057934Y-83670617D01*
X112102272Y-83999557D01*
X112209931Y-84313527D01*
X112309421Y-84499661D01*
X112578934Y-84601461D01*
X113570395Y-83610000D01*
X113929605Y-83610000D01*
X114921066Y-84601461D01*
X115024457Y-84562408D01*
X119973000Y-84562408D01*
X119973000Y-84837592D01*
X120026686Y-85107490D01*
X120131995Y-85361727D01*
X120284880Y-85590535D01*
X120479465Y-85785120D01*
X120708273Y-85938005D01*
X120962510Y-86043314D01*
X121232408Y-86097000D01*
X121507592Y-86097000D01*
X121777490Y-86043314D01*
X122031727Y-85938005D01*
X122260535Y-85785120D01*
X122455120Y-85590535D01*
X122608005Y-85361727D01*
X122713314Y-85107490D01*
X122767000Y-84837592D01*
X122767000Y-84562408D01*
X127593000Y-84562408D01*
X127593000Y-84837592D01*
X127646686Y-85107490D01*
X127751995Y-85361727D01*
X127904880Y-85590535D01*
X128099465Y-85785120D01*
X128328273Y-85938005D01*
X128582510Y-86043314D01*
X128852408Y-86097000D01*
X129127592Y-86097000D01*
X129397490Y-86043314D01*
X129651727Y-85938005D01*
X129880535Y-85785120D01*
X130075120Y-85590535D01*
X130228005Y-85361727D01*
X130333314Y-85107490D01*
X130387000Y-84837592D01*
X130387000Y-84562408D01*
X135213000Y-84562408D01*
X135213000Y-84837592D01*
X135266686Y-85107490D01*
X135371995Y-85361727D01*
X135524880Y-85590535D01*
X135719465Y-85785120D01*
X135948273Y-85938005D01*
X136202510Y-86043314D01*
X136472408Y-86097000D01*
X136747592Y-86097000D01*
X137017490Y-86043314D01*
X137271727Y-85938005D01*
X137500535Y-85785120D01*
X137695120Y-85590535D01*
X137848005Y-85361727D01*
X137880000Y-85284485D01*
X137911995Y-85361727D01*
X138064880Y-85590535D01*
X138259465Y-85785120D01*
X138488273Y-85938005D01*
X138742510Y-86043314D01*
X139012408Y-86097000D01*
X139287592Y-86097000D01*
X139557490Y-86043314D01*
X139811727Y-85938005D01*
X140040535Y-85785120D01*
X140235120Y-85590535D01*
X140388005Y-85361727D01*
X140493314Y-85107490D01*
X140547000Y-84837592D01*
X140547000Y-84562408D01*
X140493314Y-84292510D01*
X140388005Y-84038273D01*
X140235120Y-83809465D01*
X140040535Y-83614880D01*
X139811727Y-83461995D01*
X139557490Y-83356686D01*
X139287592Y-83303000D01*
X139012408Y-83303000D01*
X138742510Y-83356686D01*
X138488273Y-83461995D01*
X138259465Y-83614880D01*
X138064880Y-83809465D01*
X137911995Y-84038273D01*
X137880000Y-84115515D01*
X137848005Y-84038273D01*
X137695120Y-83809465D01*
X137500535Y-83614880D01*
X137271727Y-83461995D01*
X137017490Y-83356686D01*
X136747592Y-83303000D01*
X136472408Y-83303000D01*
X136202510Y-83356686D01*
X135948273Y-83461995D01*
X135719465Y-83614880D01*
X135524880Y-83809465D01*
X135371995Y-84038273D01*
X135266686Y-84292510D01*
X135213000Y-84562408D01*
X130387000Y-84562408D01*
X130333314Y-84292510D01*
X130228005Y-84038273D01*
X130075120Y-83809465D01*
X129880535Y-83614880D01*
X129651727Y-83461995D01*
X129397490Y-83356686D01*
X129127592Y-83303000D01*
X128852408Y-83303000D01*
X128582510Y-83356686D01*
X128328273Y-83461995D01*
X128099465Y-83614880D01*
X127904880Y-83809465D01*
X127751995Y-84038273D01*
X127646686Y-84292510D01*
X127593000Y-84562408D01*
X122767000Y-84562408D01*
X122713314Y-84292510D01*
X122608005Y-84038273D01*
X122455120Y-83809465D01*
X122260535Y-83614880D01*
X122031727Y-83461995D01*
X121777490Y-83356686D01*
X121507592Y-83303000D01*
X121232408Y-83303000D01*
X120962510Y-83356686D01*
X120708273Y-83461995D01*
X120479465Y-83614880D01*
X120284880Y-83809465D01*
X120131995Y-84038273D01*
X120026686Y-84292510D01*
X119973000Y-84562408D01*
X115024457Y-84562408D01*
X115190579Y-84499661D01*
X115336463Y-84201523D01*
X115421380Y-83880654D01*
X115442066Y-83549383D01*
X115397728Y-83220443D01*
X115290069Y-82906473D01*
X115190579Y-82720339D01*
X114921066Y-82618539D01*
X113929605Y-83610000D01*
X113570395Y-83610000D01*
X112578934Y-82618539D01*
X112309421Y-82720339D01*
X112163537Y-83018477D01*
X112078620Y-83339346D01*
X112057934Y-83670617D01*
X110660000Y-83670617D01*
X110660000Y-82438934D01*
X112758539Y-82438934D01*
X113750000Y-83430395D01*
X114741461Y-82438934D01*
X114639661Y-82169421D01*
X114341523Y-82023537D01*
X114020654Y-81938620D01*
X113689383Y-81917934D01*
X113360443Y-81962272D01*
X113046473Y-82069931D01*
X112860339Y-82169421D01*
X112758539Y-82438934D01*
X110660000Y-82438934D01*
X110660000Y-78835561D01*
X143027500Y-78835561D01*
X143027500Y-79039439D01*
X143067274Y-79239398D01*
X143145295Y-79427756D01*
X143258563Y-79597274D01*
X143402726Y-79741437D01*
X143572244Y-79854705D01*
X143760602Y-79932726D01*
X143960561Y-79972500D01*
X144164439Y-79972500D01*
X144364398Y-79932726D01*
X144552756Y-79854705D01*
X144722274Y-79741437D01*
X144866437Y-79597274D01*
X144979705Y-79427756D01*
X145057726Y-79239398D01*
X145097500Y-79039439D01*
X145097500Y-78835561D01*
X145066172Y-78678061D01*
X147145000Y-78678061D01*
X147145000Y-78881939D01*
X147184774Y-79081898D01*
X147262795Y-79270256D01*
X147269306Y-79280000D01*
X147262795Y-79289744D01*
X147184774Y-79478102D01*
X147145000Y-79678061D01*
X147145000Y-79881939D01*
X147184774Y-80081898D01*
X147262795Y-80270256D01*
X147376063Y-80439774D01*
X147520226Y-80583937D01*
X147689744Y-80697205D01*
X147878102Y-80775226D01*
X148078061Y-80815000D01*
X148281939Y-80815000D01*
X148481898Y-80775226D01*
X148670256Y-80697205D01*
X148839774Y-80583937D01*
X148983937Y-80439774D01*
X149097205Y-80270256D01*
X149175226Y-80081898D01*
X149215000Y-79881939D01*
X149215000Y-79815000D01*
X149281939Y-79815000D01*
X149481898Y-79775226D01*
X149670256Y-79697205D01*
X149680000Y-79690694D01*
X149689744Y-79697205D01*
X149878102Y-79775226D01*
X150078061Y-79815000D01*
X150281939Y-79815000D01*
X150481898Y-79775226D01*
X150670256Y-79697205D01*
X150839774Y-79583937D01*
X150983937Y-79439774D01*
X151097205Y-79270256D01*
X151175226Y-79081898D01*
X151215000Y-78881939D01*
X151215000Y-78678061D01*
X151175226Y-78478102D01*
X151097205Y-78289744D01*
X150983937Y-78120226D01*
X150839774Y-77976063D01*
X150670256Y-77862795D01*
X150481898Y-77784774D01*
X150281939Y-77745000D01*
X150078061Y-77745000D01*
X149878102Y-77784774D01*
X149689744Y-77862795D01*
X149680000Y-77869306D01*
X149670256Y-77862795D01*
X149481898Y-77784774D01*
X149281939Y-77745000D01*
X149078061Y-77745000D01*
X148878102Y-77784774D01*
X148689744Y-77862795D01*
X148680000Y-77869306D01*
X148670256Y-77862795D01*
X148481898Y-77784774D01*
X148281939Y-77745000D01*
X148078061Y-77745000D01*
X147878102Y-77784774D01*
X147689744Y-77862795D01*
X147520226Y-77976063D01*
X147376063Y-78120226D01*
X147262795Y-78289744D01*
X147184774Y-78478102D01*
X147145000Y-78678061D01*
X145066172Y-78678061D01*
X145057726Y-78635602D01*
X144979705Y-78447244D01*
X144866437Y-78277726D01*
X144722274Y-78133563D01*
X144552756Y-78020295D01*
X144364398Y-77942274D01*
X144164439Y-77902500D01*
X143960561Y-77902500D01*
X143760602Y-77942274D01*
X143572244Y-78020295D01*
X143402726Y-78133563D01*
X143258563Y-78277726D01*
X143145295Y-78447244D01*
X143067274Y-78635602D01*
X143027500Y-78835561D01*
X110660000Y-78835561D01*
X110660000Y-76748061D01*
X145505000Y-76748061D01*
X145505000Y-76951939D01*
X145544774Y-77151898D01*
X145622795Y-77340256D01*
X145736063Y-77509774D01*
X145880226Y-77653937D01*
X146049744Y-77767205D01*
X146238102Y-77845226D01*
X146438061Y-77885000D01*
X146641939Y-77885000D01*
X146841898Y-77845226D01*
X147030256Y-77767205D01*
X147199774Y-77653937D01*
X147343937Y-77509774D01*
X147457205Y-77340256D01*
X147535226Y-77151898D01*
X147575000Y-76951939D01*
X147575000Y-76748061D01*
X147535226Y-76548102D01*
X147457205Y-76359744D01*
X147343937Y-76190226D01*
X147199774Y-76046063D01*
X147030256Y-75932795D01*
X146841898Y-75854774D01*
X146641939Y-75815000D01*
X146438061Y-75815000D01*
X146238102Y-75854774D01*
X146049744Y-75932795D01*
X145880226Y-76046063D01*
X145736063Y-76190226D01*
X145622795Y-76359744D01*
X145544774Y-76548102D01*
X145505000Y-76748061D01*
X110660000Y-76748061D01*
X110660000Y-70652374D01*
X119605000Y-70652374D01*
X119605000Y-71027626D01*
X119678209Y-71395668D01*
X119821811Y-71742356D01*
X120030290Y-72054366D01*
X120295634Y-72319710D01*
X120607644Y-72528189D01*
X120954332Y-72671791D01*
X121322374Y-72745000D01*
X121697626Y-72745000D01*
X122065668Y-72671791D01*
X122326071Y-72563929D01*
X122218209Y-72824332D01*
X122145000Y-73192374D01*
X122145000Y-73567626D01*
X122218209Y-73935668D01*
X122361811Y-74282356D01*
X122570290Y-74594366D01*
X122835634Y-74859710D01*
X123147644Y-75068189D01*
X123494332Y-75211791D01*
X123862374Y-75285000D01*
X124237626Y-75285000D01*
X124605668Y-75211791D01*
X124952356Y-75068189D01*
X125264366Y-74859710D01*
X125416224Y-74707852D01*
X127981753Y-74707852D01*
X128110076Y-74999871D01*
X128445695Y-75167723D01*
X128807611Y-75266874D01*
X129181916Y-75293514D01*
X129554227Y-75246618D01*
X129910235Y-75127988D01*
X130149924Y-74999871D01*
X130278247Y-74707852D01*
X133061753Y-74707852D01*
X133190076Y-74999871D01*
X133525695Y-75167723D01*
X133887611Y-75266874D01*
X134261916Y-75293514D01*
X134634227Y-75246618D01*
X134990235Y-75127988D01*
X135229924Y-74999871D01*
X135358247Y-74707852D01*
X134210000Y-73559605D01*
X133061753Y-74707852D01*
X130278247Y-74707852D01*
X129130000Y-73559605D01*
X127981753Y-74707852D01*
X125416224Y-74707852D01*
X125529710Y-74594366D01*
X125738189Y-74282356D01*
X125881791Y-73935668D01*
X125955000Y-73567626D01*
X125955000Y-73431916D01*
X127216486Y-73431916D01*
X127263382Y-73804227D01*
X127382012Y-74160235D01*
X127510129Y-74399924D01*
X127802148Y-74528247D01*
X128950395Y-73380000D01*
X129309605Y-73380000D01*
X130457852Y-74528247D01*
X130749871Y-74399924D01*
X130917723Y-74064305D01*
X131016874Y-73702389D01*
X131036124Y-73431916D01*
X132296486Y-73431916D01*
X132343382Y-73804227D01*
X132462012Y-74160235D01*
X132590129Y-74399924D01*
X132882148Y-74528247D01*
X134030395Y-73380000D01*
X134389605Y-73380000D01*
X135537852Y-74528247D01*
X135829871Y-74399924D01*
X135997723Y-74064305D01*
X136096874Y-73702389D01*
X136123514Y-73328084D01*
X136106421Y-73192374D01*
X137385000Y-73192374D01*
X137385000Y-73567626D01*
X137458209Y-73935668D01*
X137601811Y-74282356D01*
X137810290Y-74594366D01*
X138075634Y-74859710D01*
X138387644Y-75068189D01*
X138734332Y-75211791D01*
X139102374Y-75285000D01*
X139477626Y-75285000D01*
X139845668Y-75211791D01*
X140192356Y-75068189D01*
X140504366Y-74859710D01*
X140769710Y-74594366D01*
X140978189Y-74282356D01*
X141121791Y-73935668D01*
X141195000Y-73567626D01*
X141195000Y-73192374D01*
X141121791Y-72824332D01*
X141013929Y-72563929D01*
X141274332Y-72671791D01*
X141642374Y-72745000D01*
X142017626Y-72745000D01*
X142385668Y-72671791D01*
X142732356Y-72528189D01*
X143044366Y-72319710D01*
X143309710Y-72054366D01*
X143518189Y-71742356D01*
X143661791Y-71395668D01*
X143735000Y-71027626D01*
X143735000Y-70698061D01*
X145185000Y-70698061D01*
X145185000Y-70901939D01*
X145224774Y-71101898D01*
X145302795Y-71290256D01*
X145416063Y-71459774D01*
X145560226Y-71603937D01*
X145729744Y-71717205D01*
X145918102Y-71795226D01*
X146118061Y-71835000D01*
X146321939Y-71835000D01*
X146521898Y-71795226D01*
X146710256Y-71717205D01*
X146879774Y-71603937D01*
X147023937Y-71459774D01*
X147137205Y-71290256D01*
X147170000Y-71211082D01*
X147202795Y-71290256D01*
X147316063Y-71459774D01*
X147460226Y-71603937D01*
X147629744Y-71717205D01*
X147818102Y-71795226D01*
X148018061Y-71835000D01*
X148221939Y-71835000D01*
X148421898Y-71795226D01*
X148610256Y-71717205D01*
X148779774Y-71603937D01*
X148923937Y-71459774D01*
X149037205Y-71290256D01*
X149115226Y-71101898D01*
X149155000Y-70901939D01*
X149155000Y-70698061D01*
X149115226Y-70498102D01*
X149037205Y-70309744D01*
X148923937Y-70140226D01*
X148779774Y-69996063D01*
X148610256Y-69882795D01*
X148421898Y-69804774D01*
X148221939Y-69765000D01*
X148018061Y-69765000D01*
X147818102Y-69804774D01*
X147629744Y-69882795D01*
X147460226Y-69996063D01*
X147316063Y-70140226D01*
X147202795Y-70309744D01*
X147170000Y-70388918D01*
X147137205Y-70309744D01*
X147023937Y-70140226D01*
X146879774Y-69996063D01*
X146710256Y-69882795D01*
X146521898Y-69804774D01*
X146321939Y-69765000D01*
X146118061Y-69765000D01*
X145918102Y-69804774D01*
X145729744Y-69882795D01*
X145560226Y-69996063D01*
X145416063Y-70140226D01*
X145302795Y-70309744D01*
X145224774Y-70498102D01*
X145185000Y-70698061D01*
X143735000Y-70698061D01*
X143735000Y-70652374D01*
X143661791Y-70284332D01*
X143518189Y-69937644D01*
X143309710Y-69625634D01*
X143044366Y-69360290D01*
X142732356Y-69151811D01*
X142385668Y-69008209D01*
X142017626Y-68935000D01*
X141642374Y-68935000D01*
X141274332Y-69008209D01*
X140927644Y-69151811D01*
X140615634Y-69360290D01*
X140350290Y-69625634D01*
X140141811Y-69937644D01*
X139998209Y-70284332D01*
X139925000Y-70652374D01*
X139925000Y-71027626D01*
X139998209Y-71395668D01*
X140106071Y-71656071D01*
X139845668Y-71548209D01*
X139477626Y-71475000D01*
X139102374Y-71475000D01*
X138734332Y-71548209D01*
X138387644Y-71691811D01*
X138075634Y-71900290D01*
X137810290Y-72165634D01*
X137601811Y-72477644D01*
X137458209Y-72824332D01*
X137385000Y-73192374D01*
X136106421Y-73192374D01*
X136076618Y-72955773D01*
X135957988Y-72599765D01*
X135829871Y-72360076D01*
X135537852Y-72231753D01*
X134389605Y-73380000D01*
X134030395Y-73380000D01*
X132882148Y-72231753D01*
X132590129Y-72360076D01*
X132422277Y-72695695D01*
X132323126Y-73057611D01*
X132296486Y-73431916D01*
X131036124Y-73431916D01*
X131043514Y-73328084D01*
X130996618Y-72955773D01*
X130877988Y-72599765D01*
X130749871Y-72360076D01*
X130457852Y-72231753D01*
X129309605Y-73380000D01*
X128950395Y-73380000D01*
X127802148Y-72231753D01*
X127510129Y-72360076D01*
X127342277Y-72695695D01*
X127243126Y-73057611D01*
X127216486Y-73431916D01*
X125955000Y-73431916D01*
X125955000Y-73192374D01*
X125881791Y-72824332D01*
X125738189Y-72477644D01*
X125529710Y-72165634D01*
X125416224Y-72052148D01*
X127981753Y-72052148D01*
X129130000Y-73200395D01*
X130278247Y-72052148D01*
X133061753Y-72052148D01*
X134210000Y-73200395D01*
X135358247Y-72052148D01*
X135229924Y-71760129D01*
X134894305Y-71592277D01*
X134532389Y-71493126D01*
X134158084Y-71466486D01*
X133785773Y-71513382D01*
X133429765Y-71632012D01*
X133190076Y-71760129D01*
X133061753Y-72052148D01*
X130278247Y-72052148D01*
X130149924Y-71760129D01*
X129814305Y-71592277D01*
X129452389Y-71493126D01*
X129078084Y-71466486D01*
X128705773Y-71513382D01*
X128349765Y-71632012D01*
X128110076Y-71760129D01*
X127981753Y-72052148D01*
X125416224Y-72052148D01*
X125264366Y-71900290D01*
X124952356Y-71691811D01*
X124605668Y-71548209D01*
X124237626Y-71475000D01*
X123862374Y-71475000D01*
X123494332Y-71548209D01*
X123233929Y-71656071D01*
X123341791Y-71395668D01*
X123415000Y-71027626D01*
X123415000Y-70652374D01*
X123341791Y-70284332D01*
X123198189Y-69937644D01*
X122989710Y-69625634D01*
X122724366Y-69360290D01*
X122412356Y-69151811D01*
X122065668Y-69008209D01*
X121697626Y-68935000D01*
X121322374Y-68935000D01*
X120954332Y-69008209D01*
X120607644Y-69151811D01*
X120295634Y-69360290D01*
X120030290Y-69625634D01*
X119821811Y-69937644D01*
X119678209Y-70284332D01*
X119605000Y-70652374D01*
X110660000Y-70652374D01*
X110660000Y-68498061D01*
X145185000Y-68498061D01*
X145185000Y-68701939D01*
X145224774Y-68901898D01*
X145302795Y-69090256D01*
X145416063Y-69259774D01*
X145560226Y-69403937D01*
X145729744Y-69517205D01*
X145918102Y-69595226D01*
X146118061Y-69635000D01*
X146321939Y-69635000D01*
X146521898Y-69595226D01*
X146655224Y-69540000D01*
X158111928Y-69540000D01*
X158111928Y-71240000D01*
X158124188Y-71364482D01*
X158160498Y-71484180D01*
X158219463Y-71594494D01*
X158298815Y-71691185D01*
X158395506Y-71770537D01*
X158505820Y-71829502D01*
X158578380Y-71851513D01*
X158446525Y-71983368D01*
X158284010Y-72226589D01*
X158172068Y-72496842D01*
X158115000Y-72783740D01*
X158115000Y-73076260D01*
X158172068Y-73363158D01*
X158284010Y-73633411D01*
X158446525Y-73876632D01*
X158653368Y-74083475D01*
X158896589Y-74245990D01*
X159166842Y-74357932D01*
X159453740Y-74415000D01*
X159746260Y-74415000D01*
X160033158Y-74357932D01*
X160303411Y-74245990D01*
X160546632Y-74083475D01*
X160753475Y-73876632D01*
X160915990Y-73633411D01*
X161027932Y-73363158D01*
X161085000Y-73076260D01*
X161085000Y-72783740D01*
X161027932Y-72496842D01*
X160915990Y-72226589D01*
X160753475Y-71983368D01*
X160621620Y-71851513D01*
X160694180Y-71829502D01*
X160804494Y-71770537D01*
X160901185Y-71691185D01*
X160980537Y-71594494D01*
X161039502Y-71484180D01*
X161075812Y-71364482D01*
X161088072Y-71240000D01*
X161088072Y-69540000D01*
X161075812Y-69415518D01*
X161039502Y-69295820D01*
X160980537Y-69185506D01*
X160901185Y-69088815D01*
X160804494Y-69009463D01*
X160694180Y-68950498D01*
X160574482Y-68914188D01*
X160450000Y-68901928D01*
X158750000Y-68901928D01*
X158625518Y-68914188D01*
X158505820Y-68950498D01*
X158395506Y-69009463D01*
X158298815Y-69088815D01*
X158219463Y-69185506D01*
X158160498Y-69295820D01*
X158124188Y-69415518D01*
X158111928Y-69540000D01*
X146655224Y-69540000D01*
X146710256Y-69517205D01*
X146879774Y-69403937D01*
X147023937Y-69259774D01*
X147137205Y-69090256D01*
X147215226Y-68901898D01*
X147255000Y-68701939D01*
X147255000Y-68498061D01*
X147215226Y-68298102D01*
X147137205Y-68109744D01*
X147023937Y-67940226D01*
X146879774Y-67796063D01*
X146710256Y-67682795D01*
X146521898Y-67604774D01*
X146321939Y-67565000D01*
X146118061Y-67565000D01*
X145918102Y-67604774D01*
X145729744Y-67682795D01*
X145560226Y-67796063D01*
X145416063Y-67940226D01*
X145302795Y-68109744D01*
X145224774Y-68298102D01*
X145185000Y-68498061D01*
X110660000Y-68498061D01*
X110660000Y-66058686D01*
X111120919Y-66058686D01*
X111457106Y-66527868D01*
X112087068Y-66868237D01*
X112771327Y-67079166D01*
X113483589Y-67152550D01*
X114196482Y-67085569D01*
X114882609Y-66880796D01*
X115515603Y-66546102D01*
X115542894Y-66527868D01*
X115879081Y-66058686D01*
X113500000Y-63679605D01*
X111120919Y-66058686D01*
X110660000Y-66058686D01*
X110660000Y-65677509D01*
X110941314Y-65879081D01*
X113320395Y-63500000D01*
X113679605Y-63500000D01*
X116058686Y-65879081D01*
X116527868Y-65542894D01*
X116868237Y-64912932D01*
X117079166Y-64228673D01*
X117152550Y-63516411D01*
X117085569Y-62803518D01*
X116880796Y-62117391D01*
X116546102Y-61484397D01*
X116527868Y-61457106D01*
X116058686Y-61120919D01*
X113679605Y-63500000D01*
X113320395Y-63500000D01*
X110941314Y-61120919D01*
X110690142Y-61300894D01*
X110726308Y-61181106D01*
X110802982Y-61036904D01*
X110906207Y-60910337D01*
X111032051Y-60806231D01*
X111175711Y-60728553D01*
X111301206Y-60689706D01*
X111120919Y-60941314D01*
X113500000Y-63320395D01*
X115879081Y-60941314D01*
X115677509Y-60660000D01*
X125984692Y-60660000D01*
X125823178Y-60692127D01*
M02*
