G04 #@! TF.GenerationSoftware,KiCad,Pcbnew,5.1.5*
G04 #@! TF.CreationDate,2020-01-03T23:49:01-05:00*
G04 #@! TF.ProjectId,cluster-controller-module,636c7573-7465-4722-9d63-6f6e74726f6c,v02*
G04 #@! TF.SameCoordinates,Original*
G04 #@! TF.FileFunction,Legend,Bot*
G04 #@! TF.FilePolarity,Positive*
%FSLAX46Y46*%
G04 Gerber Fmt 4.6, Leading zero omitted, Abs format (unit mm)*
G04 Created by KiCad (PCBNEW 5.1.5) date 2020-01-03 23:49:01*
%MOMM*%
%LPD*%
G04 APERTURE LIST*
%ADD10C,0.150000*%
G04 APERTURE END LIST*
D10*
X163272976Y-141232142D02*
X163320595Y-141279761D01*
X163463452Y-141327380D01*
X163558690Y-141327380D01*
X163701547Y-141279761D01*
X163796785Y-141184523D01*
X163844404Y-141089285D01*
X163892023Y-140898809D01*
X163892023Y-140755952D01*
X163844404Y-140565476D01*
X163796785Y-140470238D01*
X163701547Y-140375000D01*
X163558690Y-140327380D01*
X163463452Y-140327380D01*
X163320595Y-140375000D01*
X163272976Y-140422619D01*
X162701547Y-141327380D02*
X162796785Y-141279761D01*
X162844404Y-141184523D01*
X162844404Y-140327380D01*
X161892023Y-140660714D02*
X161892023Y-141327380D01*
X162320595Y-140660714D02*
X162320595Y-141184523D01*
X162272976Y-141279761D01*
X162177738Y-141327380D01*
X162034880Y-141327380D01*
X161939642Y-141279761D01*
X161892023Y-141232142D01*
X161463452Y-141279761D02*
X161368214Y-141327380D01*
X161177738Y-141327380D01*
X161082500Y-141279761D01*
X161034880Y-141184523D01*
X161034880Y-141136904D01*
X161082500Y-141041666D01*
X161177738Y-140994047D01*
X161320595Y-140994047D01*
X161415833Y-140946428D01*
X161463452Y-140851190D01*
X161463452Y-140803571D01*
X161415833Y-140708333D01*
X161320595Y-140660714D01*
X161177738Y-140660714D01*
X161082500Y-140708333D01*
X160749166Y-140660714D02*
X160368214Y-140660714D01*
X160606309Y-140327380D02*
X160606309Y-141184523D01*
X160558690Y-141279761D01*
X160463452Y-141327380D01*
X160368214Y-141327380D01*
X159653928Y-141279761D02*
X159749166Y-141327380D01*
X159939642Y-141327380D01*
X160034880Y-141279761D01*
X160082500Y-141184523D01*
X160082500Y-140803571D01*
X160034880Y-140708333D01*
X159939642Y-140660714D01*
X159749166Y-140660714D01*
X159653928Y-140708333D01*
X159606309Y-140803571D01*
X159606309Y-140898809D01*
X160082500Y-140994047D01*
X159177738Y-141327380D02*
X159177738Y-140660714D01*
X159177738Y-140851190D02*
X159130119Y-140755952D01*
X159082500Y-140708333D01*
X158987261Y-140660714D01*
X158892023Y-140660714D01*
X157225357Y-141232142D02*
X157272976Y-141279761D01*
X157415833Y-141327380D01*
X157511071Y-141327380D01*
X157653928Y-141279761D01*
X157749166Y-141184523D01*
X157796785Y-141089285D01*
X157844404Y-140898809D01*
X157844404Y-140755952D01*
X157796785Y-140565476D01*
X157749166Y-140470238D01*
X157653928Y-140375000D01*
X157511071Y-140327380D01*
X157415833Y-140327380D01*
X157272976Y-140375000D01*
X157225357Y-140422619D01*
X156653928Y-141327380D02*
X156749166Y-141279761D01*
X156796785Y-141232142D01*
X156844404Y-141136904D01*
X156844404Y-140851190D01*
X156796785Y-140755952D01*
X156749166Y-140708333D01*
X156653928Y-140660714D01*
X156511071Y-140660714D01*
X156415833Y-140708333D01*
X156368214Y-140755952D01*
X156320595Y-140851190D01*
X156320595Y-141136904D01*
X156368214Y-141232142D01*
X156415833Y-141279761D01*
X156511071Y-141327380D01*
X156653928Y-141327380D01*
X155892023Y-140660714D02*
X155892023Y-141327380D01*
X155892023Y-140755952D02*
X155844404Y-140708333D01*
X155749166Y-140660714D01*
X155606309Y-140660714D01*
X155511071Y-140708333D01*
X155463452Y-140803571D01*
X155463452Y-141327380D01*
X155130119Y-140660714D02*
X154749166Y-140660714D01*
X154987261Y-140327380D02*
X154987261Y-141184523D01*
X154939642Y-141279761D01*
X154844404Y-141327380D01*
X154749166Y-141327380D01*
X154415833Y-141327380D02*
X154415833Y-140660714D01*
X154415833Y-140851190D02*
X154368214Y-140755952D01*
X154320595Y-140708333D01*
X154225357Y-140660714D01*
X154130119Y-140660714D01*
X153653928Y-141327380D02*
X153749166Y-141279761D01*
X153796785Y-141232142D01*
X153844404Y-141136904D01*
X153844404Y-140851190D01*
X153796785Y-140755952D01*
X153749166Y-140708333D01*
X153653928Y-140660714D01*
X153511071Y-140660714D01*
X153415833Y-140708333D01*
X153368214Y-140755952D01*
X153320595Y-140851190D01*
X153320595Y-141136904D01*
X153368214Y-141232142D01*
X153415833Y-141279761D01*
X153511071Y-141327380D01*
X153653928Y-141327380D01*
X152749166Y-141327380D02*
X152844404Y-141279761D01*
X152892023Y-141184523D01*
X152892023Y-140327380D01*
X152225357Y-141327380D02*
X152320595Y-141279761D01*
X152368214Y-141184523D01*
X152368214Y-140327380D01*
X151463452Y-141279761D02*
X151558690Y-141327380D01*
X151749166Y-141327380D01*
X151844404Y-141279761D01*
X151892023Y-141184523D01*
X151892023Y-140803571D01*
X151844404Y-140708333D01*
X151749166Y-140660714D01*
X151558690Y-140660714D01*
X151463452Y-140708333D01*
X151415833Y-140803571D01*
X151415833Y-140898809D01*
X151892023Y-140994047D01*
X150987261Y-141327380D02*
X150987261Y-140660714D01*
X150987261Y-140851190D02*
X150939642Y-140755952D01*
X150892023Y-140708333D01*
X150796785Y-140660714D01*
X150701547Y-140660714D01*
X149701547Y-140660714D02*
X149463452Y-141327380D01*
X149225357Y-140660714D01*
X148653928Y-140327380D02*
X148558690Y-140327380D01*
X148463452Y-140375000D01*
X148415833Y-140422619D01*
X148368214Y-140517857D01*
X148320595Y-140708333D01*
X148320595Y-140946428D01*
X148368214Y-141136904D01*
X148415833Y-141232142D01*
X148463452Y-141279761D01*
X148558690Y-141327380D01*
X148653928Y-141327380D01*
X148749166Y-141279761D01*
X148796785Y-141232142D01*
X148844404Y-141136904D01*
X148892023Y-140946428D01*
X148892023Y-140708333D01*
X148844404Y-140517857D01*
X148796785Y-140422619D01*
X148749166Y-140375000D01*
X148653928Y-140327380D01*
X147939642Y-140422619D02*
X147892023Y-140375000D01*
X147796785Y-140327380D01*
X147558690Y-140327380D01*
X147463452Y-140375000D01*
X147415833Y-140422619D01*
X147368214Y-140517857D01*
X147368214Y-140613095D01*
X147415833Y-140755952D01*
X147987261Y-141327380D01*
X147368214Y-141327380D01*
X146177738Y-140946428D02*
X145415833Y-140946428D01*
X143844404Y-140803571D02*
X143701547Y-140851190D01*
X143653928Y-140898809D01*
X143606309Y-140994047D01*
X143606309Y-141136904D01*
X143653928Y-141232142D01*
X143701547Y-141279761D01*
X143796785Y-141327380D01*
X144177738Y-141327380D01*
X144177738Y-140327380D01*
X143844404Y-140327380D01*
X143749166Y-140375000D01*
X143701547Y-140422619D01*
X143653928Y-140517857D01*
X143653928Y-140613095D01*
X143701547Y-140708333D01*
X143749166Y-140755952D01*
X143844404Y-140803571D01*
X144177738Y-140803571D01*
X143177738Y-141327380D02*
X143177738Y-140660714D01*
X143177738Y-140851190D02*
X143130119Y-140755952D01*
X143082500Y-140708333D01*
X142987261Y-140660714D01*
X142892023Y-140660714D01*
X142558690Y-141327380D02*
X142558690Y-140660714D01*
X142558690Y-140327380D02*
X142606309Y-140375000D01*
X142558690Y-140422619D01*
X142511071Y-140375000D01*
X142558690Y-140327380D01*
X142558690Y-140422619D01*
X141653928Y-141327380D02*
X141653928Y-140803571D01*
X141701547Y-140708333D01*
X141796785Y-140660714D01*
X141987261Y-140660714D01*
X142082500Y-140708333D01*
X141653928Y-141279761D02*
X141749166Y-141327380D01*
X141987261Y-141327380D01*
X142082500Y-141279761D01*
X142130119Y-141184523D01*
X142130119Y-141089285D01*
X142082500Y-140994047D01*
X141987261Y-140946428D01*
X141749166Y-140946428D01*
X141653928Y-140898809D01*
X141177738Y-140660714D02*
X141177738Y-141327380D01*
X141177738Y-140755952D02*
X141130119Y-140708333D01*
X141034880Y-140660714D01*
X140892023Y-140660714D01*
X140796785Y-140708333D01*
X140749166Y-140803571D01*
X140749166Y-141327380D01*
X139558690Y-141279761D02*
X139415833Y-141327380D01*
X139177738Y-141327380D01*
X139082500Y-141279761D01*
X139034880Y-141232142D01*
X138987261Y-141136904D01*
X138987261Y-141041666D01*
X139034880Y-140946428D01*
X139082500Y-140898809D01*
X139177738Y-140851190D01*
X139368214Y-140803571D01*
X139463452Y-140755952D01*
X139511071Y-140708333D01*
X139558690Y-140613095D01*
X139558690Y-140517857D01*
X139511071Y-140422619D01*
X139463452Y-140375000D01*
X139368214Y-140327380D01*
X139130119Y-140327380D01*
X138987261Y-140375000D01*
X138130119Y-141327380D02*
X138130119Y-140803571D01*
X138177738Y-140708333D01*
X138272976Y-140660714D01*
X138463452Y-140660714D01*
X138558690Y-140708333D01*
X138130119Y-141279761D02*
X138225357Y-141327380D01*
X138463452Y-141327380D01*
X138558690Y-141279761D01*
X138606309Y-141184523D01*
X138606309Y-141089285D01*
X138558690Y-140994047D01*
X138463452Y-140946428D01*
X138225357Y-140946428D01*
X138130119Y-140898809D01*
X137511071Y-141327380D02*
X137606309Y-141279761D01*
X137653928Y-141184523D01*
X137653928Y-140327380D01*
X136701547Y-141279761D02*
X136796785Y-141327380D01*
X136987261Y-141327380D01*
X137082500Y-141279761D01*
X137130119Y-141232142D01*
X137177738Y-141136904D01*
X137177738Y-140851190D01*
X137130119Y-140755952D01*
X137082500Y-140708333D01*
X136987261Y-140660714D01*
X136796785Y-140660714D01*
X136701547Y-140708333D01*
X135892023Y-141279761D02*
X135987261Y-141327380D01*
X136177738Y-141327380D01*
X136272976Y-141279761D01*
X136320595Y-141184523D01*
X136320595Y-140803571D01*
X136272976Y-140708333D01*
X136177738Y-140660714D01*
X135987261Y-140660714D01*
X135892023Y-140708333D01*
X135844404Y-140803571D01*
X135844404Y-140898809D01*
X136320595Y-140994047D01*
X134987261Y-141327380D02*
X134987261Y-140327380D01*
X134987261Y-141279761D02*
X135082500Y-141327380D01*
X135272976Y-141327380D01*
X135368214Y-141279761D01*
X135415833Y-141232142D01*
X135463452Y-141136904D01*
X135463452Y-140851190D01*
X135415833Y-140755952D01*
X135368214Y-140708333D01*
X135272976Y-140660714D01*
X135082500Y-140660714D01*
X134987261Y-140708333D01*
X134368214Y-141327380D02*
X134463452Y-141279761D01*
X134511071Y-141232142D01*
X134558690Y-141136904D01*
X134558690Y-140851190D01*
X134511071Y-140755952D01*
X134463452Y-140708333D01*
X134368214Y-140660714D01*
X134225357Y-140660714D01*
X134130119Y-140708333D01*
X134082500Y-140755952D01*
X134034880Y-140851190D01*
X134034880Y-141136904D01*
X134082500Y-141232142D01*
X134130119Y-141279761D01*
X134225357Y-141327380D01*
X134368214Y-141327380D01*
X132844404Y-140946428D02*
X132082500Y-140946428D01*
X130892023Y-140422619D02*
X130844404Y-140375000D01*
X130749166Y-140327380D01*
X130511071Y-140327380D01*
X130415833Y-140375000D01*
X130368214Y-140422619D01*
X130320595Y-140517857D01*
X130320595Y-140613095D01*
X130368214Y-140755952D01*
X130939642Y-141327380D01*
X130320595Y-141327380D01*
X129701547Y-140327380D02*
X129606309Y-140327380D01*
X129511071Y-140375000D01*
X129463452Y-140422619D01*
X129415833Y-140517857D01*
X129368214Y-140708333D01*
X129368214Y-140946428D01*
X129415833Y-141136904D01*
X129463452Y-141232142D01*
X129511071Y-141279761D01*
X129606309Y-141327380D01*
X129701547Y-141327380D01*
X129796785Y-141279761D01*
X129844404Y-141232142D01*
X129892023Y-141136904D01*
X129939642Y-140946428D01*
X129939642Y-140708333D01*
X129892023Y-140517857D01*
X129844404Y-140422619D01*
X129796785Y-140375000D01*
X129701547Y-140327380D01*
X128987261Y-140422619D02*
X128939642Y-140375000D01*
X128844404Y-140327380D01*
X128606309Y-140327380D01*
X128511071Y-140375000D01*
X128463452Y-140422619D01*
X128415833Y-140517857D01*
X128415833Y-140613095D01*
X128463452Y-140755952D01*
X129034880Y-141327380D01*
X128415833Y-141327380D01*
X127796785Y-140327380D02*
X127701547Y-140327380D01*
X127606309Y-140375000D01*
X127558690Y-140422619D01*
X127511071Y-140517857D01*
X127463452Y-140708333D01*
X127463452Y-140946428D01*
X127511071Y-141136904D01*
X127558690Y-141232142D01*
X127606309Y-141279761D01*
X127701547Y-141327380D01*
X127796785Y-141327380D01*
X127892023Y-141279761D01*
X127939642Y-141232142D01*
X127987261Y-141136904D01*
X128034880Y-140946428D01*
X128034880Y-140708333D01*
X127987261Y-140517857D01*
X127939642Y-140422619D01*
X127892023Y-140375000D01*
X127796785Y-140327380D01*
X163844404Y-142977380D02*
X163844404Y-141977380D01*
X163415833Y-142977380D02*
X163415833Y-142453571D01*
X163463452Y-142358333D01*
X163558690Y-142310714D01*
X163701547Y-142310714D01*
X163796785Y-142358333D01*
X163844404Y-142405952D01*
X163082500Y-142310714D02*
X162701547Y-142310714D01*
X162939642Y-141977380D02*
X162939642Y-142834523D01*
X162892023Y-142929761D01*
X162796785Y-142977380D01*
X162701547Y-142977380D01*
X162511071Y-142310714D02*
X162130119Y-142310714D01*
X162368214Y-141977380D02*
X162368214Y-142834523D01*
X162320595Y-142929761D01*
X162225357Y-142977380D01*
X162130119Y-142977380D01*
X161796785Y-142310714D02*
X161796785Y-143310714D01*
X161796785Y-142358333D02*
X161701547Y-142310714D01*
X161511071Y-142310714D01*
X161415833Y-142358333D01*
X161368214Y-142405952D01*
X161320595Y-142501190D01*
X161320595Y-142786904D01*
X161368214Y-142882142D01*
X161415833Y-142929761D01*
X161511071Y-142977380D01*
X161701547Y-142977380D01*
X161796785Y-142929761D01*
X160939642Y-142929761D02*
X160844404Y-142977380D01*
X160653928Y-142977380D01*
X160558690Y-142929761D01*
X160511071Y-142834523D01*
X160511071Y-142786904D01*
X160558690Y-142691666D01*
X160653928Y-142644047D01*
X160796785Y-142644047D01*
X160892023Y-142596428D01*
X160939642Y-142501190D01*
X160939642Y-142453571D01*
X160892023Y-142358333D01*
X160796785Y-142310714D01*
X160653928Y-142310714D01*
X160558690Y-142358333D01*
X160082500Y-142882142D02*
X160034880Y-142929761D01*
X160082500Y-142977380D01*
X160130119Y-142929761D01*
X160082500Y-142882142D01*
X160082500Y-142977380D01*
X160082500Y-142358333D02*
X160034880Y-142405952D01*
X160082500Y-142453571D01*
X160130119Y-142405952D01*
X160082500Y-142358333D01*
X160082500Y-142453571D01*
X158892023Y-141929761D02*
X159749166Y-143215476D01*
X157844404Y-141929761D02*
X158701547Y-143215476D01*
X157082500Y-142310714D02*
X157082500Y-143120238D01*
X157130119Y-143215476D01*
X157177738Y-143263095D01*
X157272976Y-143310714D01*
X157415833Y-143310714D01*
X157511071Y-143263095D01*
X157082500Y-142929761D02*
X157177738Y-142977380D01*
X157368214Y-142977380D01*
X157463452Y-142929761D01*
X157511071Y-142882142D01*
X157558690Y-142786904D01*
X157558690Y-142501190D01*
X157511071Y-142405952D01*
X157463452Y-142358333D01*
X157368214Y-142310714D01*
X157177738Y-142310714D01*
X157082500Y-142358333D01*
X156606309Y-142977380D02*
X156606309Y-142310714D01*
X156606309Y-141977380D02*
X156653928Y-142025000D01*
X156606309Y-142072619D01*
X156558690Y-142025000D01*
X156606309Y-141977380D01*
X156606309Y-142072619D01*
X156272976Y-142310714D02*
X155892023Y-142310714D01*
X156130119Y-141977380D02*
X156130119Y-142834523D01*
X156082500Y-142929761D01*
X155987261Y-142977380D01*
X155892023Y-142977380D01*
X155558690Y-142882142D02*
X155511071Y-142929761D01*
X155558690Y-142977380D01*
X155606309Y-142929761D01*
X155558690Y-142882142D01*
X155558690Y-142977380D01*
X155130119Y-142929761D02*
X155034880Y-142977380D01*
X154844404Y-142977380D01*
X154749166Y-142929761D01*
X154701547Y-142834523D01*
X154701547Y-142786904D01*
X154749166Y-142691666D01*
X154844404Y-142644047D01*
X154987261Y-142644047D01*
X155082500Y-142596428D01*
X155130119Y-142501190D01*
X155130119Y-142453571D01*
X155082500Y-142358333D01*
X154987261Y-142310714D01*
X154844404Y-142310714D01*
X154749166Y-142358333D01*
X153844404Y-142977380D02*
X153844404Y-142453571D01*
X153892023Y-142358333D01*
X153987261Y-142310714D01*
X154177738Y-142310714D01*
X154272976Y-142358333D01*
X153844404Y-142929761D02*
X153939642Y-142977380D01*
X154177738Y-142977380D01*
X154272976Y-142929761D01*
X154320595Y-142834523D01*
X154320595Y-142739285D01*
X154272976Y-142644047D01*
X154177738Y-142596428D01*
X153939642Y-142596428D01*
X153844404Y-142548809D01*
X153225357Y-142977380D02*
X153320595Y-142929761D01*
X153368214Y-142834523D01*
X153368214Y-141977380D01*
X152415833Y-142929761D02*
X152511071Y-142977380D01*
X152701547Y-142977380D01*
X152796785Y-142929761D01*
X152844404Y-142882142D01*
X152892023Y-142786904D01*
X152892023Y-142501190D01*
X152844404Y-142405952D01*
X152796785Y-142358333D01*
X152701547Y-142310714D01*
X152511071Y-142310714D01*
X152415833Y-142358333D01*
X151606309Y-142929761D02*
X151701547Y-142977380D01*
X151892023Y-142977380D01*
X151987261Y-142929761D01*
X152034880Y-142834523D01*
X152034880Y-142453571D01*
X151987261Y-142358333D01*
X151892023Y-142310714D01*
X151701547Y-142310714D01*
X151606309Y-142358333D01*
X151558690Y-142453571D01*
X151558690Y-142548809D01*
X152034880Y-142644047D01*
X150701547Y-142977380D02*
X150701547Y-141977380D01*
X150701547Y-142929761D02*
X150796785Y-142977380D01*
X150987261Y-142977380D01*
X151082500Y-142929761D01*
X151130119Y-142882142D01*
X151177738Y-142786904D01*
X151177738Y-142501190D01*
X151130119Y-142405952D01*
X151082500Y-142358333D01*
X150987261Y-142310714D01*
X150796785Y-142310714D01*
X150701547Y-142358333D01*
X150082500Y-142977380D02*
X150177738Y-142929761D01*
X150225357Y-142882142D01*
X150272976Y-142786904D01*
X150272976Y-142501190D01*
X150225357Y-142405952D01*
X150177738Y-142358333D01*
X150082500Y-142310714D01*
X149939642Y-142310714D01*
X149844404Y-142358333D01*
X149796785Y-142405952D01*
X149749166Y-142501190D01*
X149749166Y-142786904D01*
X149796785Y-142882142D01*
X149844404Y-142929761D01*
X149939642Y-142977380D01*
X150082500Y-142977380D01*
X149320595Y-142882142D02*
X149272976Y-142929761D01*
X149320595Y-142977380D01*
X149368214Y-142929761D01*
X149320595Y-142882142D01*
X149320595Y-142977380D01*
X148987261Y-142310714D02*
X148606309Y-142310714D01*
X148844404Y-141977380D02*
X148844404Y-142834523D01*
X148796785Y-142929761D01*
X148701547Y-142977380D01*
X148606309Y-142977380D01*
X147892023Y-142929761D02*
X147987261Y-142977380D01*
X148177738Y-142977380D01*
X148272976Y-142929761D01*
X148320595Y-142834523D01*
X148320595Y-142453571D01*
X148272976Y-142358333D01*
X148177738Y-142310714D01*
X147987261Y-142310714D01*
X147892023Y-142358333D01*
X147844404Y-142453571D01*
X147844404Y-142548809D01*
X148320595Y-142644047D01*
X146987261Y-142929761D02*
X147082500Y-142977380D01*
X147272976Y-142977380D01*
X147368214Y-142929761D01*
X147415833Y-142882142D01*
X147463452Y-142786904D01*
X147463452Y-142501190D01*
X147415833Y-142405952D01*
X147368214Y-142358333D01*
X147272976Y-142310714D01*
X147082500Y-142310714D01*
X146987261Y-142358333D01*
X146558690Y-142977380D02*
X146558690Y-141977380D01*
X146130119Y-142977380D02*
X146130119Y-142453571D01*
X146177738Y-142358333D01*
X146272976Y-142310714D01*
X146415833Y-142310714D01*
X146511071Y-142358333D01*
X146558690Y-142405952D01*
X144939642Y-141929761D02*
X145796785Y-143215476D01*
X144653928Y-142929761D02*
X144558690Y-142977380D01*
X144368214Y-142977380D01*
X144272976Y-142929761D01*
X144225357Y-142834523D01*
X144225357Y-142786904D01*
X144272976Y-142691666D01*
X144368214Y-142644047D01*
X144511071Y-142644047D01*
X144606309Y-142596428D01*
X144653928Y-142501190D01*
X144653928Y-142453571D01*
X144606309Y-142358333D01*
X144511071Y-142310714D01*
X144368214Y-142310714D01*
X144272976Y-142358333D01*
X143368214Y-142977380D02*
X143368214Y-142453571D01*
X143415833Y-142358333D01*
X143511071Y-142310714D01*
X143701547Y-142310714D01*
X143796785Y-142358333D01*
X143368214Y-142929761D02*
X143463452Y-142977380D01*
X143701547Y-142977380D01*
X143796785Y-142929761D01*
X143844404Y-142834523D01*
X143844404Y-142739285D01*
X143796785Y-142644047D01*
X143701547Y-142596428D01*
X143463452Y-142596428D01*
X143368214Y-142548809D01*
X142749166Y-142977380D02*
X142844404Y-142929761D01*
X142892023Y-142834523D01*
X142892023Y-141977380D01*
X141939642Y-142929761D02*
X142034880Y-142977380D01*
X142225357Y-142977380D01*
X142320595Y-142929761D01*
X142368214Y-142882142D01*
X142415833Y-142786904D01*
X142415833Y-142501190D01*
X142368214Y-142405952D01*
X142320595Y-142358333D01*
X142225357Y-142310714D01*
X142034880Y-142310714D01*
X141939642Y-142358333D01*
X141130119Y-142929761D02*
X141225357Y-142977380D01*
X141415833Y-142977380D01*
X141511071Y-142929761D01*
X141558690Y-142834523D01*
X141558690Y-142453571D01*
X141511071Y-142358333D01*
X141415833Y-142310714D01*
X141225357Y-142310714D01*
X141130119Y-142358333D01*
X141082500Y-142453571D01*
X141082500Y-142548809D01*
X141558690Y-142644047D01*
X140225357Y-142977380D02*
X140225357Y-141977380D01*
X140225357Y-142929761D02*
X140320595Y-142977380D01*
X140511071Y-142977380D01*
X140606309Y-142929761D01*
X140653928Y-142882142D01*
X140701547Y-142786904D01*
X140701547Y-142501190D01*
X140653928Y-142405952D01*
X140606309Y-142358333D01*
X140511071Y-142310714D01*
X140320595Y-142310714D01*
X140225357Y-142358333D01*
X139606309Y-142977380D02*
X139701547Y-142929761D01*
X139749166Y-142882142D01*
X139796785Y-142786904D01*
X139796785Y-142501190D01*
X139749166Y-142405952D01*
X139701547Y-142358333D01*
X139606309Y-142310714D01*
X139463452Y-142310714D01*
X139368214Y-142358333D01*
X139320595Y-142405952D01*
X139272976Y-142501190D01*
X139272976Y-142786904D01*
X139320595Y-142882142D01*
X139368214Y-142929761D01*
X139463452Y-142977380D01*
X139606309Y-142977380D01*
X138130119Y-141929761D02*
X138987261Y-143215476D01*
X137368214Y-142929761D02*
X137463452Y-142977380D01*
X137653928Y-142977380D01*
X137749166Y-142929761D01*
X137796785Y-142882142D01*
X137844404Y-142786904D01*
X137844404Y-142501190D01*
X137796785Y-142405952D01*
X137749166Y-142358333D01*
X137653928Y-142310714D01*
X137463452Y-142310714D01*
X137368214Y-142358333D01*
X136796785Y-142977380D02*
X136892023Y-142929761D01*
X136939642Y-142834523D01*
X136939642Y-141977380D01*
X135987261Y-142310714D02*
X135987261Y-142977380D01*
X136415833Y-142310714D02*
X136415833Y-142834523D01*
X136368214Y-142929761D01*
X136272976Y-142977380D01*
X136130119Y-142977380D01*
X136034880Y-142929761D01*
X135987261Y-142882142D01*
X135558690Y-142929761D02*
X135463452Y-142977380D01*
X135272976Y-142977380D01*
X135177738Y-142929761D01*
X135130119Y-142834523D01*
X135130119Y-142786904D01*
X135177738Y-142691666D01*
X135272976Y-142644047D01*
X135415833Y-142644047D01*
X135511071Y-142596428D01*
X135558690Y-142501190D01*
X135558690Y-142453571D01*
X135511071Y-142358333D01*
X135415833Y-142310714D01*
X135272976Y-142310714D01*
X135177738Y-142358333D01*
X134844404Y-142310714D02*
X134463452Y-142310714D01*
X134701547Y-141977380D02*
X134701547Y-142834523D01*
X134653928Y-142929761D01*
X134558690Y-142977380D01*
X134463452Y-142977380D01*
X133749166Y-142929761D02*
X133844404Y-142977380D01*
X134034880Y-142977380D01*
X134130119Y-142929761D01*
X134177738Y-142834523D01*
X134177738Y-142453571D01*
X134130119Y-142358333D01*
X134034880Y-142310714D01*
X133844404Y-142310714D01*
X133749166Y-142358333D01*
X133701547Y-142453571D01*
X133701547Y-142548809D01*
X134177738Y-142644047D01*
X133272976Y-142977380D02*
X133272976Y-142310714D01*
X133272976Y-142501190D02*
X133225357Y-142405952D01*
X133177738Y-142358333D01*
X133082500Y-142310714D01*
X132987261Y-142310714D01*
X132653928Y-142596428D02*
X131892023Y-142596428D01*
X130987261Y-142929761D02*
X131082500Y-142977380D01*
X131272976Y-142977380D01*
X131368214Y-142929761D01*
X131415833Y-142882142D01*
X131463452Y-142786904D01*
X131463452Y-142501190D01*
X131415833Y-142405952D01*
X131368214Y-142358333D01*
X131272976Y-142310714D01*
X131082500Y-142310714D01*
X130987261Y-142358333D01*
X130415833Y-142977380D02*
X130511071Y-142929761D01*
X130558690Y-142882142D01*
X130606309Y-142786904D01*
X130606309Y-142501190D01*
X130558690Y-142405952D01*
X130511071Y-142358333D01*
X130415833Y-142310714D01*
X130272976Y-142310714D01*
X130177738Y-142358333D01*
X130130119Y-142405952D01*
X130082500Y-142501190D01*
X130082500Y-142786904D01*
X130130119Y-142882142D01*
X130177738Y-142929761D01*
X130272976Y-142977380D01*
X130415833Y-142977380D01*
X129653928Y-142310714D02*
X129653928Y-142977380D01*
X129653928Y-142405952D02*
X129606309Y-142358333D01*
X129511071Y-142310714D01*
X129368214Y-142310714D01*
X129272976Y-142358333D01*
X129225357Y-142453571D01*
X129225357Y-142977380D01*
X128892023Y-142310714D02*
X128511071Y-142310714D01*
X128749166Y-141977380D02*
X128749166Y-142834523D01*
X128701547Y-142929761D01*
X128606309Y-142977380D01*
X128511071Y-142977380D01*
X128177738Y-142977380D02*
X128177738Y-142310714D01*
X128177738Y-142501190D02*
X128130119Y-142405952D01*
X128082500Y-142358333D01*
X127987261Y-142310714D01*
X127892023Y-142310714D01*
X127415833Y-142977380D02*
X127511071Y-142929761D01*
X127558690Y-142882142D01*
X127606309Y-142786904D01*
X127606309Y-142501190D01*
X127558690Y-142405952D01*
X127511071Y-142358333D01*
X127415833Y-142310714D01*
X127272976Y-142310714D01*
X127177738Y-142358333D01*
X127130119Y-142405952D01*
X127082500Y-142501190D01*
X127082500Y-142786904D01*
X127130119Y-142882142D01*
X127177738Y-142929761D01*
X127272976Y-142977380D01*
X127415833Y-142977380D01*
X126511071Y-142977380D02*
X126606309Y-142929761D01*
X126653928Y-142834523D01*
X126653928Y-141977380D01*
X125987261Y-142977380D02*
X126082500Y-142929761D01*
X126130119Y-142834523D01*
X126130119Y-141977380D01*
X125225357Y-142929761D02*
X125320595Y-142977380D01*
X125511071Y-142977380D01*
X125606309Y-142929761D01*
X125653928Y-142834523D01*
X125653928Y-142453571D01*
X125606309Y-142358333D01*
X125511071Y-142310714D01*
X125320595Y-142310714D01*
X125225357Y-142358333D01*
X125177738Y-142453571D01*
X125177738Y-142548809D01*
X125653928Y-142644047D01*
X124749166Y-142977380D02*
X124749166Y-142310714D01*
X124749166Y-142501190D02*
X124701547Y-142405952D01*
X124653928Y-142358333D01*
X124558690Y-142310714D01*
X124463452Y-142310714D01*
M02*
