M48
; DRILL file {KiCad 5.1.5} date Fri 03 Jan 2020 11:48:58 PM EST
; FORMAT={-:-/ absolute / inch / decimal}
; #@! TF.CreationDate,2020-01-03T23:48:58-05:00
; #@! TF.GenerationSoftware,Kicad,Pcbnew,5.1.5
; #@! TF.FileFunction,Plated,1,4,PTH
FMAT,2
INCH
T1C0.0157
T2C0.0197
T3C0.0236
T4C0.0300
T5C0.0394
T6C0.0433
T7C0.0600
T8C0.1000
T9C0.1181
T10C0.1570
%
G90
G05
T1
X4.7803Y-5.6067
X4.8197Y-5.6067
X4.8591Y-5.6067
X4.8984Y-5.6067
X4.9378Y-4.5854
X4.9378Y-5.6067
X4.9772Y-4.5854
X4.9772Y-5.6067
X5.0165Y-4.5854
X5.0165Y-5.6067
X5.0559Y-4.5854
X5.0559Y-5.6067
X5.0953Y-4.5854
X5.1346Y-4.5854
X5.174Y-4.5854
X5.2134Y-4.5854
X5.4567Y-3.4713
X5.4638Y-3.7063
X5.5429Y-3.0579
X5.6547Y-2.9996
X5.6718Y-3.1078
X5.6909Y-2.8941
X5.7091Y-3.8374
X5.7567Y-2.7008
X5.7567Y-2.7874
X5.7693Y-3.0256
X5.8098Y-4.5858
X5.8106Y-3.5409
X5.8315Y-2.7874
X5.8339Y-3.1016
X5.8339Y-3.1409
X5.8421Y-3.3035
X5.8421Y-3.3429
X5.8492Y-4.5858
X5.8504Y-3.448
X5.8732Y-3.1016
X5.8886Y-4.5858
X5.8902Y-2.6673
X5.8917Y-3.9594
X5.8917Y-3.9988
X5.8917Y-4.0382
X5.8917Y-4.0776
X5.8917Y-4.1169
X5.8917Y-4.1563
X5.8917Y-4.1957
X5.8917Y-4.235
X5.9126Y-3.1016
X5.9197Y-2.8232
X5.928Y-4.5858
X5.9291Y-3.3465
X5.9291Y-3.5075
X5.9996Y-3.3374
X6.039Y-3.3374
X6.0606Y-3.4539
X6.0634Y-3.6217
X6.0646Y-3.4933
X6.0783Y-3.1406
X6.0783Y-3.1799
X6.0783Y-3.2193
X6.0783Y-3.2587
X6.0783Y-3.298
X6.0783Y-3.3374
X6.0957Y-2.7425
X6.1335Y-5.6071
X6.1433Y-3.4287
X6.1697Y-4.1161
X6.1697Y-4.1555
X6.1697Y-4.1949
X6.1697Y-4.2343
X6.1728Y-5.6071
X6.1823Y-3.3941
X6.2122Y-5.6071
X6.2516Y-5.6071
X5.8563Y-2.5512
X5.8563Y-2.6043
X5.8898Y-2.5512
X5.8898Y-2.6043
X5.9232Y-2.5512
X5.9232Y-2.6043
X5.9567Y-2.5512
X5.9567Y-2.6043
X5.9902Y-2.5512
X5.9902Y-2.6043
X6.0236Y-2.5512
X6.0236Y-2.6043
X6.0571Y-2.5512
X6.0571Y-2.6043
X6.0906Y-2.5512
X6.0906Y-2.6043
T2
X4.3799Y-2.5
X4.4059Y-2.4374
X4.4059Y-2.5626
X4.4685Y-2.4114
X4.4685Y-2.5886
X4.5311Y-2.4374
X4.5311Y-2.5626
X4.5571Y-2.5
X6.3091Y-2.5
X6.335Y-2.4374
X6.335Y-2.5626
X6.3976Y-2.4114
X6.3976Y-2.5886
X6.4603Y-2.4374
X6.4603Y-2.5626
X6.4862Y-2.5
X4.3799Y-4.7835
X4.4059Y-4.7208
X4.4059Y-4.8461
X4.4685Y-4.6949
X4.4685Y-4.872
X4.5311Y-4.7208
X4.5311Y-4.8461
X4.5571Y-4.7835
X6.3091Y-4.7835
X6.335Y-4.7208
X6.335Y-4.8461
X6.3976Y-4.6949
X6.3976Y-4.872
X6.4603Y-4.7208
X6.4603Y-4.8461
X6.4862Y-4.7835
T4
X4.7783Y-3.5728
X5.0783Y-3.5728
X5.3783Y-3.5728
X5.4783Y-3.5728
X4.7783Y-4.0494
X5.0783Y-4.0494
X5.3783Y-4.0494
X5.4783Y-4.0494
X4.7783Y-3.3346
X5.0783Y-3.3346
X5.3783Y-3.3346
X5.4783Y-3.3346
X4.7783Y-3.811
X5.0783Y-3.811
X5.3783Y-3.811
X5.4783Y-3.811
T5
X6.4646Y-3.0919
X6.4646Y-3.1919
X6.4646Y-3.2919
X6.4646Y-3.3919
X6.4646Y-3.4919
X6.4646Y-3.5919
X6.4646Y-3.6919
X6.4646Y-3.7919
X6.4646Y-3.8919
X6.4646Y-3.9919
X6.4646Y-4.0919
X6.4646Y-4.1919
X6.2835Y-2.7713
X6.2835Y-2.8713
T6
X4.4783Y-3.2917
X4.4783Y-3.3917
X4.4783Y-3.4917
X4.4783Y-3.5917
X4.4783Y-3.6917
X4.4783Y-3.7917
X4.4783Y-3.8917
X4.4783Y-3.9917
T7
X4.8839Y-2.889
X5.0839Y-2.889
X5.2839Y-2.889
X5.4839Y-2.889
T8
X4.7839Y-2.789
X5.5839Y-2.789
T9
X4.4685Y-2.5
X6.3976Y-2.5
X4.4685Y-4.7835
X6.3976Y-4.7835
T10
X4.9839Y-2.489
X5.3839Y-2.489
T3
G00X5.8031Y-2.4484
M15
G01X5.8031Y-2.4169
M16
G05
G00X5.8031Y-2.5953
M15
G01X5.8031Y-2.5362
M16
G05
G00X6.1437Y-2.4484
M15
G01X6.1437Y-2.4169
M16
G05
G00X6.1437Y-2.5953
M15
G01X6.1437Y-2.5362
M16
G05
T0
M30
