G04 #@! TF.GenerationSoftware,KiCad,Pcbnew,5.1.5*
G04 #@! TF.CreationDate,2020-01-03T23:49:01-05:00*
G04 #@! TF.ProjectId,cluster-controller-module,636c7573-7465-4722-9d63-6f6e74726f6c,v02*
G04 #@! TF.SameCoordinates,Original*
G04 #@! TF.FileFunction,Copper,L2,Inr*
G04 #@! TF.FilePolarity,Positive*
%FSLAX46Y46*%
G04 Gerber Fmt 4.6, Leading zero omitted, Abs format (unit mm)*
G04 Created by KiCad (PCBNEW 5.1.5) date 2020-01-03 23:49:01*
%MOMM*%
%LPD*%
G04 APERTURE LIST*
%ADD10C,0.700000*%
%ADD11O,0.900000X2.400000*%
%ADD12O,0.900000X1.700000*%
%ADD13R,2.100000X2.100000*%
%ADD14C,2.100000*%
%ADD15C,6.000000*%
%ADD16C,0.800000*%
%ADD17C,2.540000*%
%ADD18C,3.987800*%
%ADD19R,1.700000X1.700000*%
%ADD20O,1.700000X1.700000*%
%ADD21C,1.524000*%
%ADD22C,0.250000*%
%ADD23C,0.200000*%
%ADD24C,0.254000*%
G04 APERTURE END LIST*
D10*
X154700000Y-66150000D03*
X153850000Y-66150000D03*
X153000000Y-66150000D03*
X152150000Y-66150000D03*
X151300000Y-66150000D03*
X150450000Y-66150000D03*
X149600000Y-66150000D03*
X148750000Y-66150000D03*
X153850000Y-64800000D03*
X152150000Y-64800000D03*
X153000000Y-64800000D03*
X154700000Y-64800000D03*
X150450000Y-64800000D03*
X149600000Y-64800000D03*
X148750000Y-64800000D03*
X151300000Y-64800000D03*
D11*
X156050000Y-65170000D03*
X147400000Y-65170000D03*
D12*
X156050000Y-61790000D03*
X147400000Y-61790000D03*
D13*
X113750000Y-101390000D03*
D14*
X113750000Y-98850000D03*
X113750000Y-96310000D03*
X113750000Y-93770000D03*
X113750000Y-91230000D03*
X113750000Y-88690000D03*
X113750000Y-86150000D03*
X113750000Y-83610000D03*
D15*
X113500000Y-63500000D03*
D16*
X115750000Y-63500000D03*
X115090990Y-65090990D03*
X113500000Y-65750000D03*
X111909010Y-65090990D03*
X111250000Y-63500000D03*
X111909010Y-61909010D03*
X113500000Y-61250000D03*
X115090990Y-61909010D03*
X164090990Y-119909010D03*
X162500000Y-119250000D03*
X160909010Y-119909010D03*
X160250000Y-121500000D03*
X160909010Y-123090990D03*
X162500000Y-123750000D03*
X164090990Y-123090990D03*
X164750000Y-121500000D03*
D15*
X162500000Y-121500000D03*
X162500000Y-63500000D03*
D16*
X164750000Y-63500000D03*
X164090990Y-65090990D03*
X162500000Y-65750000D03*
X160909010Y-65090990D03*
X160250000Y-63500000D03*
X160909010Y-61909010D03*
X162500000Y-61250000D03*
X164090990Y-61909010D03*
X115090990Y-119909010D03*
X113500000Y-119250000D03*
X111909010Y-119909010D03*
X111250000Y-121500000D03*
X111909010Y-123090990D03*
X113500000Y-123750000D03*
X115090990Y-123090990D03*
X115750000Y-121500000D03*
D15*
X113500000Y-121500000D03*
D17*
X124050000Y-73380000D03*
X134210000Y-73380000D03*
X129130000Y-73380000D03*
X139290000Y-73380000D03*
X121510000Y-70840000D03*
X141830000Y-70840000D03*
D18*
X126590000Y-63220000D03*
X136750000Y-63220000D03*
D19*
X164200000Y-78535000D03*
D20*
X164200000Y-81075000D03*
X164200000Y-83615000D03*
X164200000Y-86155000D03*
X164200000Y-88695000D03*
X164200000Y-91235000D03*
X164200000Y-93775000D03*
X164200000Y-96315000D03*
X164200000Y-98855000D03*
X164200000Y-101395000D03*
X164200000Y-103935000D03*
X164200000Y-106475000D03*
D21*
X121370000Y-102855000D03*
X128990000Y-102855000D03*
X136610000Y-102855000D03*
X139150000Y-102855000D03*
X139150000Y-96800000D03*
X136610000Y-96800000D03*
X128990000Y-96800000D03*
X121370000Y-96800000D03*
X121370000Y-90750000D03*
X128990000Y-90750000D03*
X136610000Y-90750000D03*
X139150000Y-90750000D03*
X139150000Y-84700000D03*
X136610000Y-84700000D03*
X128990000Y-84700000D03*
X121370000Y-84700000D03*
D19*
X159600000Y-70390000D03*
D20*
X159600000Y-72930000D03*
D16*
X154830000Y-69660000D03*
X150360000Y-71710000D03*
X149610000Y-67750000D03*
X154010000Y-91990000D03*
X154390000Y-82770000D03*
X150600000Y-89090000D03*
X154390000Y-79770000D03*
X144062500Y-78937500D03*
X143630000Y-76190000D03*
X140790000Y-77670000D03*
X144550000Y-73510000D03*
X138600000Y-88170000D03*
X138780000Y-94140000D03*
X145010000Y-97470000D03*
X147590000Y-89940000D03*
X121420000Y-142410000D03*
X149650000Y-100570000D03*
X154390000Y-80770000D03*
X125420000Y-116470000D03*
X154390000Y-81770000D03*
X126420000Y-116470000D03*
X122420000Y-142410000D03*
X149650000Y-101570000D03*
X157030000Y-86210000D03*
X127420000Y-116470000D03*
X123420000Y-142410000D03*
X149650000Y-102570000D03*
X148180000Y-78780000D03*
X149180000Y-78780000D03*
X146220000Y-70800000D03*
X148120000Y-70800000D03*
X150180000Y-78780000D03*
X146220000Y-68600000D03*
X124420000Y-142410000D03*
X149650000Y-103570000D03*
X156040000Y-87090000D03*
X128420000Y-116470000D03*
X154040000Y-88730000D03*
X129420000Y-116470000D03*
X125420000Y-142410000D03*
X149650000Y-104570000D03*
X126420000Y-142410000D03*
X149650000Y-105570000D03*
X153940000Y-87730000D03*
X130420000Y-116470000D03*
X131420000Y-116470000D03*
X152390000Y-84770000D03*
X127420000Y-142410000D03*
X149650000Y-106570000D03*
X128420000Y-142410000D03*
X149650000Y-107570000D03*
X150600000Y-85000000D03*
X132420000Y-116470000D03*
X155790000Y-142420000D03*
X156710000Y-104550000D03*
X156790000Y-142420000D03*
X156710000Y-105550000D03*
X157790000Y-142420000D03*
X156710000Y-106550000D03*
X158790000Y-142420000D03*
X156710000Y-107550000D03*
X148390000Y-84910000D03*
X148390000Y-83910000D03*
X148180000Y-79780000D03*
X146540000Y-76850000D03*
X154390000Y-83770000D03*
X147570000Y-116480000D03*
X154390000Y-84770000D03*
X148570000Y-116480000D03*
X153390000Y-84770000D03*
X149570000Y-116480000D03*
X148600000Y-87580000D03*
X150570000Y-116480000D03*
D22*
X145494999Y-71148001D02*
X145494999Y-70275001D01*
X146220000Y-69550000D02*
X146220000Y-68600000D01*
X145494999Y-70275001D02*
X146220000Y-69550000D01*
X149905001Y-75558003D02*
X145494999Y-71148001D01*
X149905001Y-78675001D02*
X149905001Y-75558003D01*
X150010000Y-78780000D02*
X149905001Y-78675001D01*
X150180000Y-78780000D02*
X150010000Y-78780000D01*
D23*
X155339999Y-84719999D02*
X155339999Y-118510001D01*
X154390000Y-83770000D02*
X155339999Y-84719999D01*
X155339999Y-118510001D02*
X154140000Y-119710000D01*
X150800000Y-119710000D02*
X147570000Y-116480000D01*
X154140000Y-119710000D02*
X150800000Y-119710000D01*
X154939989Y-118344313D02*
X154939989Y-85319989D01*
X148570000Y-116480000D02*
X151399990Y-119309990D01*
X154939989Y-85319989D02*
X154390000Y-84770000D01*
X153974312Y-119309990D02*
X154939989Y-118344313D01*
X151399990Y-119309990D02*
X153974312Y-119309990D01*
X149570000Y-116480000D02*
X151999980Y-118909980D01*
X151999980Y-118909980D02*
X153808624Y-118909980D01*
X153808624Y-118909980D02*
X154539979Y-118178625D01*
X154539979Y-118178625D02*
X154539979Y-113900000D01*
X152990001Y-85169999D02*
X153390000Y-84770000D01*
X152990001Y-112350022D02*
X152990001Y-85169999D01*
X154539979Y-113900000D02*
X152990001Y-112350022D01*
X150969999Y-116080001D02*
X150570000Y-116480000D01*
X151300001Y-115749999D02*
X150969999Y-116080001D01*
X151300001Y-88753999D02*
X151300001Y-115749999D01*
X150126002Y-87580000D02*
X151300001Y-88753999D01*
X148600000Y-87580000D02*
X150126002Y-87580000D01*
D24*
G36*
X125823178Y-60692127D02*
G01*
X125344749Y-60890299D01*
X124914174Y-61178000D01*
X124548000Y-61544174D01*
X124260299Y-61974749D01*
X124062127Y-62453178D01*
X123961100Y-62961076D01*
X123961100Y-63478924D01*
X124062127Y-63986822D01*
X124260299Y-64465251D01*
X124548000Y-64895826D01*
X124914174Y-65262000D01*
X125344749Y-65549701D01*
X125823178Y-65747873D01*
X126331076Y-65848900D01*
X126848924Y-65848900D01*
X127356822Y-65747873D01*
X127835251Y-65549701D01*
X128265826Y-65262000D01*
X128632000Y-64895826D01*
X128919701Y-64465251D01*
X129117873Y-63986822D01*
X129218900Y-63478924D01*
X129218900Y-62961076D01*
X129117873Y-62453178D01*
X128919701Y-61974749D01*
X128632000Y-61544174D01*
X128265826Y-61178000D01*
X127835251Y-60890299D01*
X127356822Y-60692127D01*
X127195308Y-60660000D01*
X136144692Y-60660000D01*
X135983178Y-60692127D01*
X135504749Y-60890299D01*
X135074174Y-61178000D01*
X134708000Y-61544174D01*
X134420299Y-61974749D01*
X134222127Y-62453178D01*
X134121100Y-62961076D01*
X134121100Y-63478924D01*
X134222127Y-63986822D01*
X134420299Y-64465251D01*
X134708000Y-64895826D01*
X135074174Y-65262000D01*
X135504749Y-65549701D01*
X135983178Y-65747873D01*
X136491076Y-65848900D01*
X137008924Y-65848900D01*
X137516822Y-65747873D01*
X137995251Y-65549701D01*
X138425826Y-65262000D01*
X138792000Y-64895826D01*
X138920851Y-64702986D01*
X148615000Y-64702986D01*
X148615000Y-64897014D01*
X148652853Y-65087314D01*
X148727104Y-65266572D01*
X148834901Y-65427901D01*
X148882000Y-65475000D01*
X148834901Y-65522099D01*
X148727104Y-65683428D01*
X148652853Y-65862686D01*
X148615000Y-66052986D01*
X148615000Y-66247014D01*
X148652853Y-66437314D01*
X148727104Y-66616572D01*
X148834901Y-66777901D01*
X148972099Y-66915099D01*
X149133428Y-67022896D01*
X149312686Y-67097147D01*
X149502986Y-67135000D01*
X149697014Y-67135000D01*
X149887314Y-67097147D01*
X150025000Y-67040116D01*
X150162686Y-67097147D01*
X150352986Y-67135000D01*
X150547014Y-67135000D01*
X150737314Y-67097147D01*
X150875000Y-67040116D01*
X151012686Y-67097147D01*
X151202986Y-67135000D01*
X151397014Y-67135000D01*
X151587314Y-67097147D01*
X151725000Y-67040116D01*
X151862686Y-67097147D01*
X152052986Y-67135000D01*
X152247014Y-67135000D01*
X152437314Y-67097147D01*
X152575000Y-67040116D01*
X152712686Y-67097147D01*
X152902986Y-67135000D01*
X153097014Y-67135000D01*
X153287314Y-67097147D01*
X153425000Y-67040116D01*
X153562686Y-67097147D01*
X153752986Y-67135000D01*
X153947014Y-67135000D01*
X154137314Y-67097147D01*
X154316572Y-67022896D01*
X154477901Y-66915099D01*
X154615099Y-66777901D01*
X154722896Y-66616572D01*
X154797147Y-66437314D01*
X154835000Y-66247014D01*
X154835000Y-66052986D01*
X154797147Y-65862686D01*
X154722896Y-65683428D01*
X154615099Y-65522099D01*
X154568000Y-65475000D01*
X154615099Y-65427901D01*
X154722896Y-65266572D01*
X154797147Y-65087314D01*
X154835000Y-64897014D01*
X154835000Y-64702986D01*
X154797147Y-64512686D01*
X154722896Y-64333428D01*
X154615099Y-64172099D01*
X154477901Y-64034901D01*
X154316572Y-63927104D01*
X154137314Y-63852853D01*
X153947014Y-63815000D01*
X153752986Y-63815000D01*
X153562686Y-63852853D01*
X153425000Y-63909884D01*
X153287314Y-63852853D01*
X153097014Y-63815000D01*
X152902986Y-63815000D01*
X152712686Y-63852853D01*
X152575000Y-63909884D01*
X152437314Y-63852853D01*
X152247014Y-63815000D01*
X152052986Y-63815000D01*
X151862686Y-63852853D01*
X151725000Y-63909884D01*
X151587314Y-63852853D01*
X151397014Y-63815000D01*
X151202986Y-63815000D01*
X151012686Y-63852853D01*
X150875000Y-63909884D01*
X150737314Y-63852853D01*
X150547014Y-63815000D01*
X150352986Y-63815000D01*
X150162686Y-63852853D01*
X150025000Y-63909884D01*
X149887314Y-63852853D01*
X149697014Y-63815000D01*
X149502986Y-63815000D01*
X149312686Y-63852853D01*
X149133428Y-63927104D01*
X148972099Y-64034901D01*
X148834901Y-64172099D01*
X148727104Y-64333428D01*
X148652853Y-64512686D01*
X148615000Y-64702986D01*
X138920851Y-64702986D01*
X139079701Y-64465251D01*
X139277873Y-63986822D01*
X139378900Y-63478924D01*
X139378900Y-62961076D01*
X139277873Y-62453178D01*
X139079701Y-61974749D01*
X138792000Y-61544174D01*
X138425826Y-61178000D01*
X137995251Y-60890299D01*
X137516822Y-60692127D01*
X137355308Y-60660000D01*
X164467723Y-60660000D01*
X164662540Y-60679102D01*
X164818894Y-60726308D01*
X164963096Y-60802982D01*
X165089663Y-60906207D01*
X165193769Y-61032051D01*
X165271447Y-61175711D01*
X165319742Y-61331729D01*
X165340000Y-61524473D01*
X165340000Y-77119990D01*
X165294180Y-77095498D01*
X165174482Y-77059188D01*
X165050000Y-77046928D01*
X163350000Y-77046928D01*
X163225518Y-77059188D01*
X163105820Y-77095498D01*
X162995506Y-77154463D01*
X162898815Y-77233815D01*
X162819463Y-77330506D01*
X162760498Y-77440820D01*
X162724188Y-77560518D01*
X162711928Y-77685000D01*
X162711928Y-79385000D01*
X162724188Y-79509482D01*
X162760498Y-79629180D01*
X162819463Y-79739494D01*
X162898815Y-79836185D01*
X162995506Y-79915537D01*
X163105820Y-79974502D01*
X163178380Y-79996513D01*
X163046525Y-80128368D01*
X162884010Y-80371589D01*
X162772068Y-80641842D01*
X162715000Y-80928740D01*
X162715000Y-81221260D01*
X162772068Y-81508158D01*
X162884010Y-81778411D01*
X163046525Y-82021632D01*
X163253368Y-82228475D01*
X163496589Y-82390990D01*
X163766842Y-82502932D01*
X164053740Y-82560000D01*
X164346260Y-82560000D01*
X164633158Y-82502932D01*
X164903411Y-82390990D01*
X165146632Y-82228475D01*
X165340000Y-82035107D01*
X165340000Y-85194893D01*
X165146632Y-85001525D01*
X164903411Y-84839010D01*
X164633158Y-84727068D01*
X164346260Y-84670000D01*
X164053740Y-84670000D01*
X163766842Y-84727068D01*
X163496589Y-84839010D01*
X163253368Y-85001525D01*
X163046525Y-85208368D01*
X162884010Y-85451589D01*
X162772068Y-85721842D01*
X162715000Y-86008740D01*
X162715000Y-86301260D01*
X162772068Y-86588158D01*
X162884010Y-86858411D01*
X163046525Y-87101632D01*
X163253368Y-87308475D01*
X163427760Y-87425000D01*
X163253368Y-87541525D01*
X163046525Y-87748368D01*
X162884010Y-87991589D01*
X162772068Y-88261842D01*
X162715000Y-88548740D01*
X162715000Y-88841260D01*
X162772068Y-89128158D01*
X162884010Y-89398411D01*
X163046525Y-89641632D01*
X163253368Y-89848475D01*
X163496589Y-90010990D01*
X163766842Y-90122932D01*
X164053740Y-90180000D01*
X164346260Y-90180000D01*
X164633158Y-90122932D01*
X164903411Y-90010990D01*
X165146632Y-89848475D01*
X165340000Y-89655107D01*
X165340000Y-92814893D01*
X165146632Y-92621525D01*
X164903411Y-92459010D01*
X164633158Y-92347068D01*
X164346260Y-92290000D01*
X164053740Y-92290000D01*
X163766842Y-92347068D01*
X163496589Y-92459010D01*
X163253368Y-92621525D01*
X163046525Y-92828368D01*
X162884010Y-93071589D01*
X162772068Y-93341842D01*
X162715000Y-93628740D01*
X162715000Y-93921260D01*
X162772068Y-94208158D01*
X162884010Y-94478411D01*
X163046525Y-94721632D01*
X163253368Y-94928475D01*
X163427760Y-95045000D01*
X163253368Y-95161525D01*
X163046525Y-95368368D01*
X162884010Y-95611589D01*
X162772068Y-95881842D01*
X162715000Y-96168740D01*
X162715000Y-96461260D01*
X162772068Y-96748158D01*
X162884010Y-97018411D01*
X163046525Y-97261632D01*
X163253368Y-97468475D01*
X163496589Y-97630990D01*
X163766842Y-97742932D01*
X164053740Y-97800000D01*
X164346260Y-97800000D01*
X164633158Y-97742932D01*
X164903411Y-97630990D01*
X165146632Y-97468475D01*
X165340000Y-97275107D01*
X165340000Y-100434893D01*
X165146632Y-100241525D01*
X164903411Y-100079010D01*
X164633158Y-99967068D01*
X164346260Y-99910000D01*
X164053740Y-99910000D01*
X163766842Y-99967068D01*
X163496589Y-100079010D01*
X163253368Y-100241525D01*
X163046525Y-100448368D01*
X162884010Y-100691589D01*
X162772068Y-100961842D01*
X162715000Y-101248740D01*
X162715000Y-101541260D01*
X162772068Y-101828158D01*
X162884010Y-102098411D01*
X163046525Y-102341632D01*
X163253368Y-102548475D01*
X163427760Y-102665000D01*
X163253368Y-102781525D01*
X163046525Y-102988368D01*
X162884010Y-103231589D01*
X162772068Y-103501842D01*
X162715000Y-103788740D01*
X162715000Y-104081260D01*
X162772068Y-104368158D01*
X162884010Y-104638411D01*
X163046525Y-104881632D01*
X163253368Y-105088475D01*
X163496589Y-105250990D01*
X163766842Y-105362932D01*
X164053740Y-105420000D01*
X164346260Y-105420000D01*
X164633158Y-105362932D01*
X164903411Y-105250990D01*
X165146632Y-105088475D01*
X165340001Y-104895106D01*
X165340001Y-143467712D01*
X165320898Y-143662540D01*
X165273692Y-143818895D01*
X165197018Y-143963096D01*
X165093792Y-144089664D01*
X164967951Y-144193768D01*
X164824289Y-144271447D01*
X164668271Y-144319742D01*
X164475527Y-144340000D01*
X111532277Y-144340000D01*
X111337460Y-144320898D01*
X111181105Y-144273692D01*
X111036904Y-144197018D01*
X110910336Y-144093792D01*
X110806232Y-143967951D01*
X110728553Y-143824289D01*
X110680258Y-143668271D01*
X110660000Y-143475527D01*
X110660000Y-142308061D01*
X120385000Y-142308061D01*
X120385000Y-142511939D01*
X120424774Y-142711898D01*
X120502795Y-142900256D01*
X120616063Y-143069774D01*
X120760226Y-143213937D01*
X120929744Y-143327205D01*
X121118102Y-143405226D01*
X121318061Y-143445000D01*
X121521939Y-143445000D01*
X121721898Y-143405226D01*
X121910256Y-143327205D01*
X121920000Y-143320694D01*
X121929744Y-143327205D01*
X122118102Y-143405226D01*
X122318061Y-143445000D01*
X122521939Y-143445000D01*
X122721898Y-143405226D01*
X122910256Y-143327205D01*
X122920000Y-143320694D01*
X122929744Y-143327205D01*
X123118102Y-143405226D01*
X123318061Y-143445000D01*
X123521939Y-143445000D01*
X123721898Y-143405226D01*
X123910256Y-143327205D01*
X123920000Y-143320694D01*
X123929744Y-143327205D01*
X124118102Y-143405226D01*
X124318061Y-143445000D01*
X124521939Y-143445000D01*
X124721898Y-143405226D01*
X124910256Y-143327205D01*
X124920000Y-143320694D01*
X124929744Y-143327205D01*
X125118102Y-143405226D01*
X125318061Y-143445000D01*
X125521939Y-143445000D01*
X125721898Y-143405226D01*
X125910256Y-143327205D01*
X125920000Y-143320694D01*
X125929744Y-143327205D01*
X126118102Y-143405226D01*
X126318061Y-143445000D01*
X126521939Y-143445000D01*
X126721898Y-143405226D01*
X126910256Y-143327205D01*
X126920000Y-143320694D01*
X126929744Y-143327205D01*
X127118102Y-143405226D01*
X127318061Y-143445000D01*
X127521939Y-143445000D01*
X127721898Y-143405226D01*
X127910256Y-143327205D01*
X127920000Y-143320694D01*
X127929744Y-143327205D01*
X128118102Y-143405226D01*
X128318061Y-143445000D01*
X128521939Y-143445000D01*
X128721898Y-143405226D01*
X128910256Y-143327205D01*
X129079774Y-143213937D01*
X129223937Y-143069774D01*
X129337205Y-142900256D01*
X129415226Y-142711898D01*
X129455000Y-142511939D01*
X129455000Y-142318061D01*
X154755000Y-142318061D01*
X154755000Y-142521939D01*
X154794774Y-142721898D01*
X154872795Y-142910256D01*
X154986063Y-143079774D01*
X155130226Y-143223937D01*
X155299744Y-143337205D01*
X155488102Y-143415226D01*
X155688061Y-143455000D01*
X155891939Y-143455000D01*
X156091898Y-143415226D01*
X156280256Y-143337205D01*
X156290000Y-143330694D01*
X156299744Y-143337205D01*
X156488102Y-143415226D01*
X156688061Y-143455000D01*
X156891939Y-143455000D01*
X157091898Y-143415226D01*
X157280256Y-143337205D01*
X157290000Y-143330694D01*
X157299744Y-143337205D01*
X157488102Y-143415226D01*
X157688061Y-143455000D01*
X157891939Y-143455000D01*
X158091898Y-143415226D01*
X158280256Y-143337205D01*
X158290000Y-143330694D01*
X158299744Y-143337205D01*
X158488102Y-143415226D01*
X158688061Y-143455000D01*
X158891939Y-143455000D01*
X159091898Y-143415226D01*
X159280256Y-143337205D01*
X159449774Y-143223937D01*
X159593937Y-143079774D01*
X159707205Y-142910256D01*
X159785226Y-142721898D01*
X159825000Y-142521939D01*
X159825000Y-142318061D01*
X159785226Y-142118102D01*
X159707205Y-141929744D01*
X159593937Y-141760226D01*
X159449774Y-141616063D01*
X159280256Y-141502795D01*
X159091898Y-141424774D01*
X158891939Y-141385000D01*
X158688061Y-141385000D01*
X158488102Y-141424774D01*
X158299744Y-141502795D01*
X158290000Y-141509306D01*
X158280256Y-141502795D01*
X158091898Y-141424774D01*
X157891939Y-141385000D01*
X157688061Y-141385000D01*
X157488102Y-141424774D01*
X157299744Y-141502795D01*
X157290000Y-141509306D01*
X157280256Y-141502795D01*
X157091898Y-141424774D01*
X156891939Y-141385000D01*
X156688061Y-141385000D01*
X156488102Y-141424774D01*
X156299744Y-141502795D01*
X156290000Y-141509306D01*
X156280256Y-141502795D01*
X156091898Y-141424774D01*
X155891939Y-141385000D01*
X155688061Y-141385000D01*
X155488102Y-141424774D01*
X155299744Y-141502795D01*
X155130226Y-141616063D01*
X154986063Y-141760226D01*
X154872795Y-141929744D01*
X154794774Y-142118102D01*
X154755000Y-142318061D01*
X129455000Y-142318061D01*
X129455000Y-142308061D01*
X129415226Y-142108102D01*
X129337205Y-141919744D01*
X129223937Y-141750226D01*
X129079774Y-141606063D01*
X128910256Y-141492795D01*
X128721898Y-141414774D01*
X128521939Y-141375000D01*
X128318061Y-141375000D01*
X128118102Y-141414774D01*
X127929744Y-141492795D01*
X127920000Y-141499306D01*
X127910256Y-141492795D01*
X127721898Y-141414774D01*
X127521939Y-141375000D01*
X127318061Y-141375000D01*
X127118102Y-141414774D01*
X126929744Y-141492795D01*
X126920000Y-141499306D01*
X126910256Y-141492795D01*
X126721898Y-141414774D01*
X126521939Y-141375000D01*
X126318061Y-141375000D01*
X126118102Y-141414774D01*
X125929744Y-141492795D01*
X125920000Y-141499306D01*
X125910256Y-141492795D01*
X125721898Y-141414774D01*
X125521939Y-141375000D01*
X125318061Y-141375000D01*
X125118102Y-141414774D01*
X124929744Y-141492795D01*
X124920000Y-141499306D01*
X124910256Y-141492795D01*
X124721898Y-141414774D01*
X124521939Y-141375000D01*
X124318061Y-141375000D01*
X124118102Y-141414774D01*
X123929744Y-141492795D01*
X123920000Y-141499306D01*
X123910256Y-141492795D01*
X123721898Y-141414774D01*
X123521939Y-141375000D01*
X123318061Y-141375000D01*
X123118102Y-141414774D01*
X122929744Y-141492795D01*
X122920000Y-141499306D01*
X122910256Y-141492795D01*
X122721898Y-141414774D01*
X122521939Y-141375000D01*
X122318061Y-141375000D01*
X122118102Y-141414774D01*
X121929744Y-141492795D01*
X121920000Y-141499306D01*
X121910256Y-141492795D01*
X121721898Y-141414774D01*
X121521939Y-141375000D01*
X121318061Y-141375000D01*
X121118102Y-141414774D01*
X120929744Y-141492795D01*
X120760226Y-141606063D01*
X120616063Y-141750226D01*
X120502795Y-141919744D01*
X120424774Y-142108102D01*
X120385000Y-142308061D01*
X110660000Y-142308061D01*
X110660000Y-116368061D01*
X124385000Y-116368061D01*
X124385000Y-116571939D01*
X124424774Y-116771898D01*
X124502795Y-116960256D01*
X124616063Y-117129774D01*
X124760226Y-117273937D01*
X124929744Y-117387205D01*
X125118102Y-117465226D01*
X125318061Y-117505000D01*
X125521939Y-117505000D01*
X125721898Y-117465226D01*
X125910256Y-117387205D01*
X125920000Y-117380694D01*
X125929744Y-117387205D01*
X126118102Y-117465226D01*
X126318061Y-117505000D01*
X126521939Y-117505000D01*
X126721898Y-117465226D01*
X126910256Y-117387205D01*
X126920000Y-117380694D01*
X126929744Y-117387205D01*
X127118102Y-117465226D01*
X127318061Y-117505000D01*
X127521939Y-117505000D01*
X127721898Y-117465226D01*
X127910256Y-117387205D01*
X127920000Y-117380694D01*
X127929744Y-117387205D01*
X128118102Y-117465226D01*
X128318061Y-117505000D01*
X128521939Y-117505000D01*
X128721898Y-117465226D01*
X128910256Y-117387205D01*
X128920000Y-117380694D01*
X128929744Y-117387205D01*
X129118102Y-117465226D01*
X129318061Y-117505000D01*
X129521939Y-117505000D01*
X129721898Y-117465226D01*
X129910256Y-117387205D01*
X129920000Y-117380694D01*
X129929744Y-117387205D01*
X130118102Y-117465226D01*
X130318061Y-117505000D01*
X130521939Y-117505000D01*
X130721898Y-117465226D01*
X130910256Y-117387205D01*
X130920000Y-117380694D01*
X130929744Y-117387205D01*
X131118102Y-117465226D01*
X131318061Y-117505000D01*
X131521939Y-117505000D01*
X131721898Y-117465226D01*
X131910256Y-117387205D01*
X131920000Y-117380694D01*
X131929744Y-117387205D01*
X132118102Y-117465226D01*
X132318061Y-117505000D01*
X132521939Y-117505000D01*
X132721898Y-117465226D01*
X132910256Y-117387205D01*
X133079774Y-117273937D01*
X133223937Y-117129774D01*
X133337205Y-116960256D01*
X133415226Y-116771898D01*
X133455000Y-116571939D01*
X133455000Y-116378061D01*
X146535000Y-116378061D01*
X146535000Y-116581939D01*
X146574774Y-116781898D01*
X146652795Y-116970256D01*
X146766063Y-117139774D01*
X146910226Y-117283937D01*
X147079744Y-117397205D01*
X147268102Y-117475226D01*
X147468061Y-117515000D01*
X147565554Y-117515000D01*
X150254746Y-120204193D01*
X150277762Y-120232238D01*
X150389680Y-120324087D01*
X150517367Y-120392337D01*
X150655915Y-120434365D01*
X150800000Y-120448556D01*
X150836105Y-120445000D01*
X154103895Y-120445000D01*
X154140000Y-120448556D01*
X154176105Y-120445000D01*
X154284085Y-120434365D01*
X154422633Y-120392337D01*
X154550320Y-120324087D01*
X154662238Y-120232238D01*
X154685258Y-120204188D01*
X155834192Y-119055255D01*
X155862237Y-119032239D01*
X155954086Y-118920321D01*
X156022336Y-118792634D01*
X156064364Y-118654086D01*
X156074999Y-118546106D01*
X156078555Y-118510001D01*
X156074999Y-118473896D01*
X156074999Y-108370490D01*
X156219744Y-108467205D01*
X156408102Y-108545226D01*
X156608061Y-108585000D01*
X156811939Y-108585000D01*
X157011898Y-108545226D01*
X157200256Y-108467205D01*
X157369774Y-108353937D01*
X157513937Y-108209774D01*
X157627205Y-108040256D01*
X157705226Y-107851898D01*
X157745000Y-107651939D01*
X157745000Y-107448061D01*
X157705226Y-107248102D01*
X157627205Y-107059744D01*
X157620694Y-107050000D01*
X157627205Y-107040256D01*
X157705226Y-106851898D01*
X157745000Y-106651939D01*
X157745000Y-106448061D01*
X157705226Y-106248102D01*
X157627205Y-106059744D01*
X157620694Y-106050000D01*
X157627205Y-106040256D01*
X157705226Y-105851898D01*
X157745000Y-105651939D01*
X157745000Y-105448061D01*
X157705226Y-105248102D01*
X157627205Y-105059744D01*
X157620694Y-105050000D01*
X157627205Y-105040256D01*
X157705226Y-104851898D01*
X157745000Y-104651939D01*
X157745000Y-104448061D01*
X157705226Y-104248102D01*
X157627205Y-104059744D01*
X157513937Y-103890226D01*
X157369774Y-103746063D01*
X157200256Y-103632795D01*
X157011898Y-103554774D01*
X156811939Y-103515000D01*
X156608061Y-103515000D01*
X156408102Y-103554774D01*
X156219744Y-103632795D01*
X156074999Y-103729510D01*
X156074999Y-88125000D01*
X156141939Y-88125000D01*
X156341898Y-88085226D01*
X156530256Y-88007205D01*
X156699774Y-87893937D01*
X156843937Y-87749774D01*
X156957205Y-87580256D01*
X157035226Y-87391898D01*
X157064446Y-87245000D01*
X157131939Y-87245000D01*
X157331898Y-87205226D01*
X157520256Y-87127205D01*
X157689774Y-87013937D01*
X157833937Y-86869774D01*
X157947205Y-86700256D01*
X158025226Y-86511898D01*
X158065000Y-86311939D01*
X158065000Y-86108061D01*
X158025226Y-85908102D01*
X157947205Y-85719744D01*
X157833937Y-85550226D01*
X157689774Y-85406063D01*
X157520256Y-85292795D01*
X157331898Y-85214774D01*
X157131939Y-85175000D01*
X156928061Y-85175000D01*
X156728102Y-85214774D01*
X156539744Y-85292795D01*
X156370226Y-85406063D01*
X156226063Y-85550226D01*
X156112795Y-85719744D01*
X156074999Y-85810991D01*
X156074999Y-84756093D01*
X156078554Y-84719998D01*
X156074999Y-84683903D01*
X156074999Y-84683894D01*
X156064364Y-84575914D01*
X156022336Y-84437366D01*
X155954086Y-84309679D01*
X155905294Y-84250226D01*
X155885252Y-84225805D01*
X155885249Y-84225802D01*
X155862236Y-84197761D01*
X155834196Y-84174749D01*
X155425000Y-83765553D01*
X155425000Y-83668061D01*
X155385226Y-83468102D01*
X155307205Y-83279744D01*
X155300694Y-83270000D01*
X155307205Y-83260256D01*
X155385226Y-83071898D01*
X155425000Y-82871939D01*
X155425000Y-82668061D01*
X155385226Y-82468102D01*
X155307205Y-82279744D01*
X155300694Y-82270000D01*
X155307205Y-82260256D01*
X155385226Y-82071898D01*
X155425000Y-81871939D01*
X155425000Y-81668061D01*
X155385226Y-81468102D01*
X155307205Y-81279744D01*
X155300694Y-81270000D01*
X155307205Y-81260256D01*
X155385226Y-81071898D01*
X155425000Y-80871939D01*
X155425000Y-80668061D01*
X155385226Y-80468102D01*
X155307205Y-80279744D01*
X155300694Y-80270000D01*
X155307205Y-80260256D01*
X155385226Y-80071898D01*
X155425000Y-79871939D01*
X155425000Y-79668061D01*
X155385226Y-79468102D01*
X155307205Y-79279744D01*
X155193937Y-79110226D01*
X155049774Y-78966063D01*
X154880256Y-78852795D01*
X154691898Y-78774774D01*
X154491939Y-78735000D01*
X154288061Y-78735000D01*
X154088102Y-78774774D01*
X153899744Y-78852795D01*
X153730226Y-78966063D01*
X153586063Y-79110226D01*
X153472795Y-79279744D01*
X153394774Y-79468102D01*
X153355000Y-79668061D01*
X153355000Y-79871939D01*
X153394774Y-80071898D01*
X153472795Y-80260256D01*
X153479306Y-80270000D01*
X153472795Y-80279744D01*
X153394774Y-80468102D01*
X153355000Y-80668061D01*
X153355000Y-80871939D01*
X153394774Y-81071898D01*
X153472795Y-81260256D01*
X153479306Y-81270000D01*
X153472795Y-81279744D01*
X153394774Y-81468102D01*
X153355000Y-81668061D01*
X153355000Y-81871939D01*
X153394774Y-82071898D01*
X153472795Y-82260256D01*
X153479306Y-82270000D01*
X153472795Y-82279744D01*
X153394774Y-82468102D01*
X153355000Y-82668061D01*
X153355000Y-82871939D01*
X153394774Y-83071898D01*
X153472795Y-83260256D01*
X153479306Y-83270000D01*
X153472795Y-83279744D01*
X153394774Y-83468102D01*
X153355000Y-83668061D01*
X153355000Y-83735000D01*
X153288061Y-83735000D01*
X153088102Y-83774774D01*
X152899744Y-83852795D01*
X152890000Y-83859306D01*
X152880256Y-83852795D01*
X152691898Y-83774774D01*
X152491939Y-83735000D01*
X152288061Y-83735000D01*
X152088102Y-83774774D01*
X151899744Y-83852795D01*
X151730226Y-83966063D01*
X151586063Y-84110226D01*
X151472795Y-84279744D01*
X151430979Y-84380697D01*
X151403937Y-84340226D01*
X151259774Y-84196063D01*
X151090256Y-84082795D01*
X150901898Y-84004774D01*
X150701939Y-83965000D01*
X150498061Y-83965000D01*
X150298102Y-84004774D01*
X150109744Y-84082795D01*
X149940226Y-84196063D01*
X149796063Y-84340226D01*
X149682795Y-84509744D01*
X149604774Y-84698102D01*
X149565000Y-84898061D01*
X149565000Y-85101939D01*
X149604774Y-85301898D01*
X149682795Y-85490256D01*
X149796063Y-85659774D01*
X149940226Y-85803937D01*
X150109744Y-85917205D01*
X150298102Y-85995226D01*
X150498061Y-86035000D01*
X150701939Y-86035000D01*
X150901898Y-85995226D01*
X151090256Y-85917205D01*
X151259774Y-85803937D01*
X151403937Y-85659774D01*
X151517205Y-85490256D01*
X151559021Y-85389303D01*
X151586063Y-85429774D01*
X151730226Y-85573937D01*
X151899744Y-85687205D01*
X152088102Y-85765226D01*
X152255002Y-85798424D01*
X152255001Y-112313917D01*
X152251445Y-112350022D01*
X152255001Y-112386126D01*
X152265636Y-112494106D01*
X152307664Y-112632654D01*
X152375914Y-112760341D01*
X152467763Y-112872259D01*
X152495809Y-112895276D01*
X153804980Y-114204448D01*
X153804979Y-117874178D01*
X153504178Y-118174980D01*
X152304427Y-118174980D01*
X151321579Y-117192132D01*
X151373937Y-117139774D01*
X151487205Y-116970256D01*
X151565226Y-116781898D01*
X151605000Y-116581939D01*
X151605000Y-116484446D01*
X151794188Y-116295258D01*
X151822239Y-116272237D01*
X151914088Y-116160319D01*
X151982338Y-116032632D01*
X152024366Y-115894084D01*
X152035001Y-115786104D01*
X152035001Y-115786095D01*
X152038556Y-115750000D01*
X152035001Y-115713905D01*
X152035001Y-88790093D01*
X152038556Y-88753998D01*
X152035001Y-88717903D01*
X152035001Y-88717894D01*
X152024366Y-88609914D01*
X151982338Y-88471366D01*
X151914088Y-88343679D01*
X151897515Y-88323486D01*
X151845254Y-88259805D01*
X151845251Y-88259802D01*
X151822238Y-88231761D01*
X151794198Y-88208749D01*
X150671260Y-87085812D01*
X150648240Y-87057762D01*
X150536322Y-86965913D01*
X150408635Y-86897663D01*
X150270087Y-86855635D01*
X150162107Y-86845000D01*
X150126002Y-86841444D01*
X150089897Y-86845000D01*
X149328711Y-86845000D01*
X149259774Y-86776063D01*
X149090256Y-86662795D01*
X148901898Y-86584774D01*
X148701939Y-86545000D01*
X148498061Y-86545000D01*
X148298102Y-86584774D01*
X148109744Y-86662795D01*
X147940226Y-86776063D01*
X147796063Y-86920226D01*
X147682795Y-87089744D01*
X147604774Y-87278102D01*
X147565000Y-87478061D01*
X147565000Y-87681939D01*
X147604774Y-87881898D01*
X147682795Y-88070256D01*
X147796063Y-88239774D01*
X147940226Y-88383937D01*
X148109744Y-88497205D01*
X148298102Y-88575226D01*
X148498061Y-88615000D01*
X148701939Y-88615000D01*
X148901898Y-88575226D01*
X149090256Y-88497205D01*
X149259774Y-88383937D01*
X149328711Y-88315000D01*
X149821556Y-88315000D01*
X149866422Y-88359867D01*
X149796063Y-88430226D01*
X149682795Y-88599744D01*
X149604774Y-88788102D01*
X149565000Y-88988061D01*
X149565000Y-89191939D01*
X149604774Y-89391898D01*
X149682795Y-89580256D01*
X149796063Y-89749774D01*
X149940226Y-89893937D01*
X150109744Y-90007205D01*
X150298102Y-90085226D01*
X150498061Y-90125000D01*
X150565001Y-90125000D01*
X150565001Y-100076446D01*
X150453937Y-99910226D01*
X150309774Y-99766063D01*
X150140256Y-99652795D01*
X149951898Y-99574774D01*
X149751939Y-99535000D01*
X149548061Y-99535000D01*
X149348102Y-99574774D01*
X149159744Y-99652795D01*
X148990226Y-99766063D01*
X148846063Y-99910226D01*
X148732795Y-100079744D01*
X148654774Y-100268102D01*
X148615000Y-100468061D01*
X148615000Y-100671939D01*
X148654774Y-100871898D01*
X148732795Y-101060256D01*
X148739306Y-101070000D01*
X148732795Y-101079744D01*
X148654774Y-101268102D01*
X148615000Y-101468061D01*
X148615000Y-101671939D01*
X148654774Y-101871898D01*
X148732795Y-102060256D01*
X148739306Y-102070000D01*
X148732795Y-102079744D01*
X148654774Y-102268102D01*
X148615000Y-102468061D01*
X148615000Y-102671939D01*
X148654774Y-102871898D01*
X148732795Y-103060256D01*
X148739306Y-103070000D01*
X148732795Y-103079744D01*
X148654774Y-103268102D01*
X148615000Y-103468061D01*
X148615000Y-103671939D01*
X148654774Y-103871898D01*
X148732795Y-104060256D01*
X148739306Y-104070000D01*
X148732795Y-104079744D01*
X148654774Y-104268102D01*
X148615000Y-104468061D01*
X148615000Y-104671939D01*
X148654774Y-104871898D01*
X148732795Y-105060256D01*
X148739306Y-105070000D01*
X148732795Y-105079744D01*
X148654774Y-105268102D01*
X148615000Y-105468061D01*
X148615000Y-105671939D01*
X148654774Y-105871898D01*
X148732795Y-106060256D01*
X148739306Y-106070000D01*
X148732795Y-106079744D01*
X148654774Y-106268102D01*
X148615000Y-106468061D01*
X148615000Y-106671939D01*
X148654774Y-106871898D01*
X148732795Y-107060256D01*
X148739306Y-107070000D01*
X148732795Y-107079744D01*
X148654774Y-107268102D01*
X148615000Y-107468061D01*
X148615000Y-107671939D01*
X148654774Y-107871898D01*
X148732795Y-108060256D01*
X148846063Y-108229774D01*
X148990226Y-108373937D01*
X149159744Y-108487205D01*
X149348102Y-108565226D01*
X149548061Y-108605000D01*
X149751939Y-108605000D01*
X149951898Y-108565226D01*
X150140256Y-108487205D01*
X150309774Y-108373937D01*
X150453937Y-108229774D01*
X150565002Y-108063553D01*
X150565002Y-115445000D01*
X150468061Y-115445000D01*
X150268102Y-115484774D01*
X150079744Y-115562795D01*
X150070000Y-115569306D01*
X150060256Y-115562795D01*
X149871898Y-115484774D01*
X149671939Y-115445000D01*
X149468061Y-115445000D01*
X149268102Y-115484774D01*
X149079744Y-115562795D01*
X149070000Y-115569306D01*
X149060256Y-115562795D01*
X148871898Y-115484774D01*
X148671939Y-115445000D01*
X148468061Y-115445000D01*
X148268102Y-115484774D01*
X148079744Y-115562795D01*
X148070000Y-115569306D01*
X148060256Y-115562795D01*
X147871898Y-115484774D01*
X147671939Y-115445000D01*
X147468061Y-115445000D01*
X147268102Y-115484774D01*
X147079744Y-115562795D01*
X146910226Y-115676063D01*
X146766063Y-115820226D01*
X146652795Y-115989744D01*
X146574774Y-116178102D01*
X146535000Y-116378061D01*
X133455000Y-116378061D01*
X133455000Y-116368061D01*
X133415226Y-116168102D01*
X133337205Y-115979744D01*
X133223937Y-115810226D01*
X133079774Y-115666063D01*
X132910256Y-115552795D01*
X132721898Y-115474774D01*
X132521939Y-115435000D01*
X132318061Y-115435000D01*
X132118102Y-115474774D01*
X131929744Y-115552795D01*
X131920000Y-115559306D01*
X131910256Y-115552795D01*
X131721898Y-115474774D01*
X131521939Y-115435000D01*
X131318061Y-115435000D01*
X131118102Y-115474774D01*
X130929744Y-115552795D01*
X130920000Y-115559306D01*
X130910256Y-115552795D01*
X130721898Y-115474774D01*
X130521939Y-115435000D01*
X130318061Y-115435000D01*
X130118102Y-115474774D01*
X129929744Y-115552795D01*
X129920000Y-115559306D01*
X129910256Y-115552795D01*
X129721898Y-115474774D01*
X129521939Y-115435000D01*
X129318061Y-115435000D01*
X129118102Y-115474774D01*
X128929744Y-115552795D01*
X128920000Y-115559306D01*
X128910256Y-115552795D01*
X128721898Y-115474774D01*
X128521939Y-115435000D01*
X128318061Y-115435000D01*
X128118102Y-115474774D01*
X127929744Y-115552795D01*
X127920000Y-115559306D01*
X127910256Y-115552795D01*
X127721898Y-115474774D01*
X127521939Y-115435000D01*
X127318061Y-115435000D01*
X127118102Y-115474774D01*
X126929744Y-115552795D01*
X126920000Y-115559306D01*
X126910256Y-115552795D01*
X126721898Y-115474774D01*
X126521939Y-115435000D01*
X126318061Y-115435000D01*
X126118102Y-115474774D01*
X125929744Y-115552795D01*
X125920000Y-115559306D01*
X125910256Y-115552795D01*
X125721898Y-115474774D01*
X125521939Y-115435000D01*
X125318061Y-115435000D01*
X125118102Y-115474774D01*
X124929744Y-115552795D01*
X124760226Y-115666063D01*
X124616063Y-115810226D01*
X124502795Y-115979744D01*
X124424774Y-116168102D01*
X124385000Y-116368061D01*
X110660000Y-116368061D01*
X110660000Y-100340000D01*
X112061928Y-100340000D01*
X112061928Y-102440000D01*
X112074188Y-102564482D01*
X112110498Y-102684180D01*
X112169463Y-102794494D01*
X112248815Y-102891185D01*
X112345506Y-102970537D01*
X112455820Y-103029502D01*
X112575518Y-103065812D01*
X112700000Y-103078072D01*
X114800000Y-103078072D01*
X114924482Y-103065812D01*
X115044180Y-103029502D01*
X115154494Y-102970537D01*
X115251185Y-102891185D01*
X115330537Y-102794494D01*
X115371740Y-102717408D01*
X119973000Y-102717408D01*
X119973000Y-102992592D01*
X120026686Y-103262490D01*
X120131995Y-103516727D01*
X120284880Y-103745535D01*
X120479465Y-103940120D01*
X120708273Y-104093005D01*
X120962510Y-104198314D01*
X121232408Y-104252000D01*
X121507592Y-104252000D01*
X121777490Y-104198314D01*
X122031727Y-104093005D01*
X122260535Y-103940120D01*
X122455120Y-103745535D01*
X122608005Y-103516727D01*
X122713314Y-103262490D01*
X122767000Y-102992592D01*
X122767000Y-102717408D01*
X127593000Y-102717408D01*
X127593000Y-102992592D01*
X127646686Y-103262490D01*
X127751995Y-103516727D01*
X127904880Y-103745535D01*
X128099465Y-103940120D01*
X128328273Y-104093005D01*
X128582510Y-104198314D01*
X128852408Y-104252000D01*
X129127592Y-104252000D01*
X129397490Y-104198314D01*
X129651727Y-104093005D01*
X129880535Y-103940120D01*
X130075120Y-103745535D01*
X130228005Y-103516727D01*
X130333314Y-103262490D01*
X130387000Y-102992592D01*
X130387000Y-102717408D01*
X135213000Y-102717408D01*
X135213000Y-102992592D01*
X135266686Y-103262490D01*
X135371995Y-103516727D01*
X135524880Y-103745535D01*
X135719465Y-103940120D01*
X135948273Y-104093005D01*
X136202510Y-104198314D01*
X136472408Y-104252000D01*
X136747592Y-104252000D01*
X137017490Y-104198314D01*
X137271727Y-104093005D01*
X137500535Y-103940120D01*
X137695120Y-103745535D01*
X137848005Y-103516727D01*
X137880000Y-103439485D01*
X137911995Y-103516727D01*
X138064880Y-103745535D01*
X138259465Y-103940120D01*
X138488273Y-104093005D01*
X138742510Y-104198314D01*
X139012408Y-104252000D01*
X139287592Y-104252000D01*
X139557490Y-104198314D01*
X139811727Y-104093005D01*
X140040535Y-103940120D01*
X140235120Y-103745535D01*
X140388005Y-103516727D01*
X140493314Y-103262490D01*
X140547000Y-102992592D01*
X140547000Y-102717408D01*
X140493314Y-102447510D01*
X140388005Y-102193273D01*
X140235120Y-101964465D01*
X140040535Y-101769880D01*
X139811727Y-101616995D01*
X139557490Y-101511686D01*
X139287592Y-101458000D01*
X139012408Y-101458000D01*
X138742510Y-101511686D01*
X138488273Y-101616995D01*
X138259465Y-101769880D01*
X138064880Y-101964465D01*
X137911995Y-102193273D01*
X137880000Y-102270515D01*
X137848005Y-102193273D01*
X137695120Y-101964465D01*
X137500535Y-101769880D01*
X137271727Y-101616995D01*
X137017490Y-101511686D01*
X136747592Y-101458000D01*
X136472408Y-101458000D01*
X136202510Y-101511686D01*
X135948273Y-101616995D01*
X135719465Y-101769880D01*
X135524880Y-101964465D01*
X135371995Y-102193273D01*
X135266686Y-102447510D01*
X135213000Y-102717408D01*
X130387000Y-102717408D01*
X130333314Y-102447510D01*
X130228005Y-102193273D01*
X130075120Y-101964465D01*
X129880535Y-101769880D01*
X129651727Y-101616995D01*
X129397490Y-101511686D01*
X129127592Y-101458000D01*
X128852408Y-101458000D01*
X128582510Y-101511686D01*
X128328273Y-101616995D01*
X128099465Y-101769880D01*
X127904880Y-101964465D01*
X127751995Y-102193273D01*
X127646686Y-102447510D01*
X127593000Y-102717408D01*
X122767000Y-102717408D01*
X122713314Y-102447510D01*
X122608005Y-102193273D01*
X122455120Y-101964465D01*
X122260535Y-101769880D01*
X122031727Y-101616995D01*
X121777490Y-101511686D01*
X121507592Y-101458000D01*
X121232408Y-101458000D01*
X120962510Y-101511686D01*
X120708273Y-101616995D01*
X120479465Y-101769880D01*
X120284880Y-101964465D01*
X120131995Y-102193273D01*
X120026686Y-102447510D01*
X119973000Y-102717408D01*
X115371740Y-102717408D01*
X115389502Y-102684180D01*
X115425812Y-102564482D01*
X115438072Y-102440000D01*
X115438072Y-100340000D01*
X115425812Y-100215518D01*
X115389502Y-100095820D01*
X115330537Y-99985506D01*
X115251185Y-99888815D01*
X115154494Y-99809463D01*
X115044180Y-99750498D01*
X114924482Y-99714188D01*
X114800000Y-99701928D01*
X112700000Y-99701928D01*
X112575518Y-99714188D01*
X112455820Y-99750498D01*
X112345506Y-99809463D01*
X112248815Y-99888815D01*
X112169463Y-99985506D01*
X112110498Y-100095820D01*
X112074188Y-100215518D01*
X112061928Y-100340000D01*
X110660000Y-100340000D01*
X110660000Y-96144042D01*
X112065000Y-96144042D01*
X112065000Y-96475958D01*
X112129754Y-96801496D01*
X112256772Y-97108147D01*
X112441175Y-97384125D01*
X112675875Y-97618825D01*
X112951853Y-97803228D01*
X113258504Y-97930246D01*
X113584042Y-97995000D01*
X113915958Y-97995000D01*
X114241496Y-97930246D01*
X114548147Y-97803228D01*
X114824125Y-97618825D01*
X115058825Y-97384125D01*
X115243228Y-97108147D01*
X115370246Y-96801496D01*
X115397912Y-96662408D01*
X119973000Y-96662408D01*
X119973000Y-96937592D01*
X120026686Y-97207490D01*
X120131995Y-97461727D01*
X120284880Y-97690535D01*
X120479465Y-97885120D01*
X120708273Y-98038005D01*
X120962510Y-98143314D01*
X121232408Y-98197000D01*
X121507592Y-98197000D01*
X121777490Y-98143314D01*
X122031727Y-98038005D01*
X122260535Y-97885120D01*
X122455120Y-97690535D01*
X122608005Y-97461727D01*
X122713314Y-97207490D01*
X122767000Y-96937592D01*
X122767000Y-96662408D01*
X127593000Y-96662408D01*
X127593000Y-96937592D01*
X127646686Y-97207490D01*
X127751995Y-97461727D01*
X127904880Y-97690535D01*
X128099465Y-97885120D01*
X128328273Y-98038005D01*
X128582510Y-98143314D01*
X128852408Y-98197000D01*
X129127592Y-98197000D01*
X129397490Y-98143314D01*
X129651727Y-98038005D01*
X129880535Y-97885120D01*
X130075120Y-97690535D01*
X130228005Y-97461727D01*
X130333314Y-97207490D01*
X130387000Y-96937592D01*
X130387000Y-96662408D01*
X135213000Y-96662408D01*
X135213000Y-96937592D01*
X135266686Y-97207490D01*
X135371995Y-97461727D01*
X135524880Y-97690535D01*
X135719465Y-97885120D01*
X135948273Y-98038005D01*
X136202510Y-98143314D01*
X136472408Y-98197000D01*
X136747592Y-98197000D01*
X137017490Y-98143314D01*
X137271727Y-98038005D01*
X137500535Y-97885120D01*
X137695120Y-97690535D01*
X137848005Y-97461727D01*
X137880000Y-97384485D01*
X137911995Y-97461727D01*
X138064880Y-97690535D01*
X138259465Y-97885120D01*
X138488273Y-98038005D01*
X138742510Y-98143314D01*
X139012408Y-98197000D01*
X139287592Y-98197000D01*
X139557490Y-98143314D01*
X139811727Y-98038005D01*
X140040535Y-97885120D01*
X140235120Y-97690535D01*
X140388005Y-97461727D01*
X140493314Y-97207490D01*
X140547000Y-96937592D01*
X140547000Y-96662408D01*
X140493314Y-96392510D01*
X140388005Y-96138273D01*
X140235120Y-95909465D01*
X140040535Y-95714880D01*
X139811727Y-95561995D01*
X139557490Y-95456686D01*
X139287592Y-95403000D01*
X139012408Y-95403000D01*
X138742510Y-95456686D01*
X138488273Y-95561995D01*
X138259465Y-95714880D01*
X138064880Y-95909465D01*
X137911995Y-96138273D01*
X137880000Y-96215515D01*
X137848005Y-96138273D01*
X137695120Y-95909465D01*
X137500535Y-95714880D01*
X137271727Y-95561995D01*
X137017490Y-95456686D01*
X136747592Y-95403000D01*
X136472408Y-95403000D01*
X136202510Y-95456686D01*
X135948273Y-95561995D01*
X135719465Y-95714880D01*
X135524880Y-95909465D01*
X135371995Y-96138273D01*
X135266686Y-96392510D01*
X135213000Y-96662408D01*
X130387000Y-96662408D01*
X130333314Y-96392510D01*
X130228005Y-96138273D01*
X130075120Y-95909465D01*
X129880535Y-95714880D01*
X129651727Y-95561995D01*
X129397490Y-95456686D01*
X129127592Y-95403000D01*
X128852408Y-95403000D01*
X128582510Y-95456686D01*
X128328273Y-95561995D01*
X128099465Y-95714880D01*
X127904880Y-95909465D01*
X127751995Y-96138273D01*
X127646686Y-96392510D01*
X127593000Y-96662408D01*
X122767000Y-96662408D01*
X122713314Y-96392510D01*
X122608005Y-96138273D01*
X122455120Y-95909465D01*
X122260535Y-95714880D01*
X122031727Y-95561995D01*
X121777490Y-95456686D01*
X121507592Y-95403000D01*
X121232408Y-95403000D01*
X120962510Y-95456686D01*
X120708273Y-95561995D01*
X120479465Y-95714880D01*
X120284880Y-95909465D01*
X120131995Y-96138273D01*
X120026686Y-96392510D01*
X119973000Y-96662408D01*
X115397912Y-96662408D01*
X115435000Y-96475958D01*
X115435000Y-96144042D01*
X115370246Y-95818504D01*
X115243228Y-95511853D01*
X115058825Y-95235875D01*
X114824125Y-95001175D01*
X114548147Y-94816772D01*
X114241496Y-94689754D01*
X113915958Y-94625000D01*
X113584042Y-94625000D01*
X113258504Y-94689754D01*
X112951853Y-94816772D01*
X112675875Y-95001175D01*
X112441175Y-95235875D01*
X112256772Y-95511853D01*
X112129754Y-95818504D01*
X112065000Y-96144042D01*
X110660000Y-96144042D01*
X110660000Y-91064042D01*
X112065000Y-91064042D01*
X112065000Y-91395958D01*
X112129754Y-91721496D01*
X112256772Y-92028147D01*
X112441175Y-92304125D01*
X112675875Y-92538825D01*
X112951853Y-92723228D01*
X113258504Y-92850246D01*
X113584042Y-92915000D01*
X113915958Y-92915000D01*
X114241496Y-92850246D01*
X114548147Y-92723228D01*
X114824125Y-92538825D01*
X115058825Y-92304125D01*
X115243228Y-92028147D01*
X115370246Y-91721496D01*
X115435000Y-91395958D01*
X115435000Y-91064042D01*
X115370246Y-90738504D01*
X115318016Y-90612408D01*
X119973000Y-90612408D01*
X119973000Y-90887592D01*
X120026686Y-91157490D01*
X120131995Y-91411727D01*
X120284880Y-91640535D01*
X120479465Y-91835120D01*
X120708273Y-91988005D01*
X120962510Y-92093314D01*
X121232408Y-92147000D01*
X121507592Y-92147000D01*
X121777490Y-92093314D01*
X122031727Y-91988005D01*
X122260535Y-91835120D01*
X122455120Y-91640535D01*
X122608005Y-91411727D01*
X122713314Y-91157490D01*
X122767000Y-90887592D01*
X122767000Y-90612408D01*
X127593000Y-90612408D01*
X127593000Y-90887592D01*
X127646686Y-91157490D01*
X127751995Y-91411727D01*
X127904880Y-91640535D01*
X128099465Y-91835120D01*
X128328273Y-91988005D01*
X128582510Y-92093314D01*
X128852408Y-92147000D01*
X129127592Y-92147000D01*
X129397490Y-92093314D01*
X129651727Y-91988005D01*
X129880535Y-91835120D01*
X130075120Y-91640535D01*
X130228005Y-91411727D01*
X130333314Y-91157490D01*
X130387000Y-90887592D01*
X130387000Y-90612408D01*
X135213000Y-90612408D01*
X135213000Y-90887592D01*
X135266686Y-91157490D01*
X135371995Y-91411727D01*
X135524880Y-91640535D01*
X135719465Y-91835120D01*
X135948273Y-91988005D01*
X136202510Y-92093314D01*
X136472408Y-92147000D01*
X136747592Y-92147000D01*
X137017490Y-92093314D01*
X137271727Y-91988005D01*
X137500535Y-91835120D01*
X137695120Y-91640535D01*
X137848005Y-91411727D01*
X137880000Y-91334485D01*
X137911995Y-91411727D01*
X138064880Y-91640535D01*
X138259465Y-91835120D01*
X138488273Y-91988005D01*
X138742510Y-92093314D01*
X139012408Y-92147000D01*
X139287592Y-92147000D01*
X139557490Y-92093314D01*
X139811727Y-91988005D01*
X140040535Y-91835120D01*
X140235120Y-91640535D01*
X140388005Y-91411727D01*
X140493314Y-91157490D01*
X140547000Y-90887592D01*
X140547000Y-90612408D01*
X140493314Y-90342510D01*
X140388005Y-90088273D01*
X140235120Y-89859465D01*
X140040535Y-89664880D01*
X139811727Y-89511995D01*
X139557490Y-89406686D01*
X139287592Y-89353000D01*
X139012408Y-89353000D01*
X138742510Y-89406686D01*
X138488273Y-89511995D01*
X138259465Y-89664880D01*
X138064880Y-89859465D01*
X137911995Y-90088273D01*
X137880000Y-90165515D01*
X137848005Y-90088273D01*
X137695120Y-89859465D01*
X137500535Y-89664880D01*
X137271727Y-89511995D01*
X137017490Y-89406686D01*
X136747592Y-89353000D01*
X136472408Y-89353000D01*
X136202510Y-89406686D01*
X135948273Y-89511995D01*
X135719465Y-89664880D01*
X135524880Y-89859465D01*
X135371995Y-90088273D01*
X135266686Y-90342510D01*
X135213000Y-90612408D01*
X130387000Y-90612408D01*
X130333314Y-90342510D01*
X130228005Y-90088273D01*
X130075120Y-89859465D01*
X129880535Y-89664880D01*
X129651727Y-89511995D01*
X129397490Y-89406686D01*
X129127592Y-89353000D01*
X128852408Y-89353000D01*
X128582510Y-89406686D01*
X128328273Y-89511995D01*
X128099465Y-89664880D01*
X127904880Y-89859465D01*
X127751995Y-90088273D01*
X127646686Y-90342510D01*
X127593000Y-90612408D01*
X122767000Y-90612408D01*
X122713314Y-90342510D01*
X122608005Y-90088273D01*
X122455120Y-89859465D01*
X122260535Y-89664880D01*
X122031727Y-89511995D01*
X121777490Y-89406686D01*
X121507592Y-89353000D01*
X121232408Y-89353000D01*
X120962510Y-89406686D01*
X120708273Y-89511995D01*
X120479465Y-89664880D01*
X120284880Y-89859465D01*
X120131995Y-90088273D01*
X120026686Y-90342510D01*
X119973000Y-90612408D01*
X115318016Y-90612408D01*
X115243228Y-90431853D01*
X115058825Y-90155875D01*
X114824125Y-89921175D01*
X114548147Y-89736772D01*
X114241496Y-89609754D01*
X113915958Y-89545000D01*
X113584042Y-89545000D01*
X113258504Y-89609754D01*
X112951853Y-89736772D01*
X112675875Y-89921175D01*
X112441175Y-90155875D01*
X112256772Y-90431853D01*
X112129754Y-90738504D01*
X112065000Y-91064042D01*
X110660000Y-91064042D01*
X110660000Y-85984042D01*
X112065000Y-85984042D01*
X112065000Y-86315958D01*
X112129754Y-86641496D01*
X112256772Y-86948147D01*
X112441175Y-87224125D01*
X112675875Y-87458825D01*
X112951853Y-87643228D01*
X113258504Y-87770246D01*
X113584042Y-87835000D01*
X113915958Y-87835000D01*
X114241496Y-87770246D01*
X114548147Y-87643228D01*
X114824125Y-87458825D01*
X115058825Y-87224125D01*
X115243228Y-86948147D01*
X115370246Y-86641496D01*
X115435000Y-86315958D01*
X115435000Y-85984042D01*
X115370246Y-85658504D01*
X115243228Y-85351853D01*
X115058825Y-85075875D01*
X114824125Y-84841175D01*
X114548147Y-84656772D01*
X114320331Y-84562408D01*
X119973000Y-84562408D01*
X119973000Y-84837592D01*
X120026686Y-85107490D01*
X120131995Y-85361727D01*
X120284880Y-85590535D01*
X120479465Y-85785120D01*
X120708273Y-85938005D01*
X120962510Y-86043314D01*
X121232408Y-86097000D01*
X121507592Y-86097000D01*
X121777490Y-86043314D01*
X122031727Y-85938005D01*
X122260535Y-85785120D01*
X122455120Y-85590535D01*
X122608005Y-85361727D01*
X122713314Y-85107490D01*
X122767000Y-84837592D01*
X122767000Y-84562408D01*
X127593000Y-84562408D01*
X127593000Y-84837592D01*
X127646686Y-85107490D01*
X127751995Y-85361727D01*
X127904880Y-85590535D01*
X128099465Y-85785120D01*
X128328273Y-85938005D01*
X128582510Y-86043314D01*
X128852408Y-86097000D01*
X129127592Y-86097000D01*
X129397490Y-86043314D01*
X129651727Y-85938005D01*
X129880535Y-85785120D01*
X130075120Y-85590535D01*
X130228005Y-85361727D01*
X130333314Y-85107490D01*
X130387000Y-84837592D01*
X130387000Y-84562408D01*
X135213000Y-84562408D01*
X135213000Y-84837592D01*
X135266686Y-85107490D01*
X135371995Y-85361727D01*
X135524880Y-85590535D01*
X135719465Y-85785120D01*
X135948273Y-85938005D01*
X136202510Y-86043314D01*
X136472408Y-86097000D01*
X136747592Y-86097000D01*
X137017490Y-86043314D01*
X137271727Y-85938005D01*
X137500535Y-85785120D01*
X137695120Y-85590535D01*
X137848005Y-85361727D01*
X137880000Y-85284485D01*
X137911995Y-85361727D01*
X138064880Y-85590535D01*
X138259465Y-85785120D01*
X138488273Y-85938005D01*
X138742510Y-86043314D01*
X139012408Y-86097000D01*
X139287592Y-86097000D01*
X139557490Y-86043314D01*
X139811727Y-85938005D01*
X140040535Y-85785120D01*
X140235120Y-85590535D01*
X140388005Y-85361727D01*
X140493314Y-85107490D01*
X140547000Y-84837592D01*
X140547000Y-84562408D01*
X140493314Y-84292510D01*
X140388005Y-84038273D01*
X140235120Y-83809465D01*
X140233716Y-83808061D01*
X147355000Y-83808061D01*
X147355000Y-84011939D01*
X147394774Y-84211898D01*
X147472795Y-84400256D01*
X147479306Y-84410000D01*
X147472795Y-84419744D01*
X147394774Y-84608102D01*
X147355000Y-84808061D01*
X147355000Y-85011939D01*
X147394774Y-85211898D01*
X147472795Y-85400256D01*
X147586063Y-85569774D01*
X147730226Y-85713937D01*
X147899744Y-85827205D01*
X148088102Y-85905226D01*
X148288061Y-85945000D01*
X148491939Y-85945000D01*
X148691898Y-85905226D01*
X148880256Y-85827205D01*
X149049774Y-85713937D01*
X149193937Y-85569774D01*
X149307205Y-85400256D01*
X149385226Y-85211898D01*
X149425000Y-85011939D01*
X149425000Y-84808061D01*
X149385226Y-84608102D01*
X149307205Y-84419744D01*
X149300694Y-84410000D01*
X149307205Y-84400256D01*
X149385226Y-84211898D01*
X149425000Y-84011939D01*
X149425000Y-83808061D01*
X149385226Y-83608102D01*
X149307205Y-83419744D01*
X149193937Y-83250226D01*
X149049774Y-83106063D01*
X148880256Y-82992795D01*
X148691898Y-82914774D01*
X148491939Y-82875000D01*
X148288061Y-82875000D01*
X148088102Y-82914774D01*
X147899744Y-82992795D01*
X147730226Y-83106063D01*
X147586063Y-83250226D01*
X147472795Y-83419744D01*
X147394774Y-83608102D01*
X147355000Y-83808061D01*
X140233716Y-83808061D01*
X140040535Y-83614880D01*
X139811727Y-83461995D01*
X139557490Y-83356686D01*
X139287592Y-83303000D01*
X139012408Y-83303000D01*
X138742510Y-83356686D01*
X138488273Y-83461995D01*
X138259465Y-83614880D01*
X138064880Y-83809465D01*
X137911995Y-84038273D01*
X137880000Y-84115515D01*
X137848005Y-84038273D01*
X137695120Y-83809465D01*
X137500535Y-83614880D01*
X137271727Y-83461995D01*
X137017490Y-83356686D01*
X136747592Y-83303000D01*
X136472408Y-83303000D01*
X136202510Y-83356686D01*
X135948273Y-83461995D01*
X135719465Y-83614880D01*
X135524880Y-83809465D01*
X135371995Y-84038273D01*
X135266686Y-84292510D01*
X135213000Y-84562408D01*
X130387000Y-84562408D01*
X130333314Y-84292510D01*
X130228005Y-84038273D01*
X130075120Y-83809465D01*
X129880535Y-83614880D01*
X129651727Y-83461995D01*
X129397490Y-83356686D01*
X129127592Y-83303000D01*
X128852408Y-83303000D01*
X128582510Y-83356686D01*
X128328273Y-83461995D01*
X128099465Y-83614880D01*
X127904880Y-83809465D01*
X127751995Y-84038273D01*
X127646686Y-84292510D01*
X127593000Y-84562408D01*
X122767000Y-84562408D01*
X122713314Y-84292510D01*
X122608005Y-84038273D01*
X122455120Y-83809465D01*
X122260535Y-83614880D01*
X122031727Y-83461995D01*
X121777490Y-83356686D01*
X121507592Y-83303000D01*
X121232408Y-83303000D01*
X120962510Y-83356686D01*
X120708273Y-83461995D01*
X120479465Y-83614880D01*
X120284880Y-83809465D01*
X120131995Y-84038273D01*
X120026686Y-84292510D01*
X119973000Y-84562408D01*
X114320331Y-84562408D01*
X114241496Y-84529754D01*
X113915958Y-84465000D01*
X113584042Y-84465000D01*
X113258504Y-84529754D01*
X112951853Y-84656772D01*
X112675875Y-84841175D01*
X112441175Y-85075875D01*
X112256772Y-85351853D01*
X112129754Y-85658504D01*
X112065000Y-85984042D01*
X110660000Y-85984042D01*
X110660000Y-78835561D01*
X143027500Y-78835561D01*
X143027500Y-79039439D01*
X143067274Y-79239398D01*
X143145295Y-79427756D01*
X143258563Y-79597274D01*
X143402726Y-79741437D01*
X143572244Y-79854705D01*
X143760602Y-79932726D01*
X143960561Y-79972500D01*
X144164439Y-79972500D01*
X144364398Y-79932726D01*
X144552756Y-79854705D01*
X144722274Y-79741437D01*
X144866437Y-79597274D01*
X144979705Y-79427756D01*
X145057726Y-79239398D01*
X145097500Y-79039439D01*
X145097500Y-78835561D01*
X145057726Y-78635602D01*
X144979705Y-78447244D01*
X144866437Y-78277726D01*
X144722274Y-78133563D01*
X144552756Y-78020295D01*
X144364398Y-77942274D01*
X144164439Y-77902500D01*
X143960561Y-77902500D01*
X143760602Y-77942274D01*
X143572244Y-78020295D01*
X143402726Y-78133563D01*
X143258563Y-78277726D01*
X143145295Y-78447244D01*
X143067274Y-78635602D01*
X143027500Y-78835561D01*
X110660000Y-78835561D01*
X110660000Y-76748061D01*
X145505000Y-76748061D01*
X145505000Y-76951939D01*
X145544774Y-77151898D01*
X145622795Y-77340256D01*
X145736063Y-77509774D01*
X145880226Y-77653937D01*
X146049744Y-77767205D01*
X146238102Y-77845226D01*
X146438061Y-77885000D01*
X146641939Y-77885000D01*
X146841898Y-77845226D01*
X147030256Y-77767205D01*
X147199774Y-77653937D01*
X147343937Y-77509774D01*
X147457205Y-77340256D01*
X147535226Y-77151898D01*
X147575000Y-76951939D01*
X147575000Y-76748061D01*
X147535226Y-76548102D01*
X147457205Y-76359744D01*
X147343937Y-76190226D01*
X147199774Y-76046063D01*
X147030256Y-75932795D01*
X146841898Y-75854774D01*
X146641939Y-75815000D01*
X146438061Y-75815000D01*
X146238102Y-75854774D01*
X146049744Y-75932795D01*
X145880226Y-76046063D01*
X145736063Y-76190226D01*
X145622795Y-76359744D01*
X145544774Y-76548102D01*
X145505000Y-76748061D01*
X110660000Y-76748061D01*
X110660000Y-70652374D01*
X119605000Y-70652374D01*
X119605000Y-71027626D01*
X119678209Y-71395668D01*
X119821811Y-71742356D01*
X120030290Y-72054366D01*
X120295634Y-72319710D01*
X120607644Y-72528189D01*
X120954332Y-72671791D01*
X121322374Y-72745000D01*
X121697626Y-72745000D01*
X122065668Y-72671791D01*
X122326071Y-72563929D01*
X122218209Y-72824332D01*
X122145000Y-73192374D01*
X122145000Y-73567626D01*
X122218209Y-73935668D01*
X122361811Y-74282356D01*
X122570290Y-74594366D01*
X122835634Y-74859710D01*
X123147644Y-75068189D01*
X123494332Y-75211791D01*
X123862374Y-75285000D01*
X124237626Y-75285000D01*
X124605668Y-75211791D01*
X124952356Y-75068189D01*
X125264366Y-74859710D01*
X125529710Y-74594366D01*
X125738189Y-74282356D01*
X125881791Y-73935668D01*
X125955000Y-73567626D01*
X125955000Y-73192374D01*
X137385000Y-73192374D01*
X137385000Y-73567626D01*
X137458209Y-73935668D01*
X137601811Y-74282356D01*
X137810290Y-74594366D01*
X138075634Y-74859710D01*
X138387644Y-75068189D01*
X138734332Y-75211791D01*
X139102374Y-75285000D01*
X139477626Y-75285000D01*
X139845668Y-75211791D01*
X140192356Y-75068189D01*
X140504366Y-74859710D01*
X140769710Y-74594366D01*
X140978189Y-74282356D01*
X141121791Y-73935668D01*
X141195000Y-73567626D01*
X141195000Y-73192374D01*
X141121791Y-72824332D01*
X141013929Y-72563929D01*
X141274332Y-72671791D01*
X141642374Y-72745000D01*
X142017626Y-72745000D01*
X142385668Y-72671791D01*
X142732356Y-72528189D01*
X143044366Y-72319710D01*
X143309710Y-72054366D01*
X143518189Y-71742356D01*
X143661791Y-71395668D01*
X143735000Y-71027626D01*
X143735000Y-70652374D01*
X143661791Y-70284332D01*
X143657926Y-70275001D01*
X144731323Y-70275001D01*
X144734999Y-70312323D01*
X144734999Y-71110679D01*
X144731323Y-71148001D01*
X144734999Y-71185323D01*
X144734999Y-71185333D01*
X144745996Y-71296986D01*
X144789453Y-71440247D01*
X144860025Y-71572277D01*
X144886008Y-71603937D01*
X144954998Y-71688002D01*
X144984002Y-71711805D01*
X149145002Y-75872806D01*
X149145001Y-77745000D01*
X149078061Y-77745000D01*
X148878102Y-77784774D01*
X148689744Y-77862795D01*
X148680000Y-77869306D01*
X148670256Y-77862795D01*
X148481898Y-77784774D01*
X148281939Y-77745000D01*
X148078061Y-77745000D01*
X147878102Y-77784774D01*
X147689744Y-77862795D01*
X147520226Y-77976063D01*
X147376063Y-78120226D01*
X147262795Y-78289744D01*
X147184774Y-78478102D01*
X147145000Y-78678061D01*
X147145000Y-78881939D01*
X147184774Y-79081898D01*
X147262795Y-79270256D01*
X147269306Y-79280000D01*
X147262795Y-79289744D01*
X147184774Y-79478102D01*
X147145000Y-79678061D01*
X147145000Y-79881939D01*
X147184774Y-80081898D01*
X147262795Y-80270256D01*
X147376063Y-80439774D01*
X147520226Y-80583937D01*
X147689744Y-80697205D01*
X147878102Y-80775226D01*
X148078061Y-80815000D01*
X148281939Y-80815000D01*
X148481898Y-80775226D01*
X148670256Y-80697205D01*
X148839774Y-80583937D01*
X148983937Y-80439774D01*
X149097205Y-80270256D01*
X149175226Y-80081898D01*
X149215000Y-79881939D01*
X149215000Y-79815000D01*
X149281939Y-79815000D01*
X149481898Y-79775226D01*
X149670256Y-79697205D01*
X149680000Y-79690694D01*
X149689744Y-79697205D01*
X149878102Y-79775226D01*
X150078061Y-79815000D01*
X150281939Y-79815000D01*
X150481898Y-79775226D01*
X150670256Y-79697205D01*
X150839774Y-79583937D01*
X150983937Y-79439774D01*
X151097205Y-79270256D01*
X151175226Y-79081898D01*
X151215000Y-78881939D01*
X151215000Y-78678061D01*
X151175226Y-78478102D01*
X151097205Y-78289744D01*
X150983937Y-78120226D01*
X150839774Y-77976063D01*
X150670256Y-77862795D01*
X150665001Y-77860618D01*
X150665001Y-75595328D01*
X150668677Y-75558003D01*
X150665001Y-75520678D01*
X150665001Y-75520670D01*
X150654004Y-75409017D01*
X150610547Y-75265756D01*
X150539975Y-75133727D01*
X150445002Y-75018002D01*
X150416004Y-74994204D01*
X146952755Y-71530956D01*
X147023937Y-71459774D01*
X147137205Y-71290256D01*
X147170000Y-71211082D01*
X147202795Y-71290256D01*
X147316063Y-71459774D01*
X147460226Y-71603937D01*
X147629744Y-71717205D01*
X147818102Y-71795226D01*
X148018061Y-71835000D01*
X148221939Y-71835000D01*
X148421898Y-71795226D01*
X148610256Y-71717205D01*
X148779774Y-71603937D01*
X148923937Y-71459774D01*
X149037205Y-71290256D01*
X149115226Y-71101898D01*
X149155000Y-70901939D01*
X149155000Y-70698061D01*
X149115226Y-70498102D01*
X149037205Y-70309744D01*
X148923937Y-70140226D01*
X148779774Y-69996063D01*
X148610256Y-69882795D01*
X148421898Y-69804774D01*
X148221939Y-69765000D01*
X148018061Y-69765000D01*
X147818102Y-69804774D01*
X147629744Y-69882795D01*
X147460226Y-69996063D01*
X147316063Y-70140226D01*
X147202795Y-70309744D01*
X147170000Y-70388918D01*
X147137205Y-70309744D01*
X147023937Y-70140226D01*
X146879774Y-69996063D01*
X146852209Y-69977645D01*
X146854974Y-69974276D01*
X146925546Y-69842247D01*
X146969003Y-69698986D01*
X146980000Y-69587333D01*
X146980000Y-69587324D01*
X146983676Y-69550001D01*
X146982691Y-69540000D01*
X158111928Y-69540000D01*
X158111928Y-71240000D01*
X158124188Y-71364482D01*
X158160498Y-71484180D01*
X158219463Y-71594494D01*
X158298815Y-71691185D01*
X158395506Y-71770537D01*
X158505820Y-71829502D01*
X158578380Y-71851513D01*
X158446525Y-71983368D01*
X158284010Y-72226589D01*
X158172068Y-72496842D01*
X158115000Y-72783740D01*
X158115000Y-73076260D01*
X158172068Y-73363158D01*
X158284010Y-73633411D01*
X158446525Y-73876632D01*
X158653368Y-74083475D01*
X158896589Y-74245990D01*
X159166842Y-74357932D01*
X159453740Y-74415000D01*
X159746260Y-74415000D01*
X160033158Y-74357932D01*
X160303411Y-74245990D01*
X160546632Y-74083475D01*
X160753475Y-73876632D01*
X160915990Y-73633411D01*
X161027932Y-73363158D01*
X161085000Y-73076260D01*
X161085000Y-72783740D01*
X161027932Y-72496842D01*
X160915990Y-72226589D01*
X160753475Y-71983368D01*
X160621620Y-71851513D01*
X160694180Y-71829502D01*
X160804494Y-71770537D01*
X160901185Y-71691185D01*
X160980537Y-71594494D01*
X161039502Y-71484180D01*
X161075812Y-71364482D01*
X161088072Y-71240000D01*
X161088072Y-69540000D01*
X161075812Y-69415518D01*
X161039502Y-69295820D01*
X160980537Y-69185506D01*
X160901185Y-69088815D01*
X160804494Y-69009463D01*
X160694180Y-68950498D01*
X160574482Y-68914188D01*
X160450000Y-68901928D01*
X158750000Y-68901928D01*
X158625518Y-68914188D01*
X158505820Y-68950498D01*
X158395506Y-69009463D01*
X158298815Y-69088815D01*
X158219463Y-69185506D01*
X158160498Y-69295820D01*
X158124188Y-69415518D01*
X158111928Y-69540000D01*
X146982691Y-69540000D01*
X146980000Y-69512678D01*
X146980000Y-69303711D01*
X147023937Y-69259774D01*
X147137205Y-69090256D01*
X147215226Y-68901898D01*
X147255000Y-68701939D01*
X147255000Y-68498061D01*
X147215226Y-68298102D01*
X147137205Y-68109744D01*
X147023937Y-67940226D01*
X146879774Y-67796063D01*
X146710256Y-67682795D01*
X146521898Y-67604774D01*
X146321939Y-67565000D01*
X146118061Y-67565000D01*
X145918102Y-67604774D01*
X145729744Y-67682795D01*
X145560226Y-67796063D01*
X145416063Y-67940226D01*
X145302795Y-68109744D01*
X145224774Y-68298102D01*
X145185000Y-68498061D01*
X145185000Y-68701939D01*
X145224774Y-68901898D01*
X145302795Y-69090256D01*
X145416063Y-69259774D01*
X145425744Y-69269455D01*
X144983997Y-69711202D01*
X144954999Y-69735000D01*
X144931201Y-69763998D01*
X144931200Y-69763999D01*
X144860025Y-69850725D01*
X144789453Y-69982755D01*
X144765718Y-70061003D01*
X144745997Y-70126015D01*
X144734999Y-70237668D01*
X144734999Y-70237679D01*
X144731323Y-70275001D01*
X143657926Y-70275001D01*
X143518189Y-69937644D01*
X143309710Y-69625634D01*
X143044366Y-69360290D01*
X142732356Y-69151811D01*
X142385668Y-69008209D01*
X142017626Y-68935000D01*
X141642374Y-68935000D01*
X141274332Y-69008209D01*
X140927644Y-69151811D01*
X140615634Y-69360290D01*
X140350290Y-69625634D01*
X140141811Y-69937644D01*
X139998209Y-70284332D01*
X139925000Y-70652374D01*
X139925000Y-71027626D01*
X139998209Y-71395668D01*
X140106071Y-71656071D01*
X139845668Y-71548209D01*
X139477626Y-71475000D01*
X139102374Y-71475000D01*
X138734332Y-71548209D01*
X138387644Y-71691811D01*
X138075634Y-71900290D01*
X137810290Y-72165634D01*
X137601811Y-72477644D01*
X137458209Y-72824332D01*
X137385000Y-73192374D01*
X125955000Y-73192374D01*
X125881791Y-72824332D01*
X125738189Y-72477644D01*
X125529710Y-72165634D01*
X125264366Y-71900290D01*
X124952356Y-71691811D01*
X124605668Y-71548209D01*
X124237626Y-71475000D01*
X123862374Y-71475000D01*
X123494332Y-71548209D01*
X123233929Y-71656071D01*
X123341791Y-71395668D01*
X123415000Y-71027626D01*
X123415000Y-70652374D01*
X123341791Y-70284332D01*
X123198189Y-69937644D01*
X122989710Y-69625634D01*
X122724366Y-69360290D01*
X122412356Y-69151811D01*
X122065668Y-69008209D01*
X121697626Y-68935000D01*
X121322374Y-68935000D01*
X120954332Y-69008209D01*
X120607644Y-69151811D01*
X120295634Y-69360290D01*
X120030290Y-69625634D01*
X119821811Y-69937644D01*
X119678209Y-70284332D01*
X119605000Y-70652374D01*
X110660000Y-70652374D01*
X110660000Y-61532277D01*
X110679102Y-61337460D01*
X110726308Y-61181106D01*
X110802982Y-61036904D01*
X110906207Y-60910337D01*
X111032051Y-60806231D01*
X111175711Y-60728553D01*
X111331729Y-60680258D01*
X111524473Y-60660000D01*
X125984692Y-60660000D01*
X125823178Y-60692127D01*
G37*
X125823178Y-60692127D02*
X125344749Y-60890299D01*
X124914174Y-61178000D01*
X124548000Y-61544174D01*
X124260299Y-61974749D01*
X124062127Y-62453178D01*
X123961100Y-62961076D01*
X123961100Y-63478924D01*
X124062127Y-63986822D01*
X124260299Y-64465251D01*
X124548000Y-64895826D01*
X124914174Y-65262000D01*
X125344749Y-65549701D01*
X125823178Y-65747873D01*
X126331076Y-65848900D01*
X126848924Y-65848900D01*
X127356822Y-65747873D01*
X127835251Y-65549701D01*
X128265826Y-65262000D01*
X128632000Y-64895826D01*
X128919701Y-64465251D01*
X129117873Y-63986822D01*
X129218900Y-63478924D01*
X129218900Y-62961076D01*
X129117873Y-62453178D01*
X128919701Y-61974749D01*
X128632000Y-61544174D01*
X128265826Y-61178000D01*
X127835251Y-60890299D01*
X127356822Y-60692127D01*
X127195308Y-60660000D01*
X136144692Y-60660000D01*
X135983178Y-60692127D01*
X135504749Y-60890299D01*
X135074174Y-61178000D01*
X134708000Y-61544174D01*
X134420299Y-61974749D01*
X134222127Y-62453178D01*
X134121100Y-62961076D01*
X134121100Y-63478924D01*
X134222127Y-63986822D01*
X134420299Y-64465251D01*
X134708000Y-64895826D01*
X135074174Y-65262000D01*
X135504749Y-65549701D01*
X135983178Y-65747873D01*
X136491076Y-65848900D01*
X137008924Y-65848900D01*
X137516822Y-65747873D01*
X137995251Y-65549701D01*
X138425826Y-65262000D01*
X138792000Y-64895826D01*
X138920851Y-64702986D01*
X148615000Y-64702986D01*
X148615000Y-64897014D01*
X148652853Y-65087314D01*
X148727104Y-65266572D01*
X148834901Y-65427901D01*
X148882000Y-65475000D01*
X148834901Y-65522099D01*
X148727104Y-65683428D01*
X148652853Y-65862686D01*
X148615000Y-66052986D01*
X148615000Y-66247014D01*
X148652853Y-66437314D01*
X148727104Y-66616572D01*
X148834901Y-66777901D01*
X148972099Y-66915099D01*
X149133428Y-67022896D01*
X149312686Y-67097147D01*
X149502986Y-67135000D01*
X149697014Y-67135000D01*
X149887314Y-67097147D01*
X150025000Y-67040116D01*
X150162686Y-67097147D01*
X150352986Y-67135000D01*
X150547014Y-67135000D01*
X150737314Y-67097147D01*
X150875000Y-67040116D01*
X151012686Y-67097147D01*
X151202986Y-67135000D01*
X151397014Y-67135000D01*
X151587314Y-67097147D01*
X151725000Y-67040116D01*
X151862686Y-67097147D01*
X152052986Y-67135000D01*
X152247014Y-67135000D01*
X152437314Y-67097147D01*
X152575000Y-67040116D01*
X152712686Y-67097147D01*
X152902986Y-67135000D01*
X153097014Y-67135000D01*
X153287314Y-67097147D01*
X153425000Y-67040116D01*
X153562686Y-67097147D01*
X153752986Y-67135000D01*
X153947014Y-67135000D01*
X154137314Y-67097147D01*
X154316572Y-67022896D01*
X154477901Y-66915099D01*
X154615099Y-66777901D01*
X154722896Y-66616572D01*
X154797147Y-66437314D01*
X154835000Y-66247014D01*
X154835000Y-66052986D01*
X154797147Y-65862686D01*
X154722896Y-65683428D01*
X154615099Y-65522099D01*
X154568000Y-65475000D01*
X154615099Y-65427901D01*
X154722896Y-65266572D01*
X154797147Y-65087314D01*
X154835000Y-64897014D01*
X154835000Y-64702986D01*
X154797147Y-64512686D01*
X154722896Y-64333428D01*
X154615099Y-64172099D01*
X154477901Y-64034901D01*
X154316572Y-63927104D01*
X154137314Y-63852853D01*
X153947014Y-63815000D01*
X153752986Y-63815000D01*
X153562686Y-63852853D01*
X153425000Y-63909884D01*
X153287314Y-63852853D01*
X153097014Y-63815000D01*
X152902986Y-63815000D01*
X152712686Y-63852853D01*
X152575000Y-63909884D01*
X152437314Y-63852853D01*
X152247014Y-63815000D01*
X152052986Y-63815000D01*
X151862686Y-63852853D01*
X151725000Y-63909884D01*
X151587314Y-63852853D01*
X151397014Y-63815000D01*
X151202986Y-63815000D01*
X151012686Y-63852853D01*
X150875000Y-63909884D01*
X150737314Y-63852853D01*
X150547014Y-63815000D01*
X150352986Y-63815000D01*
X150162686Y-63852853D01*
X150025000Y-63909884D01*
X149887314Y-63852853D01*
X149697014Y-63815000D01*
X149502986Y-63815000D01*
X149312686Y-63852853D01*
X149133428Y-63927104D01*
X148972099Y-64034901D01*
X148834901Y-64172099D01*
X148727104Y-64333428D01*
X148652853Y-64512686D01*
X148615000Y-64702986D01*
X138920851Y-64702986D01*
X139079701Y-64465251D01*
X139277873Y-63986822D01*
X139378900Y-63478924D01*
X139378900Y-62961076D01*
X139277873Y-62453178D01*
X139079701Y-61974749D01*
X138792000Y-61544174D01*
X138425826Y-61178000D01*
X137995251Y-60890299D01*
X137516822Y-60692127D01*
X137355308Y-60660000D01*
X164467723Y-60660000D01*
X164662540Y-60679102D01*
X164818894Y-60726308D01*
X164963096Y-60802982D01*
X165089663Y-60906207D01*
X165193769Y-61032051D01*
X165271447Y-61175711D01*
X165319742Y-61331729D01*
X165340000Y-61524473D01*
X165340000Y-77119990D01*
X165294180Y-77095498D01*
X165174482Y-77059188D01*
X165050000Y-77046928D01*
X163350000Y-77046928D01*
X163225518Y-77059188D01*
X163105820Y-77095498D01*
X162995506Y-77154463D01*
X162898815Y-77233815D01*
X162819463Y-77330506D01*
X162760498Y-77440820D01*
X162724188Y-77560518D01*
X162711928Y-77685000D01*
X162711928Y-79385000D01*
X162724188Y-79509482D01*
X162760498Y-79629180D01*
X162819463Y-79739494D01*
X162898815Y-79836185D01*
X162995506Y-79915537D01*
X163105820Y-79974502D01*
X163178380Y-79996513D01*
X163046525Y-80128368D01*
X162884010Y-80371589D01*
X162772068Y-80641842D01*
X162715000Y-80928740D01*
X162715000Y-81221260D01*
X162772068Y-81508158D01*
X162884010Y-81778411D01*
X163046525Y-82021632D01*
X163253368Y-82228475D01*
X163496589Y-82390990D01*
X163766842Y-82502932D01*
X164053740Y-82560000D01*
X164346260Y-82560000D01*
X164633158Y-82502932D01*
X164903411Y-82390990D01*
X165146632Y-82228475D01*
X165340000Y-82035107D01*
X165340000Y-85194893D01*
X165146632Y-85001525D01*
X164903411Y-84839010D01*
X164633158Y-84727068D01*
X164346260Y-84670000D01*
X164053740Y-84670000D01*
X163766842Y-84727068D01*
X163496589Y-84839010D01*
X163253368Y-85001525D01*
X163046525Y-85208368D01*
X162884010Y-85451589D01*
X162772068Y-85721842D01*
X162715000Y-86008740D01*
X162715000Y-86301260D01*
X162772068Y-86588158D01*
X162884010Y-86858411D01*
X163046525Y-87101632D01*
X163253368Y-87308475D01*
X163427760Y-87425000D01*
X163253368Y-87541525D01*
X163046525Y-87748368D01*
X162884010Y-87991589D01*
X162772068Y-88261842D01*
X162715000Y-88548740D01*
X162715000Y-88841260D01*
X162772068Y-89128158D01*
X162884010Y-89398411D01*
X163046525Y-89641632D01*
X163253368Y-89848475D01*
X163496589Y-90010990D01*
X163766842Y-90122932D01*
X164053740Y-90180000D01*
X164346260Y-90180000D01*
X164633158Y-90122932D01*
X164903411Y-90010990D01*
X165146632Y-89848475D01*
X165340000Y-89655107D01*
X165340000Y-92814893D01*
X165146632Y-92621525D01*
X164903411Y-92459010D01*
X164633158Y-92347068D01*
X164346260Y-92290000D01*
X164053740Y-92290000D01*
X163766842Y-92347068D01*
X163496589Y-92459010D01*
X163253368Y-92621525D01*
X163046525Y-92828368D01*
X162884010Y-93071589D01*
X162772068Y-93341842D01*
X162715000Y-93628740D01*
X162715000Y-93921260D01*
X162772068Y-94208158D01*
X162884010Y-94478411D01*
X163046525Y-94721632D01*
X163253368Y-94928475D01*
X163427760Y-95045000D01*
X163253368Y-95161525D01*
X163046525Y-95368368D01*
X162884010Y-95611589D01*
X162772068Y-95881842D01*
X162715000Y-96168740D01*
X162715000Y-96461260D01*
X162772068Y-96748158D01*
X162884010Y-97018411D01*
X163046525Y-97261632D01*
X163253368Y-97468475D01*
X163496589Y-97630990D01*
X163766842Y-97742932D01*
X164053740Y-97800000D01*
X164346260Y-97800000D01*
X164633158Y-97742932D01*
X164903411Y-97630990D01*
X165146632Y-97468475D01*
X165340000Y-97275107D01*
X165340000Y-100434893D01*
X165146632Y-100241525D01*
X164903411Y-100079010D01*
X164633158Y-99967068D01*
X164346260Y-99910000D01*
X164053740Y-99910000D01*
X163766842Y-99967068D01*
X163496589Y-100079010D01*
X163253368Y-100241525D01*
X163046525Y-100448368D01*
X162884010Y-100691589D01*
X162772068Y-100961842D01*
X162715000Y-101248740D01*
X162715000Y-101541260D01*
X162772068Y-101828158D01*
X162884010Y-102098411D01*
X163046525Y-102341632D01*
X163253368Y-102548475D01*
X163427760Y-102665000D01*
X163253368Y-102781525D01*
X163046525Y-102988368D01*
X162884010Y-103231589D01*
X162772068Y-103501842D01*
X162715000Y-103788740D01*
X162715000Y-104081260D01*
X162772068Y-104368158D01*
X162884010Y-104638411D01*
X163046525Y-104881632D01*
X163253368Y-105088475D01*
X163496589Y-105250990D01*
X163766842Y-105362932D01*
X164053740Y-105420000D01*
X164346260Y-105420000D01*
X164633158Y-105362932D01*
X164903411Y-105250990D01*
X165146632Y-105088475D01*
X165340001Y-104895106D01*
X165340001Y-143467712D01*
X165320898Y-143662540D01*
X165273692Y-143818895D01*
X165197018Y-143963096D01*
X165093792Y-144089664D01*
X164967951Y-144193768D01*
X164824289Y-144271447D01*
X164668271Y-144319742D01*
X164475527Y-144340000D01*
X111532277Y-144340000D01*
X111337460Y-144320898D01*
X111181105Y-144273692D01*
X111036904Y-144197018D01*
X110910336Y-144093792D01*
X110806232Y-143967951D01*
X110728553Y-143824289D01*
X110680258Y-143668271D01*
X110660000Y-143475527D01*
X110660000Y-142308061D01*
X120385000Y-142308061D01*
X120385000Y-142511939D01*
X120424774Y-142711898D01*
X120502795Y-142900256D01*
X120616063Y-143069774D01*
X120760226Y-143213937D01*
X120929744Y-143327205D01*
X121118102Y-143405226D01*
X121318061Y-143445000D01*
X121521939Y-143445000D01*
X121721898Y-143405226D01*
X121910256Y-143327205D01*
X121920000Y-143320694D01*
X121929744Y-143327205D01*
X122118102Y-143405226D01*
X122318061Y-143445000D01*
X122521939Y-143445000D01*
X122721898Y-143405226D01*
X122910256Y-143327205D01*
X122920000Y-143320694D01*
X122929744Y-143327205D01*
X123118102Y-143405226D01*
X123318061Y-143445000D01*
X123521939Y-143445000D01*
X123721898Y-143405226D01*
X123910256Y-143327205D01*
X123920000Y-143320694D01*
X123929744Y-143327205D01*
X124118102Y-143405226D01*
X124318061Y-143445000D01*
X124521939Y-143445000D01*
X124721898Y-143405226D01*
X124910256Y-143327205D01*
X124920000Y-143320694D01*
X124929744Y-143327205D01*
X125118102Y-143405226D01*
X125318061Y-143445000D01*
X125521939Y-143445000D01*
X125721898Y-143405226D01*
X125910256Y-143327205D01*
X125920000Y-143320694D01*
X125929744Y-143327205D01*
X126118102Y-143405226D01*
X126318061Y-143445000D01*
X126521939Y-143445000D01*
X126721898Y-143405226D01*
X126910256Y-143327205D01*
X126920000Y-143320694D01*
X126929744Y-143327205D01*
X127118102Y-143405226D01*
X127318061Y-143445000D01*
X127521939Y-143445000D01*
X127721898Y-143405226D01*
X127910256Y-143327205D01*
X127920000Y-143320694D01*
X127929744Y-143327205D01*
X128118102Y-143405226D01*
X128318061Y-143445000D01*
X128521939Y-143445000D01*
X128721898Y-143405226D01*
X128910256Y-143327205D01*
X129079774Y-143213937D01*
X129223937Y-143069774D01*
X129337205Y-142900256D01*
X129415226Y-142711898D01*
X129455000Y-142511939D01*
X129455000Y-142318061D01*
X154755000Y-142318061D01*
X154755000Y-142521939D01*
X154794774Y-142721898D01*
X154872795Y-142910256D01*
X154986063Y-143079774D01*
X155130226Y-143223937D01*
X155299744Y-143337205D01*
X155488102Y-143415226D01*
X155688061Y-143455000D01*
X155891939Y-143455000D01*
X156091898Y-143415226D01*
X156280256Y-143337205D01*
X156290000Y-143330694D01*
X156299744Y-143337205D01*
X156488102Y-143415226D01*
X156688061Y-143455000D01*
X156891939Y-143455000D01*
X157091898Y-143415226D01*
X157280256Y-143337205D01*
X157290000Y-143330694D01*
X157299744Y-143337205D01*
X157488102Y-143415226D01*
X157688061Y-143455000D01*
X157891939Y-143455000D01*
X158091898Y-143415226D01*
X158280256Y-143337205D01*
X158290000Y-143330694D01*
X158299744Y-143337205D01*
X158488102Y-143415226D01*
X158688061Y-143455000D01*
X158891939Y-143455000D01*
X159091898Y-143415226D01*
X159280256Y-143337205D01*
X159449774Y-143223937D01*
X159593937Y-143079774D01*
X159707205Y-142910256D01*
X159785226Y-142721898D01*
X159825000Y-142521939D01*
X159825000Y-142318061D01*
X159785226Y-142118102D01*
X159707205Y-141929744D01*
X159593937Y-141760226D01*
X159449774Y-141616063D01*
X159280256Y-141502795D01*
X159091898Y-141424774D01*
X158891939Y-141385000D01*
X158688061Y-141385000D01*
X158488102Y-141424774D01*
X158299744Y-141502795D01*
X158290000Y-141509306D01*
X158280256Y-141502795D01*
X158091898Y-141424774D01*
X157891939Y-141385000D01*
X157688061Y-141385000D01*
X157488102Y-141424774D01*
X157299744Y-141502795D01*
X157290000Y-141509306D01*
X157280256Y-141502795D01*
X157091898Y-141424774D01*
X156891939Y-141385000D01*
X156688061Y-141385000D01*
X156488102Y-141424774D01*
X156299744Y-141502795D01*
X156290000Y-141509306D01*
X156280256Y-141502795D01*
X156091898Y-141424774D01*
X155891939Y-141385000D01*
X155688061Y-141385000D01*
X155488102Y-141424774D01*
X155299744Y-141502795D01*
X155130226Y-141616063D01*
X154986063Y-141760226D01*
X154872795Y-141929744D01*
X154794774Y-142118102D01*
X154755000Y-142318061D01*
X129455000Y-142318061D01*
X129455000Y-142308061D01*
X129415226Y-142108102D01*
X129337205Y-141919744D01*
X129223937Y-141750226D01*
X129079774Y-141606063D01*
X128910256Y-141492795D01*
X128721898Y-141414774D01*
X128521939Y-141375000D01*
X128318061Y-141375000D01*
X128118102Y-141414774D01*
X127929744Y-141492795D01*
X127920000Y-141499306D01*
X127910256Y-141492795D01*
X127721898Y-141414774D01*
X127521939Y-141375000D01*
X127318061Y-141375000D01*
X127118102Y-141414774D01*
X126929744Y-141492795D01*
X126920000Y-141499306D01*
X126910256Y-141492795D01*
X126721898Y-141414774D01*
X126521939Y-141375000D01*
X126318061Y-141375000D01*
X126118102Y-141414774D01*
X125929744Y-141492795D01*
X125920000Y-141499306D01*
X125910256Y-141492795D01*
X125721898Y-141414774D01*
X125521939Y-141375000D01*
X125318061Y-141375000D01*
X125118102Y-141414774D01*
X124929744Y-141492795D01*
X124920000Y-141499306D01*
X124910256Y-141492795D01*
X124721898Y-141414774D01*
X124521939Y-141375000D01*
X124318061Y-141375000D01*
X124118102Y-141414774D01*
X123929744Y-141492795D01*
X123920000Y-141499306D01*
X123910256Y-141492795D01*
X123721898Y-141414774D01*
X123521939Y-141375000D01*
X123318061Y-141375000D01*
X123118102Y-141414774D01*
X122929744Y-141492795D01*
X122920000Y-141499306D01*
X122910256Y-141492795D01*
X122721898Y-141414774D01*
X122521939Y-141375000D01*
X122318061Y-141375000D01*
X122118102Y-141414774D01*
X121929744Y-141492795D01*
X121920000Y-141499306D01*
X121910256Y-141492795D01*
X121721898Y-141414774D01*
X121521939Y-141375000D01*
X121318061Y-141375000D01*
X121118102Y-141414774D01*
X120929744Y-141492795D01*
X120760226Y-141606063D01*
X120616063Y-141750226D01*
X120502795Y-141919744D01*
X120424774Y-142108102D01*
X120385000Y-142308061D01*
X110660000Y-142308061D01*
X110660000Y-116368061D01*
X124385000Y-116368061D01*
X124385000Y-116571939D01*
X124424774Y-116771898D01*
X124502795Y-116960256D01*
X124616063Y-117129774D01*
X124760226Y-117273937D01*
X124929744Y-117387205D01*
X125118102Y-117465226D01*
X125318061Y-117505000D01*
X125521939Y-117505000D01*
X125721898Y-117465226D01*
X125910256Y-117387205D01*
X125920000Y-117380694D01*
X125929744Y-117387205D01*
X126118102Y-117465226D01*
X126318061Y-117505000D01*
X126521939Y-117505000D01*
X126721898Y-117465226D01*
X126910256Y-117387205D01*
X126920000Y-117380694D01*
X126929744Y-117387205D01*
X127118102Y-117465226D01*
X127318061Y-117505000D01*
X127521939Y-117505000D01*
X127721898Y-117465226D01*
X127910256Y-117387205D01*
X127920000Y-117380694D01*
X127929744Y-117387205D01*
X128118102Y-117465226D01*
X128318061Y-117505000D01*
X128521939Y-117505000D01*
X128721898Y-117465226D01*
X128910256Y-117387205D01*
X128920000Y-117380694D01*
X128929744Y-117387205D01*
X129118102Y-117465226D01*
X129318061Y-117505000D01*
X129521939Y-117505000D01*
X129721898Y-117465226D01*
X129910256Y-117387205D01*
X129920000Y-117380694D01*
X129929744Y-117387205D01*
X130118102Y-117465226D01*
X130318061Y-117505000D01*
X130521939Y-117505000D01*
X130721898Y-117465226D01*
X130910256Y-117387205D01*
X130920000Y-117380694D01*
X130929744Y-117387205D01*
X131118102Y-117465226D01*
X131318061Y-117505000D01*
X131521939Y-117505000D01*
X131721898Y-117465226D01*
X131910256Y-117387205D01*
X131920000Y-117380694D01*
X131929744Y-117387205D01*
X132118102Y-117465226D01*
X132318061Y-117505000D01*
X132521939Y-117505000D01*
X132721898Y-117465226D01*
X132910256Y-117387205D01*
X133079774Y-117273937D01*
X133223937Y-117129774D01*
X133337205Y-116960256D01*
X133415226Y-116771898D01*
X133455000Y-116571939D01*
X133455000Y-116378061D01*
X146535000Y-116378061D01*
X146535000Y-116581939D01*
X146574774Y-116781898D01*
X146652795Y-116970256D01*
X146766063Y-117139774D01*
X146910226Y-117283937D01*
X147079744Y-117397205D01*
X147268102Y-117475226D01*
X147468061Y-117515000D01*
X147565554Y-117515000D01*
X150254746Y-120204193D01*
X150277762Y-120232238D01*
X150389680Y-120324087D01*
X150517367Y-120392337D01*
X150655915Y-120434365D01*
X150800000Y-120448556D01*
X150836105Y-120445000D01*
X154103895Y-120445000D01*
X154140000Y-120448556D01*
X154176105Y-120445000D01*
X154284085Y-120434365D01*
X154422633Y-120392337D01*
X154550320Y-120324087D01*
X154662238Y-120232238D01*
X154685258Y-120204188D01*
X155834192Y-119055255D01*
X155862237Y-119032239D01*
X155954086Y-118920321D01*
X156022336Y-118792634D01*
X156064364Y-118654086D01*
X156074999Y-118546106D01*
X156078555Y-118510001D01*
X156074999Y-118473896D01*
X156074999Y-108370490D01*
X156219744Y-108467205D01*
X156408102Y-108545226D01*
X156608061Y-108585000D01*
X156811939Y-108585000D01*
X157011898Y-108545226D01*
X157200256Y-108467205D01*
X157369774Y-108353937D01*
X157513937Y-108209774D01*
X157627205Y-108040256D01*
X157705226Y-107851898D01*
X157745000Y-107651939D01*
X157745000Y-107448061D01*
X157705226Y-107248102D01*
X157627205Y-107059744D01*
X157620694Y-107050000D01*
X157627205Y-107040256D01*
X157705226Y-106851898D01*
X157745000Y-106651939D01*
X157745000Y-106448061D01*
X157705226Y-106248102D01*
X157627205Y-106059744D01*
X157620694Y-106050000D01*
X157627205Y-106040256D01*
X157705226Y-105851898D01*
X157745000Y-105651939D01*
X157745000Y-105448061D01*
X157705226Y-105248102D01*
X157627205Y-105059744D01*
X157620694Y-105050000D01*
X157627205Y-105040256D01*
X157705226Y-104851898D01*
X157745000Y-104651939D01*
X157745000Y-104448061D01*
X157705226Y-104248102D01*
X157627205Y-104059744D01*
X157513937Y-103890226D01*
X157369774Y-103746063D01*
X157200256Y-103632795D01*
X157011898Y-103554774D01*
X156811939Y-103515000D01*
X156608061Y-103515000D01*
X156408102Y-103554774D01*
X156219744Y-103632795D01*
X156074999Y-103729510D01*
X156074999Y-88125000D01*
X156141939Y-88125000D01*
X156341898Y-88085226D01*
X156530256Y-88007205D01*
X156699774Y-87893937D01*
X156843937Y-87749774D01*
X156957205Y-87580256D01*
X157035226Y-87391898D01*
X157064446Y-87245000D01*
X157131939Y-87245000D01*
X157331898Y-87205226D01*
X157520256Y-87127205D01*
X157689774Y-87013937D01*
X157833937Y-86869774D01*
X157947205Y-86700256D01*
X158025226Y-86511898D01*
X158065000Y-86311939D01*
X158065000Y-86108061D01*
X158025226Y-85908102D01*
X157947205Y-85719744D01*
X157833937Y-85550226D01*
X157689774Y-85406063D01*
X157520256Y-85292795D01*
X157331898Y-85214774D01*
X157131939Y-85175000D01*
X156928061Y-85175000D01*
X156728102Y-85214774D01*
X156539744Y-85292795D01*
X156370226Y-85406063D01*
X156226063Y-85550226D01*
X156112795Y-85719744D01*
X156074999Y-85810991D01*
X156074999Y-84756093D01*
X156078554Y-84719998D01*
X156074999Y-84683903D01*
X156074999Y-84683894D01*
X156064364Y-84575914D01*
X156022336Y-84437366D01*
X155954086Y-84309679D01*
X155905294Y-84250226D01*
X155885252Y-84225805D01*
X155885249Y-84225802D01*
X155862236Y-84197761D01*
X155834196Y-84174749D01*
X155425000Y-83765553D01*
X155425000Y-83668061D01*
X155385226Y-83468102D01*
X155307205Y-83279744D01*
X155300694Y-83270000D01*
X155307205Y-83260256D01*
X155385226Y-83071898D01*
X155425000Y-82871939D01*
X155425000Y-82668061D01*
X155385226Y-82468102D01*
X155307205Y-82279744D01*
X155300694Y-82270000D01*
X155307205Y-82260256D01*
X155385226Y-82071898D01*
X155425000Y-81871939D01*
X155425000Y-81668061D01*
X155385226Y-81468102D01*
X155307205Y-81279744D01*
X155300694Y-81270000D01*
X155307205Y-81260256D01*
X155385226Y-81071898D01*
X155425000Y-80871939D01*
X155425000Y-80668061D01*
X155385226Y-80468102D01*
X155307205Y-80279744D01*
X155300694Y-80270000D01*
X155307205Y-80260256D01*
X155385226Y-80071898D01*
X155425000Y-79871939D01*
X155425000Y-79668061D01*
X155385226Y-79468102D01*
X155307205Y-79279744D01*
X155193937Y-79110226D01*
X155049774Y-78966063D01*
X154880256Y-78852795D01*
X154691898Y-78774774D01*
X154491939Y-78735000D01*
X154288061Y-78735000D01*
X154088102Y-78774774D01*
X153899744Y-78852795D01*
X153730226Y-78966063D01*
X153586063Y-79110226D01*
X153472795Y-79279744D01*
X153394774Y-79468102D01*
X153355000Y-79668061D01*
X153355000Y-79871939D01*
X153394774Y-80071898D01*
X153472795Y-80260256D01*
X153479306Y-80270000D01*
X153472795Y-80279744D01*
X153394774Y-80468102D01*
X153355000Y-80668061D01*
X153355000Y-80871939D01*
X153394774Y-81071898D01*
X153472795Y-81260256D01*
X153479306Y-81270000D01*
X153472795Y-81279744D01*
X153394774Y-81468102D01*
X153355000Y-81668061D01*
X153355000Y-81871939D01*
X153394774Y-82071898D01*
X153472795Y-82260256D01*
X153479306Y-82270000D01*
X153472795Y-82279744D01*
X153394774Y-82468102D01*
X153355000Y-82668061D01*
X153355000Y-82871939D01*
X153394774Y-83071898D01*
X153472795Y-83260256D01*
X153479306Y-83270000D01*
X153472795Y-83279744D01*
X153394774Y-83468102D01*
X153355000Y-83668061D01*
X153355000Y-83735000D01*
X153288061Y-83735000D01*
X153088102Y-83774774D01*
X152899744Y-83852795D01*
X152890000Y-83859306D01*
X152880256Y-83852795D01*
X152691898Y-83774774D01*
X152491939Y-83735000D01*
X152288061Y-83735000D01*
X152088102Y-83774774D01*
X151899744Y-83852795D01*
X151730226Y-83966063D01*
X151586063Y-84110226D01*
X151472795Y-84279744D01*
X151430979Y-84380697D01*
X151403937Y-84340226D01*
X151259774Y-84196063D01*
X151090256Y-84082795D01*
X150901898Y-84004774D01*
X150701939Y-83965000D01*
X150498061Y-83965000D01*
X150298102Y-84004774D01*
X150109744Y-84082795D01*
X149940226Y-84196063D01*
X149796063Y-84340226D01*
X149682795Y-84509744D01*
X149604774Y-84698102D01*
X149565000Y-84898061D01*
X149565000Y-85101939D01*
X149604774Y-85301898D01*
X149682795Y-85490256D01*
X149796063Y-85659774D01*
X149940226Y-85803937D01*
X150109744Y-85917205D01*
X150298102Y-85995226D01*
X150498061Y-86035000D01*
X150701939Y-86035000D01*
X150901898Y-85995226D01*
X151090256Y-85917205D01*
X151259774Y-85803937D01*
X151403937Y-85659774D01*
X151517205Y-85490256D01*
X151559021Y-85389303D01*
X151586063Y-85429774D01*
X151730226Y-85573937D01*
X151899744Y-85687205D01*
X152088102Y-85765226D01*
X152255002Y-85798424D01*
X152255001Y-112313917D01*
X152251445Y-112350022D01*
X152255001Y-112386126D01*
X152265636Y-112494106D01*
X152307664Y-112632654D01*
X152375914Y-112760341D01*
X152467763Y-112872259D01*
X152495809Y-112895276D01*
X153804980Y-114204448D01*
X153804979Y-117874178D01*
X153504178Y-118174980D01*
X152304427Y-118174980D01*
X151321579Y-117192132D01*
X151373937Y-117139774D01*
X151487205Y-116970256D01*
X151565226Y-116781898D01*
X151605000Y-116581939D01*
X151605000Y-116484446D01*
X151794188Y-116295258D01*
X151822239Y-116272237D01*
X151914088Y-116160319D01*
X151982338Y-116032632D01*
X152024366Y-115894084D01*
X152035001Y-115786104D01*
X152035001Y-115786095D01*
X152038556Y-115750000D01*
X152035001Y-115713905D01*
X152035001Y-88790093D01*
X152038556Y-88753998D01*
X152035001Y-88717903D01*
X152035001Y-88717894D01*
X152024366Y-88609914D01*
X151982338Y-88471366D01*
X151914088Y-88343679D01*
X151897515Y-88323486D01*
X151845254Y-88259805D01*
X151845251Y-88259802D01*
X151822238Y-88231761D01*
X151794198Y-88208749D01*
X150671260Y-87085812D01*
X150648240Y-87057762D01*
X150536322Y-86965913D01*
X150408635Y-86897663D01*
X150270087Y-86855635D01*
X150162107Y-86845000D01*
X150126002Y-86841444D01*
X150089897Y-86845000D01*
X149328711Y-86845000D01*
X149259774Y-86776063D01*
X149090256Y-86662795D01*
X148901898Y-86584774D01*
X148701939Y-86545000D01*
X148498061Y-86545000D01*
X148298102Y-86584774D01*
X148109744Y-86662795D01*
X147940226Y-86776063D01*
X147796063Y-86920226D01*
X147682795Y-87089744D01*
X147604774Y-87278102D01*
X147565000Y-87478061D01*
X147565000Y-87681939D01*
X147604774Y-87881898D01*
X147682795Y-88070256D01*
X147796063Y-88239774D01*
X147940226Y-88383937D01*
X148109744Y-88497205D01*
X148298102Y-88575226D01*
X148498061Y-88615000D01*
X148701939Y-88615000D01*
X148901898Y-88575226D01*
X149090256Y-88497205D01*
X149259774Y-88383937D01*
X149328711Y-88315000D01*
X149821556Y-88315000D01*
X149866422Y-88359867D01*
X149796063Y-88430226D01*
X149682795Y-88599744D01*
X149604774Y-88788102D01*
X149565000Y-88988061D01*
X149565000Y-89191939D01*
X149604774Y-89391898D01*
X149682795Y-89580256D01*
X149796063Y-89749774D01*
X149940226Y-89893937D01*
X150109744Y-90007205D01*
X150298102Y-90085226D01*
X150498061Y-90125000D01*
X150565001Y-90125000D01*
X150565001Y-100076446D01*
X150453937Y-99910226D01*
X150309774Y-99766063D01*
X150140256Y-99652795D01*
X149951898Y-99574774D01*
X149751939Y-99535000D01*
X149548061Y-99535000D01*
X149348102Y-99574774D01*
X149159744Y-99652795D01*
X148990226Y-99766063D01*
X148846063Y-99910226D01*
X148732795Y-100079744D01*
X148654774Y-100268102D01*
X148615000Y-100468061D01*
X148615000Y-100671939D01*
X148654774Y-100871898D01*
X148732795Y-101060256D01*
X148739306Y-101070000D01*
X148732795Y-101079744D01*
X148654774Y-101268102D01*
X148615000Y-101468061D01*
X148615000Y-101671939D01*
X148654774Y-101871898D01*
X148732795Y-102060256D01*
X148739306Y-102070000D01*
X148732795Y-102079744D01*
X148654774Y-102268102D01*
X148615000Y-102468061D01*
X148615000Y-102671939D01*
X148654774Y-102871898D01*
X148732795Y-103060256D01*
X148739306Y-103070000D01*
X148732795Y-103079744D01*
X148654774Y-103268102D01*
X148615000Y-103468061D01*
X148615000Y-103671939D01*
X148654774Y-103871898D01*
X148732795Y-104060256D01*
X148739306Y-104070000D01*
X148732795Y-104079744D01*
X148654774Y-104268102D01*
X148615000Y-104468061D01*
X148615000Y-104671939D01*
X148654774Y-104871898D01*
X148732795Y-105060256D01*
X148739306Y-105070000D01*
X148732795Y-105079744D01*
X148654774Y-105268102D01*
X148615000Y-105468061D01*
X148615000Y-105671939D01*
X148654774Y-105871898D01*
X148732795Y-106060256D01*
X148739306Y-106070000D01*
X148732795Y-106079744D01*
X148654774Y-106268102D01*
X148615000Y-106468061D01*
X148615000Y-106671939D01*
X148654774Y-106871898D01*
X148732795Y-107060256D01*
X148739306Y-107070000D01*
X148732795Y-107079744D01*
X148654774Y-107268102D01*
X148615000Y-107468061D01*
X148615000Y-107671939D01*
X148654774Y-107871898D01*
X148732795Y-108060256D01*
X148846063Y-108229774D01*
X148990226Y-108373937D01*
X149159744Y-108487205D01*
X149348102Y-108565226D01*
X149548061Y-108605000D01*
X149751939Y-108605000D01*
X149951898Y-108565226D01*
X150140256Y-108487205D01*
X150309774Y-108373937D01*
X150453937Y-108229774D01*
X150565002Y-108063553D01*
X150565002Y-115445000D01*
X150468061Y-115445000D01*
X150268102Y-115484774D01*
X150079744Y-115562795D01*
X150070000Y-115569306D01*
X150060256Y-115562795D01*
X149871898Y-115484774D01*
X149671939Y-115445000D01*
X149468061Y-115445000D01*
X149268102Y-115484774D01*
X149079744Y-115562795D01*
X149070000Y-115569306D01*
X149060256Y-115562795D01*
X148871898Y-115484774D01*
X148671939Y-115445000D01*
X148468061Y-115445000D01*
X148268102Y-115484774D01*
X148079744Y-115562795D01*
X148070000Y-115569306D01*
X148060256Y-115562795D01*
X147871898Y-115484774D01*
X147671939Y-115445000D01*
X147468061Y-115445000D01*
X147268102Y-115484774D01*
X147079744Y-115562795D01*
X146910226Y-115676063D01*
X146766063Y-115820226D01*
X146652795Y-115989744D01*
X146574774Y-116178102D01*
X146535000Y-116378061D01*
X133455000Y-116378061D01*
X133455000Y-116368061D01*
X133415226Y-116168102D01*
X133337205Y-115979744D01*
X133223937Y-115810226D01*
X133079774Y-115666063D01*
X132910256Y-115552795D01*
X132721898Y-115474774D01*
X132521939Y-115435000D01*
X132318061Y-115435000D01*
X132118102Y-115474774D01*
X131929744Y-115552795D01*
X131920000Y-115559306D01*
X131910256Y-115552795D01*
X131721898Y-115474774D01*
X131521939Y-115435000D01*
X131318061Y-115435000D01*
X131118102Y-115474774D01*
X130929744Y-115552795D01*
X130920000Y-115559306D01*
X130910256Y-115552795D01*
X130721898Y-115474774D01*
X130521939Y-115435000D01*
X130318061Y-115435000D01*
X130118102Y-115474774D01*
X129929744Y-115552795D01*
X129920000Y-115559306D01*
X129910256Y-115552795D01*
X129721898Y-115474774D01*
X129521939Y-115435000D01*
X129318061Y-115435000D01*
X129118102Y-115474774D01*
X128929744Y-115552795D01*
X128920000Y-115559306D01*
X128910256Y-115552795D01*
X128721898Y-115474774D01*
X128521939Y-115435000D01*
X128318061Y-115435000D01*
X128118102Y-115474774D01*
X127929744Y-115552795D01*
X127920000Y-115559306D01*
X127910256Y-115552795D01*
X127721898Y-115474774D01*
X127521939Y-115435000D01*
X127318061Y-115435000D01*
X127118102Y-115474774D01*
X126929744Y-115552795D01*
X126920000Y-115559306D01*
X126910256Y-115552795D01*
X126721898Y-115474774D01*
X126521939Y-115435000D01*
X126318061Y-115435000D01*
X126118102Y-115474774D01*
X125929744Y-115552795D01*
X125920000Y-115559306D01*
X125910256Y-115552795D01*
X125721898Y-115474774D01*
X125521939Y-115435000D01*
X125318061Y-115435000D01*
X125118102Y-115474774D01*
X124929744Y-115552795D01*
X124760226Y-115666063D01*
X124616063Y-115810226D01*
X124502795Y-115979744D01*
X124424774Y-116168102D01*
X124385000Y-116368061D01*
X110660000Y-116368061D01*
X110660000Y-100340000D01*
X112061928Y-100340000D01*
X112061928Y-102440000D01*
X112074188Y-102564482D01*
X112110498Y-102684180D01*
X112169463Y-102794494D01*
X112248815Y-102891185D01*
X112345506Y-102970537D01*
X112455820Y-103029502D01*
X112575518Y-103065812D01*
X112700000Y-103078072D01*
X114800000Y-103078072D01*
X114924482Y-103065812D01*
X115044180Y-103029502D01*
X115154494Y-102970537D01*
X115251185Y-102891185D01*
X115330537Y-102794494D01*
X115371740Y-102717408D01*
X119973000Y-102717408D01*
X119973000Y-102992592D01*
X120026686Y-103262490D01*
X120131995Y-103516727D01*
X120284880Y-103745535D01*
X120479465Y-103940120D01*
X120708273Y-104093005D01*
X120962510Y-104198314D01*
X121232408Y-104252000D01*
X121507592Y-104252000D01*
X121777490Y-104198314D01*
X122031727Y-104093005D01*
X122260535Y-103940120D01*
X122455120Y-103745535D01*
X122608005Y-103516727D01*
X122713314Y-103262490D01*
X122767000Y-102992592D01*
X122767000Y-102717408D01*
X127593000Y-102717408D01*
X127593000Y-102992592D01*
X127646686Y-103262490D01*
X127751995Y-103516727D01*
X127904880Y-103745535D01*
X128099465Y-103940120D01*
X128328273Y-104093005D01*
X128582510Y-104198314D01*
X128852408Y-104252000D01*
X129127592Y-104252000D01*
X129397490Y-104198314D01*
X129651727Y-104093005D01*
X129880535Y-103940120D01*
X130075120Y-103745535D01*
X130228005Y-103516727D01*
X130333314Y-103262490D01*
X130387000Y-102992592D01*
X130387000Y-102717408D01*
X135213000Y-102717408D01*
X135213000Y-102992592D01*
X135266686Y-103262490D01*
X135371995Y-103516727D01*
X135524880Y-103745535D01*
X135719465Y-103940120D01*
X135948273Y-104093005D01*
X136202510Y-104198314D01*
X136472408Y-104252000D01*
X136747592Y-104252000D01*
X137017490Y-104198314D01*
X137271727Y-104093005D01*
X137500535Y-103940120D01*
X137695120Y-103745535D01*
X137848005Y-103516727D01*
X137880000Y-103439485D01*
X137911995Y-103516727D01*
X138064880Y-103745535D01*
X138259465Y-103940120D01*
X138488273Y-104093005D01*
X138742510Y-104198314D01*
X139012408Y-104252000D01*
X139287592Y-104252000D01*
X139557490Y-104198314D01*
X139811727Y-104093005D01*
X140040535Y-103940120D01*
X140235120Y-103745535D01*
X140388005Y-103516727D01*
X140493314Y-103262490D01*
X140547000Y-102992592D01*
X140547000Y-102717408D01*
X140493314Y-102447510D01*
X140388005Y-102193273D01*
X140235120Y-101964465D01*
X140040535Y-101769880D01*
X139811727Y-101616995D01*
X139557490Y-101511686D01*
X139287592Y-101458000D01*
X139012408Y-101458000D01*
X138742510Y-101511686D01*
X138488273Y-101616995D01*
X138259465Y-101769880D01*
X138064880Y-101964465D01*
X137911995Y-102193273D01*
X137880000Y-102270515D01*
X137848005Y-102193273D01*
X137695120Y-101964465D01*
X137500535Y-101769880D01*
X137271727Y-101616995D01*
X137017490Y-101511686D01*
X136747592Y-101458000D01*
X136472408Y-101458000D01*
X136202510Y-101511686D01*
X135948273Y-101616995D01*
X135719465Y-101769880D01*
X135524880Y-101964465D01*
X135371995Y-102193273D01*
X135266686Y-102447510D01*
X135213000Y-102717408D01*
X130387000Y-102717408D01*
X130333314Y-102447510D01*
X130228005Y-102193273D01*
X130075120Y-101964465D01*
X129880535Y-101769880D01*
X129651727Y-101616995D01*
X129397490Y-101511686D01*
X129127592Y-101458000D01*
X128852408Y-101458000D01*
X128582510Y-101511686D01*
X128328273Y-101616995D01*
X128099465Y-101769880D01*
X127904880Y-101964465D01*
X127751995Y-102193273D01*
X127646686Y-102447510D01*
X127593000Y-102717408D01*
X122767000Y-102717408D01*
X122713314Y-102447510D01*
X122608005Y-102193273D01*
X122455120Y-101964465D01*
X122260535Y-101769880D01*
X122031727Y-101616995D01*
X121777490Y-101511686D01*
X121507592Y-101458000D01*
X121232408Y-101458000D01*
X120962510Y-101511686D01*
X120708273Y-101616995D01*
X120479465Y-101769880D01*
X120284880Y-101964465D01*
X120131995Y-102193273D01*
X120026686Y-102447510D01*
X119973000Y-102717408D01*
X115371740Y-102717408D01*
X115389502Y-102684180D01*
X115425812Y-102564482D01*
X115438072Y-102440000D01*
X115438072Y-100340000D01*
X115425812Y-100215518D01*
X115389502Y-100095820D01*
X115330537Y-99985506D01*
X115251185Y-99888815D01*
X115154494Y-99809463D01*
X115044180Y-99750498D01*
X114924482Y-99714188D01*
X114800000Y-99701928D01*
X112700000Y-99701928D01*
X112575518Y-99714188D01*
X112455820Y-99750498D01*
X112345506Y-99809463D01*
X112248815Y-99888815D01*
X112169463Y-99985506D01*
X112110498Y-100095820D01*
X112074188Y-100215518D01*
X112061928Y-100340000D01*
X110660000Y-100340000D01*
X110660000Y-96144042D01*
X112065000Y-96144042D01*
X112065000Y-96475958D01*
X112129754Y-96801496D01*
X112256772Y-97108147D01*
X112441175Y-97384125D01*
X112675875Y-97618825D01*
X112951853Y-97803228D01*
X113258504Y-97930246D01*
X113584042Y-97995000D01*
X113915958Y-97995000D01*
X114241496Y-97930246D01*
X114548147Y-97803228D01*
X114824125Y-97618825D01*
X115058825Y-97384125D01*
X115243228Y-97108147D01*
X115370246Y-96801496D01*
X115397912Y-96662408D01*
X119973000Y-96662408D01*
X119973000Y-96937592D01*
X120026686Y-97207490D01*
X120131995Y-97461727D01*
X120284880Y-97690535D01*
X120479465Y-97885120D01*
X120708273Y-98038005D01*
X120962510Y-98143314D01*
X121232408Y-98197000D01*
X121507592Y-98197000D01*
X121777490Y-98143314D01*
X122031727Y-98038005D01*
X122260535Y-97885120D01*
X122455120Y-97690535D01*
X122608005Y-97461727D01*
X122713314Y-97207490D01*
X122767000Y-96937592D01*
X122767000Y-96662408D01*
X127593000Y-96662408D01*
X127593000Y-96937592D01*
X127646686Y-97207490D01*
X127751995Y-97461727D01*
X127904880Y-97690535D01*
X128099465Y-97885120D01*
X128328273Y-98038005D01*
X128582510Y-98143314D01*
X128852408Y-98197000D01*
X129127592Y-98197000D01*
X129397490Y-98143314D01*
X129651727Y-98038005D01*
X129880535Y-97885120D01*
X130075120Y-97690535D01*
X130228005Y-97461727D01*
X130333314Y-97207490D01*
X130387000Y-96937592D01*
X130387000Y-96662408D01*
X135213000Y-96662408D01*
X135213000Y-96937592D01*
X135266686Y-97207490D01*
X135371995Y-97461727D01*
X135524880Y-97690535D01*
X135719465Y-97885120D01*
X135948273Y-98038005D01*
X136202510Y-98143314D01*
X136472408Y-98197000D01*
X136747592Y-98197000D01*
X137017490Y-98143314D01*
X137271727Y-98038005D01*
X137500535Y-97885120D01*
X137695120Y-97690535D01*
X137848005Y-97461727D01*
X137880000Y-97384485D01*
X137911995Y-97461727D01*
X138064880Y-97690535D01*
X138259465Y-97885120D01*
X138488273Y-98038005D01*
X138742510Y-98143314D01*
X139012408Y-98197000D01*
X139287592Y-98197000D01*
X139557490Y-98143314D01*
X139811727Y-98038005D01*
X140040535Y-97885120D01*
X140235120Y-97690535D01*
X140388005Y-97461727D01*
X140493314Y-97207490D01*
X140547000Y-96937592D01*
X140547000Y-96662408D01*
X140493314Y-96392510D01*
X140388005Y-96138273D01*
X140235120Y-95909465D01*
X140040535Y-95714880D01*
X139811727Y-95561995D01*
X139557490Y-95456686D01*
X139287592Y-95403000D01*
X139012408Y-95403000D01*
X138742510Y-95456686D01*
X138488273Y-95561995D01*
X138259465Y-95714880D01*
X138064880Y-95909465D01*
X137911995Y-96138273D01*
X137880000Y-96215515D01*
X137848005Y-96138273D01*
X137695120Y-95909465D01*
X137500535Y-95714880D01*
X137271727Y-95561995D01*
X137017490Y-95456686D01*
X136747592Y-95403000D01*
X136472408Y-95403000D01*
X136202510Y-95456686D01*
X135948273Y-95561995D01*
X135719465Y-95714880D01*
X135524880Y-95909465D01*
X135371995Y-96138273D01*
X135266686Y-96392510D01*
X135213000Y-96662408D01*
X130387000Y-96662408D01*
X130333314Y-96392510D01*
X130228005Y-96138273D01*
X130075120Y-95909465D01*
X129880535Y-95714880D01*
X129651727Y-95561995D01*
X129397490Y-95456686D01*
X129127592Y-95403000D01*
X128852408Y-95403000D01*
X128582510Y-95456686D01*
X128328273Y-95561995D01*
X128099465Y-95714880D01*
X127904880Y-95909465D01*
X127751995Y-96138273D01*
X127646686Y-96392510D01*
X127593000Y-96662408D01*
X122767000Y-96662408D01*
X122713314Y-96392510D01*
X122608005Y-96138273D01*
X122455120Y-95909465D01*
X122260535Y-95714880D01*
X122031727Y-95561995D01*
X121777490Y-95456686D01*
X121507592Y-95403000D01*
X121232408Y-95403000D01*
X120962510Y-95456686D01*
X120708273Y-95561995D01*
X120479465Y-95714880D01*
X120284880Y-95909465D01*
X120131995Y-96138273D01*
X120026686Y-96392510D01*
X119973000Y-96662408D01*
X115397912Y-96662408D01*
X115435000Y-96475958D01*
X115435000Y-96144042D01*
X115370246Y-95818504D01*
X115243228Y-95511853D01*
X115058825Y-95235875D01*
X114824125Y-95001175D01*
X114548147Y-94816772D01*
X114241496Y-94689754D01*
X113915958Y-94625000D01*
X113584042Y-94625000D01*
X113258504Y-94689754D01*
X112951853Y-94816772D01*
X112675875Y-95001175D01*
X112441175Y-95235875D01*
X112256772Y-95511853D01*
X112129754Y-95818504D01*
X112065000Y-96144042D01*
X110660000Y-96144042D01*
X110660000Y-91064042D01*
X112065000Y-91064042D01*
X112065000Y-91395958D01*
X112129754Y-91721496D01*
X112256772Y-92028147D01*
X112441175Y-92304125D01*
X112675875Y-92538825D01*
X112951853Y-92723228D01*
X113258504Y-92850246D01*
X113584042Y-92915000D01*
X113915958Y-92915000D01*
X114241496Y-92850246D01*
X114548147Y-92723228D01*
X114824125Y-92538825D01*
X115058825Y-92304125D01*
X115243228Y-92028147D01*
X115370246Y-91721496D01*
X115435000Y-91395958D01*
X115435000Y-91064042D01*
X115370246Y-90738504D01*
X115318016Y-90612408D01*
X119973000Y-90612408D01*
X119973000Y-90887592D01*
X120026686Y-91157490D01*
X120131995Y-91411727D01*
X120284880Y-91640535D01*
X120479465Y-91835120D01*
X120708273Y-91988005D01*
X120962510Y-92093314D01*
X121232408Y-92147000D01*
X121507592Y-92147000D01*
X121777490Y-92093314D01*
X122031727Y-91988005D01*
X122260535Y-91835120D01*
X122455120Y-91640535D01*
X122608005Y-91411727D01*
X122713314Y-91157490D01*
X122767000Y-90887592D01*
X122767000Y-90612408D01*
X127593000Y-90612408D01*
X127593000Y-90887592D01*
X127646686Y-91157490D01*
X127751995Y-91411727D01*
X127904880Y-91640535D01*
X128099465Y-91835120D01*
X128328273Y-91988005D01*
X128582510Y-92093314D01*
X128852408Y-92147000D01*
X129127592Y-92147000D01*
X129397490Y-92093314D01*
X129651727Y-91988005D01*
X129880535Y-91835120D01*
X130075120Y-91640535D01*
X130228005Y-91411727D01*
X130333314Y-91157490D01*
X130387000Y-90887592D01*
X130387000Y-90612408D01*
X135213000Y-90612408D01*
X135213000Y-90887592D01*
X135266686Y-91157490D01*
X135371995Y-91411727D01*
X135524880Y-91640535D01*
X135719465Y-91835120D01*
X135948273Y-91988005D01*
X136202510Y-92093314D01*
X136472408Y-92147000D01*
X136747592Y-92147000D01*
X137017490Y-92093314D01*
X137271727Y-91988005D01*
X137500535Y-91835120D01*
X137695120Y-91640535D01*
X137848005Y-91411727D01*
X137880000Y-91334485D01*
X137911995Y-91411727D01*
X138064880Y-91640535D01*
X138259465Y-91835120D01*
X138488273Y-91988005D01*
X138742510Y-92093314D01*
X139012408Y-92147000D01*
X139287592Y-92147000D01*
X139557490Y-92093314D01*
X139811727Y-91988005D01*
X140040535Y-91835120D01*
X140235120Y-91640535D01*
X140388005Y-91411727D01*
X140493314Y-91157490D01*
X140547000Y-90887592D01*
X140547000Y-90612408D01*
X140493314Y-90342510D01*
X140388005Y-90088273D01*
X140235120Y-89859465D01*
X140040535Y-89664880D01*
X139811727Y-89511995D01*
X139557490Y-89406686D01*
X139287592Y-89353000D01*
X139012408Y-89353000D01*
X138742510Y-89406686D01*
X138488273Y-89511995D01*
X138259465Y-89664880D01*
X138064880Y-89859465D01*
X137911995Y-90088273D01*
X137880000Y-90165515D01*
X137848005Y-90088273D01*
X137695120Y-89859465D01*
X137500535Y-89664880D01*
X137271727Y-89511995D01*
X137017490Y-89406686D01*
X136747592Y-89353000D01*
X136472408Y-89353000D01*
X136202510Y-89406686D01*
X135948273Y-89511995D01*
X135719465Y-89664880D01*
X135524880Y-89859465D01*
X135371995Y-90088273D01*
X135266686Y-90342510D01*
X135213000Y-90612408D01*
X130387000Y-90612408D01*
X130333314Y-90342510D01*
X130228005Y-90088273D01*
X130075120Y-89859465D01*
X129880535Y-89664880D01*
X129651727Y-89511995D01*
X129397490Y-89406686D01*
X129127592Y-89353000D01*
X128852408Y-89353000D01*
X128582510Y-89406686D01*
X128328273Y-89511995D01*
X128099465Y-89664880D01*
X127904880Y-89859465D01*
X127751995Y-90088273D01*
X127646686Y-90342510D01*
X127593000Y-90612408D01*
X122767000Y-90612408D01*
X122713314Y-90342510D01*
X122608005Y-90088273D01*
X122455120Y-89859465D01*
X122260535Y-89664880D01*
X122031727Y-89511995D01*
X121777490Y-89406686D01*
X121507592Y-89353000D01*
X121232408Y-89353000D01*
X120962510Y-89406686D01*
X120708273Y-89511995D01*
X120479465Y-89664880D01*
X120284880Y-89859465D01*
X120131995Y-90088273D01*
X120026686Y-90342510D01*
X119973000Y-90612408D01*
X115318016Y-90612408D01*
X115243228Y-90431853D01*
X115058825Y-90155875D01*
X114824125Y-89921175D01*
X114548147Y-89736772D01*
X114241496Y-89609754D01*
X113915958Y-89545000D01*
X113584042Y-89545000D01*
X113258504Y-89609754D01*
X112951853Y-89736772D01*
X112675875Y-89921175D01*
X112441175Y-90155875D01*
X112256772Y-90431853D01*
X112129754Y-90738504D01*
X112065000Y-91064042D01*
X110660000Y-91064042D01*
X110660000Y-85984042D01*
X112065000Y-85984042D01*
X112065000Y-86315958D01*
X112129754Y-86641496D01*
X112256772Y-86948147D01*
X112441175Y-87224125D01*
X112675875Y-87458825D01*
X112951853Y-87643228D01*
X113258504Y-87770246D01*
X113584042Y-87835000D01*
X113915958Y-87835000D01*
X114241496Y-87770246D01*
X114548147Y-87643228D01*
X114824125Y-87458825D01*
X115058825Y-87224125D01*
X115243228Y-86948147D01*
X115370246Y-86641496D01*
X115435000Y-86315958D01*
X115435000Y-85984042D01*
X115370246Y-85658504D01*
X115243228Y-85351853D01*
X115058825Y-85075875D01*
X114824125Y-84841175D01*
X114548147Y-84656772D01*
X114320331Y-84562408D01*
X119973000Y-84562408D01*
X119973000Y-84837592D01*
X120026686Y-85107490D01*
X120131995Y-85361727D01*
X120284880Y-85590535D01*
X120479465Y-85785120D01*
X120708273Y-85938005D01*
X120962510Y-86043314D01*
X121232408Y-86097000D01*
X121507592Y-86097000D01*
X121777490Y-86043314D01*
X122031727Y-85938005D01*
X122260535Y-85785120D01*
X122455120Y-85590535D01*
X122608005Y-85361727D01*
X122713314Y-85107490D01*
X122767000Y-84837592D01*
X122767000Y-84562408D01*
X127593000Y-84562408D01*
X127593000Y-84837592D01*
X127646686Y-85107490D01*
X127751995Y-85361727D01*
X127904880Y-85590535D01*
X128099465Y-85785120D01*
X128328273Y-85938005D01*
X128582510Y-86043314D01*
X128852408Y-86097000D01*
X129127592Y-86097000D01*
X129397490Y-86043314D01*
X129651727Y-85938005D01*
X129880535Y-85785120D01*
X130075120Y-85590535D01*
X130228005Y-85361727D01*
X130333314Y-85107490D01*
X130387000Y-84837592D01*
X130387000Y-84562408D01*
X135213000Y-84562408D01*
X135213000Y-84837592D01*
X135266686Y-85107490D01*
X135371995Y-85361727D01*
X135524880Y-85590535D01*
X135719465Y-85785120D01*
X135948273Y-85938005D01*
X136202510Y-86043314D01*
X136472408Y-86097000D01*
X136747592Y-86097000D01*
X137017490Y-86043314D01*
X137271727Y-85938005D01*
X137500535Y-85785120D01*
X137695120Y-85590535D01*
X137848005Y-85361727D01*
X137880000Y-85284485D01*
X137911995Y-85361727D01*
X138064880Y-85590535D01*
X138259465Y-85785120D01*
X138488273Y-85938005D01*
X138742510Y-86043314D01*
X139012408Y-86097000D01*
X139287592Y-86097000D01*
X139557490Y-86043314D01*
X139811727Y-85938005D01*
X140040535Y-85785120D01*
X140235120Y-85590535D01*
X140388005Y-85361727D01*
X140493314Y-85107490D01*
X140547000Y-84837592D01*
X140547000Y-84562408D01*
X140493314Y-84292510D01*
X140388005Y-84038273D01*
X140235120Y-83809465D01*
X140233716Y-83808061D01*
X147355000Y-83808061D01*
X147355000Y-84011939D01*
X147394774Y-84211898D01*
X147472795Y-84400256D01*
X147479306Y-84410000D01*
X147472795Y-84419744D01*
X147394774Y-84608102D01*
X147355000Y-84808061D01*
X147355000Y-85011939D01*
X147394774Y-85211898D01*
X147472795Y-85400256D01*
X147586063Y-85569774D01*
X147730226Y-85713937D01*
X147899744Y-85827205D01*
X148088102Y-85905226D01*
X148288061Y-85945000D01*
X148491939Y-85945000D01*
X148691898Y-85905226D01*
X148880256Y-85827205D01*
X149049774Y-85713937D01*
X149193937Y-85569774D01*
X149307205Y-85400256D01*
X149385226Y-85211898D01*
X149425000Y-85011939D01*
X149425000Y-84808061D01*
X149385226Y-84608102D01*
X149307205Y-84419744D01*
X149300694Y-84410000D01*
X149307205Y-84400256D01*
X149385226Y-84211898D01*
X149425000Y-84011939D01*
X149425000Y-83808061D01*
X149385226Y-83608102D01*
X149307205Y-83419744D01*
X149193937Y-83250226D01*
X149049774Y-83106063D01*
X148880256Y-82992795D01*
X148691898Y-82914774D01*
X148491939Y-82875000D01*
X148288061Y-82875000D01*
X148088102Y-82914774D01*
X147899744Y-82992795D01*
X147730226Y-83106063D01*
X147586063Y-83250226D01*
X147472795Y-83419744D01*
X147394774Y-83608102D01*
X147355000Y-83808061D01*
X140233716Y-83808061D01*
X140040535Y-83614880D01*
X139811727Y-83461995D01*
X139557490Y-83356686D01*
X139287592Y-83303000D01*
X139012408Y-83303000D01*
X138742510Y-83356686D01*
X138488273Y-83461995D01*
X138259465Y-83614880D01*
X138064880Y-83809465D01*
X137911995Y-84038273D01*
X137880000Y-84115515D01*
X137848005Y-84038273D01*
X137695120Y-83809465D01*
X137500535Y-83614880D01*
X137271727Y-83461995D01*
X137017490Y-83356686D01*
X136747592Y-83303000D01*
X136472408Y-83303000D01*
X136202510Y-83356686D01*
X135948273Y-83461995D01*
X135719465Y-83614880D01*
X135524880Y-83809465D01*
X135371995Y-84038273D01*
X135266686Y-84292510D01*
X135213000Y-84562408D01*
X130387000Y-84562408D01*
X130333314Y-84292510D01*
X130228005Y-84038273D01*
X130075120Y-83809465D01*
X129880535Y-83614880D01*
X129651727Y-83461995D01*
X129397490Y-83356686D01*
X129127592Y-83303000D01*
X128852408Y-83303000D01*
X128582510Y-83356686D01*
X128328273Y-83461995D01*
X128099465Y-83614880D01*
X127904880Y-83809465D01*
X127751995Y-84038273D01*
X127646686Y-84292510D01*
X127593000Y-84562408D01*
X122767000Y-84562408D01*
X122713314Y-84292510D01*
X122608005Y-84038273D01*
X122455120Y-83809465D01*
X122260535Y-83614880D01*
X122031727Y-83461995D01*
X121777490Y-83356686D01*
X121507592Y-83303000D01*
X121232408Y-83303000D01*
X120962510Y-83356686D01*
X120708273Y-83461995D01*
X120479465Y-83614880D01*
X120284880Y-83809465D01*
X120131995Y-84038273D01*
X120026686Y-84292510D01*
X119973000Y-84562408D01*
X114320331Y-84562408D01*
X114241496Y-84529754D01*
X113915958Y-84465000D01*
X113584042Y-84465000D01*
X113258504Y-84529754D01*
X112951853Y-84656772D01*
X112675875Y-84841175D01*
X112441175Y-85075875D01*
X112256772Y-85351853D01*
X112129754Y-85658504D01*
X112065000Y-85984042D01*
X110660000Y-85984042D01*
X110660000Y-78835561D01*
X143027500Y-78835561D01*
X143027500Y-79039439D01*
X143067274Y-79239398D01*
X143145295Y-79427756D01*
X143258563Y-79597274D01*
X143402726Y-79741437D01*
X143572244Y-79854705D01*
X143760602Y-79932726D01*
X143960561Y-79972500D01*
X144164439Y-79972500D01*
X144364398Y-79932726D01*
X144552756Y-79854705D01*
X144722274Y-79741437D01*
X144866437Y-79597274D01*
X144979705Y-79427756D01*
X145057726Y-79239398D01*
X145097500Y-79039439D01*
X145097500Y-78835561D01*
X145057726Y-78635602D01*
X144979705Y-78447244D01*
X144866437Y-78277726D01*
X144722274Y-78133563D01*
X144552756Y-78020295D01*
X144364398Y-77942274D01*
X144164439Y-77902500D01*
X143960561Y-77902500D01*
X143760602Y-77942274D01*
X143572244Y-78020295D01*
X143402726Y-78133563D01*
X143258563Y-78277726D01*
X143145295Y-78447244D01*
X143067274Y-78635602D01*
X143027500Y-78835561D01*
X110660000Y-78835561D01*
X110660000Y-76748061D01*
X145505000Y-76748061D01*
X145505000Y-76951939D01*
X145544774Y-77151898D01*
X145622795Y-77340256D01*
X145736063Y-77509774D01*
X145880226Y-77653937D01*
X146049744Y-77767205D01*
X146238102Y-77845226D01*
X146438061Y-77885000D01*
X146641939Y-77885000D01*
X146841898Y-77845226D01*
X147030256Y-77767205D01*
X147199774Y-77653937D01*
X147343937Y-77509774D01*
X147457205Y-77340256D01*
X147535226Y-77151898D01*
X147575000Y-76951939D01*
X147575000Y-76748061D01*
X147535226Y-76548102D01*
X147457205Y-76359744D01*
X147343937Y-76190226D01*
X147199774Y-76046063D01*
X147030256Y-75932795D01*
X146841898Y-75854774D01*
X146641939Y-75815000D01*
X146438061Y-75815000D01*
X146238102Y-75854774D01*
X146049744Y-75932795D01*
X145880226Y-76046063D01*
X145736063Y-76190226D01*
X145622795Y-76359744D01*
X145544774Y-76548102D01*
X145505000Y-76748061D01*
X110660000Y-76748061D01*
X110660000Y-70652374D01*
X119605000Y-70652374D01*
X119605000Y-71027626D01*
X119678209Y-71395668D01*
X119821811Y-71742356D01*
X120030290Y-72054366D01*
X120295634Y-72319710D01*
X120607644Y-72528189D01*
X120954332Y-72671791D01*
X121322374Y-72745000D01*
X121697626Y-72745000D01*
X122065668Y-72671791D01*
X122326071Y-72563929D01*
X122218209Y-72824332D01*
X122145000Y-73192374D01*
X122145000Y-73567626D01*
X122218209Y-73935668D01*
X122361811Y-74282356D01*
X122570290Y-74594366D01*
X122835634Y-74859710D01*
X123147644Y-75068189D01*
X123494332Y-75211791D01*
X123862374Y-75285000D01*
X124237626Y-75285000D01*
X124605668Y-75211791D01*
X124952356Y-75068189D01*
X125264366Y-74859710D01*
X125529710Y-74594366D01*
X125738189Y-74282356D01*
X125881791Y-73935668D01*
X125955000Y-73567626D01*
X125955000Y-73192374D01*
X137385000Y-73192374D01*
X137385000Y-73567626D01*
X137458209Y-73935668D01*
X137601811Y-74282356D01*
X137810290Y-74594366D01*
X138075634Y-74859710D01*
X138387644Y-75068189D01*
X138734332Y-75211791D01*
X139102374Y-75285000D01*
X139477626Y-75285000D01*
X139845668Y-75211791D01*
X140192356Y-75068189D01*
X140504366Y-74859710D01*
X140769710Y-74594366D01*
X140978189Y-74282356D01*
X141121791Y-73935668D01*
X141195000Y-73567626D01*
X141195000Y-73192374D01*
X141121791Y-72824332D01*
X141013929Y-72563929D01*
X141274332Y-72671791D01*
X141642374Y-72745000D01*
X142017626Y-72745000D01*
X142385668Y-72671791D01*
X142732356Y-72528189D01*
X143044366Y-72319710D01*
X143309710Y-72054366D01*
X143518189Y-71742356D01*
X143661791Y-71395668D01*
X143735000Y-71027626D01*
X143735000Y-70652374D01*
X143661791Y-70284332D01*
X143657926Y-70275001D01*
X144731323Y-70275001D01*
X144734999Y-70312323D01*
X144734999Y-71110679D01*
X144731323Y-71148001D01*
X144734999Y-71185323D01*
X144734999Y-71185333D01*
X144745996Y-71296986D01*
X144789453Y-71440247D01*
X144860025Y-71572277D01*
X144886008Y-71603937D01*
X144954998Y-71688002D01*
X144984002Y-71711805D01*
X149145002Y-75872806D01*
X149145001Y-77745000D01*
X149078061Y-77745000D01*
X148878102Y-77784774D01*
X148689744Y-77862795D01*
X148680000Y-77869306D01*
X148670256Y-77862795D01*
X148481898Y-77784774D01*
X148281939Y-77745000D01*
X148078061Y-77745000D01*
X147878102Y-77784774D01*
X147689744Y-77862795D01*
X147520226Y-77976063D01*
X147376063Y-78120226D01*
X147262795Y-78289744D01*
X147184774Y-78478102D01*
X147145000Y-78678061D01*
X147145000Y-78881939D01*
X147184774Y-79081898D01*
X147262795Y-79270256D01*
X147269306Y-79280000D01*
X147262795Y-79289744D01*
X147184774Y-79478102D01*
X147145000Y-79678061D01*
X147145000Y-79881939D01*
X147184774Y-80081898D01*
X147262795Y-80270256D01*
X147376063Y-80439774D01*
X147520226Y-80583937D01*
X147689744Y-80697205D01*
X147878102Y-80775226D01*
X148078061Y-80815000D01*
X148281939Y-80815000D01*
X148481898Y-80775226D01*
X148670256Y-80697205D01*
X148839774Y-80583937D01*
X148983937Y-80439774D01*
X149097205Y-80270256D01*
X149175226Y-80081898D01*
X149215000Y-79881939D01*
X149215000Y-79815000D01*
X149281939Y-79815000D01*
X149481898Y-79775226D01*
X149670256Y-79697205D01*
X149680000Y-79690694D01*
X149689744Y-79697205D01*
X149878102Y-79775226D01*
X150078061Y-79815000D01*
X150281939Y-79815000D01*
X150481898Y-79775226D01*
X150670256Y-79697205D01*
X150839774Y-79583937D01*
X150983937Y-79439774D01*
X151097205Y-79270256D01*
X151175226Y-79081898D01*
X151215000Y-78881939D01*
X151215000Y-78678061D01*
X151175226Y-78478102D01*
X151097205Y-78289744D01*
X150983937Y-78120226D01*
X150839774Y-77976063D01*
X150670256Y-77862795D01*
X150665001Y-77860618D01*
X150665001Y-75595328D01*
X150668677Y-75558003D01*
X150665001Y-75520678D01*
X150665001Y-75520670D01*
X150654004Y-75409017D01*
X150610547Y-75265756D01*
X150539975Y-75133727D01*
X150445002Y-75018002D01*
X150416004Y-74994204D01*
X146952755Y-71530956D01*
X147023937Y-71459774D01*
X147137205Y-71290256D01*
X147170000Y-71211082D01*
X147202795Y-71290256D01*
X147316063Y-71459774D01*
X147460226Y-71603937D01*
X147629744Y-71717205D01*
X147818102Y-71795226D01*
X148018061Y-71835000D01*
X148221939Y-71835000D01*
X148421898Y-71795226D01*
X148610256Y-71717205D01*
X148779774Y-71603937D01*
X148923937Y-71459774D01*
X149037205Y-71290256D01*
X149115226Y-71101898D01*
X149155000Y-70901939D01*
X149155000Y-70698061D01*
X149115226Y-70498102D01*
X149037205Y-70309744D01*
X148923937Y-70140226D01*
X148779774Y-69996063D01*
X148610256Y-69882795D01*
X148421898Y-69804774D01*
X148221939Y-69765000D01*
X148018061Y-69765000D01*
X147818102Y-69804774D01*
X147629744Y-69882795D01*
X147460226Y-69996063D01*
X147316063Y-70140226D01*
X147202795Y-70309744D01*
X147170000Y-70388918D01*
X147137205Y-70309744D01*
X147023937Y-70140226D01*
X146879774Y-69996063D01*
X146852209Y-69977645D01*
X146854974Y-69974276D01*
X146925546Y-69842247D01*
X146969003Y-69698986D01*
X146980000Y-69587333D01*
X146980000Y-69587324D01*
X146983676Y-69550001D01*
X146982691Y-69540000D01*
X158111928Y-69540000D01*
X158111928Y-71240000D01*
X158124188Y-71364482D01*
X158160498Y-71484180D01*
X158219463Y-71594494D01*
X158298815Y-71691185D01*
X158395506Y-71770537D01*
X158505820Y-71829502D01*
X158578380Y-71851513D01*
X158446525Y-71983368D01*
X158284010Y-72226589D01*
X158172068Y-72496842D01*
X158115000Y-72783740D01*
X158115000Y-73076260D01*
X158172068Y-73363158D01*
X158284010Y-73633411D01*
X158446525Y-73876632D01*
X158653368Y-74083475D01*
X158896589Y-74245990D01*
X159166842Y-74357932D01*
X159453740Y-74415000D01*
X159746260Y-74415000D01*
X160033158Y-74357932D01*
X160303411Y-74245990D01*
X160546632Y-74083475D01*
X160753475Y-73876632D01*
X160915990Y-73633411D01*
X161027932Y-73363158D01*
X161085000Y-73076260D01*
X161085000Y-72783740D01*
X161027932Y-72496842D01*
X160915990Y-72226589D01*
X160753475Y-71983368D01*
X160621620Y-71851513D01*
X160694180Y-71829502D01*
X160804494Y-71770537D01*
X160901185Y-71691185D01*
X160980537Y-71594494D01*
X161039502Y-71484180D01*
X161075812Y-71364482D01*
X161088072Y-71240000D01*
X161088072Y-69540000D01*
X161075812Y-69415518D01*
X161039502Y-69295820D01*
X160980537Y-69185506D01*
X160901185Y-69088815D01*
X160804494Y-69009463D01*
X160694180Y-68950498D01*
X160574482Y-68914188D01*
X160450000Y-68901928D01*
X158750000Y-68901928D01*
X158625518Y-68914188D01*
X158505820Y-68950498D01*
X158395506Y-69009463D01*
X158298815Y-69088815D01*
X158219463Y-69185506D01*
X158160498Y-69295820D01*
X158124188Y-69415518D01*
X158111928Y-69540000D01*
X146982691Y-69540000D01*
X146980000Y-69512678D01*
X146980000Y-69303711D01*
X147023937Y-69259774D01*
X147137205Y-69090256D01*
X147215226Y-68901898D01*
X147255000Y-68701939D01*
X147255000Y-68498061D01*
X147215226Y-68298102D01*
X147137205Y-68109744D01*
X147023937Y-67940226D01*
X146879774Y-67796063D01*
X146710256Y-67682795D01*
X146521898Y-67604774D01*
X146321939Y-67565000D01*
X146118061Y-67565000D01*
X145918102Y-67604774D01*
X145729744Y-67682795D01*
X145560226Y-67796063D01*
X145416063Y-67940226D01*
X145302795Y-68109744D01*
X145224774Y-68298102D01*
X145185000Y-68498061D01*
X145185000Y-68701939D01*
X145224774Y-68901898D01*
X145302795Y-69090256D01*
X145416063Y-69259774D01*
X145425744Y-69269455D01*
X144983997Y-69711202D01*
X144954999Y-69735000D01*
X144931201Y-69763998D01*
X144931200Y-69763999D01*
X144860025Y-69850725D01*
X144789453Y-69982755D01*
X144765718Y-70061003D01*
X144745997Y-70126015D01*
X144734999Y-70237668D01*
X144734999Y-70237679D01*
X144731323Y-70275001D01*
X143657926Y-70275001D01*
X143518189Y-69937644D01*
X143309710Y-69625634D01*
X143044366Y-69360290D01*
X142732356Y-69151811D01*
X142385668Y-69008209D01*
X142017626Y-68935000D01*
X141642374Y-68935000D01*
X141274332Y-69008209D01*
X140927644Y-69151811D01*
X140615634Y-69360290D01*
X140350290Y-69625634D01*
X140141811Y-69937644D01*
X139998209Y-70284332D01*
X139925000Y-70652374D01*
X139925000Y-71027626D01*
X139998209Y-71395668D01*
X140106071Y-71656071D01*
X139845668Y-71548209D01*
X139477626Y-71475000D01*
X139102374Y-71475000D01*
X138734332Y-71548209D01*
X138387644Y-71691811D01*
X138075634Y-71900290D01*
X137810290Y-72165634D01*
X137601811Y-72477644D01*
X137458209Y-72824332D01*
X137385000Y-73192374D01*
X125955000Y-73192374D01*
X125881791Y-72824332D01*
X125738189Y-72477644D01*
X125529710Y-72165634D01*
X125264366Y-71900290D01*
X124952356Y-71691811D01*
X124605668Y-71548209D01*
X124237626Y-71475000D01*
X123862374Y-71475000D01*
X123494332Y-71548209D01*
X123233929Y-71656071D01*
X123341791Y-71395668D01*
X123415000Y-71027626D01*
X123415000Y-70652374D01*
X123341791Y-70284332D01*
X123198189Y-69937644D01*
X122989710Y-69625634D01*
X122724366Y-69360290D01*
X122412356Y-69151811D01*
X122065668Y-69008209D01*
X121697626Y-68935000D01*
X121322374Y-68935000D01*
X120954332Y-69008209D01*
X120607644Y-69151811D01*
X120295634Y-69360290D01*
X120030290Y-69625634D01*
X119821811Y-69937644D01*
X119678209Y-70284332D01*
X119605000Y-70652374D01*
X110660000Y-70652374D01*
X110660000Y-61532277D01*
X110679102Y-61337460D01*
X110726308Y-61181106D01*
X110802982Y-61036904D01*
X110906207Y-60910337D01*
X111032051Y-60806231D01*
X111175711Y-60728553D01*
X111331729Y-60680258D01*
X111524473Y-60660000D01*
X125984692Y-60660000D01*
X125823178Y-60692127D01*
M02*
